<?xml version="1.0" encoding="utf-8"?>
<!-- Generator: Adobe Illustrator 19.0.0, SVG Export Plug-In . SVG Version: 6.00 Build 0)  -->
<svg version="1.1" id="Layer_1" xmlns="http://www.w3.org/2000/svg" xmlns:xlink="http://www.w3.org/1999/xlink" x="0px" y="0px"
	 viewBox="0 0 400 90" style="enable-background:new 0 0 400 90;" xml:space="preserve">
<style type="text/css">
	.st0{fill:#F6E0CD;}
	.st1{fill:#8E4610;}
	.st2{display:none;}
	.st3{display:inline;fill:#F6E0CD;stroke:#F6E0CD;stroke-miterlimit:10;}
	.st4{display:inline;fill:#00897B;stroke:#00796B;stroke-miterlimit:10;}
	.st5{fill:#263238;stroke:#37474F;stroke-miterlimit:10;}
	.st6{fill:#424242;stroke:#424242;stroke-miterlimit:10;}
	.st7{fill:#FAFAFA;}
	.st8{fill:#00897B;stroke:#00796B;stroke-miterlimit:10;}
	.st9{fill:#F6E0CD;stroke:#F6E0CD;stroke-miterlimit:10;}
</style>
<g id="frame-1">
	<path id="kepala_1_" class="st0" d="M23.9,6.6c0,0-0.7,4.4-1.3,5.1c-0.7,0.6,0.6,0.3,0.7,0.6c0.1,0.3,0,4.2,0.6,4.3
		s1.7,0.3,2.7-0.6l-0.4,1.6c0,0,1.9,1.8,4.1-0.2c0,0-0.5-1.8-0.5-3s1.6-1.7,1.6-4.9c0-3.2-2.1-4.4-4.1-4.4S23.9,6.6,23.9,6.6z"/>
	<path id="XMLID_21_" class="st1" d="M27.3,5c-2.1,0-3.4,1.6-3.4,1.6s0,0.1,0,0.3c0.1,0,0.1,0,0.2,0c1.3,0,2.6,0.9,2.6,0.9
		s0.9,1,0.7,2.2c-0.2,1,2,3,2.7,3.6c0.4-0.9,1.5-1.6,1.5-4.2C31.5,6.2,29.3,5,27.3,5z"/>
	<g id="tangan-2_4_" class="st2">
		<path id="XMLID_20_" class="st3" d="M29.1,26.9c0,0,2.1,6.5,2.3,9c0.2,2.5,1,8.5,0.6,9.2c-0.4,0.7-1.5,0.6-1.1,1.7
			c0.4,1.2,3.2,4.4,4.1,1.8c0,0-0.4-1-0.2-1.7c0.2-0.7-0.5-1.9-0.5-1.9s1.1-11.8,0.3-14.4s-2-5.3-2-5.3S31.9,26.5,29.1,26.9z"/>
		<path id="XMLID_19_" class="st4" d="M26.7,20.3c0,0-1.3,1.6-0.5,2.6c0.9,1,2.3,4.2,2.7,5.6c0.1,0.4,0.7,0.8,1.4,0.9
			c1.6,0.3,3.9-0.2,3.8-1.9c-0.1-2.6-4.9-8.2-4.3-7.3C30.2,20.7,29.3,18.4,26.7,20.3z"/>
	</g>
	<g id="kaki-kanan_2_">
		<path id="kaki-kanan_3_" class="st5" d="M25.8,42.7c0,0-2.6,9.5-2.9,11.7L22.6,79c0,0-1.1,2.6,3.1,0.7c0,0,0.4-18.8,2.1-23.9
			c1.6-4.8,3.3-5.6,4.3-11.5C32.1,44.3,30.5,37.7,25.8,42.7z"/>
		<g id="sepatu-1_1_">
			<path id="XMLID_18_" class="st6" d="M22.2,79.9c0,0-5,1.9-6,1.6c0,0-2.5,0.7-0.6,1.4c0,0,4.2,1.7,9.7-0.3c0,0,0.8-1.5,0.5-2.8
				C25.9,79.9,24.4,80.5,22.2,79.9z"/>
			<path id="XMLID_17_" class="st7" d="M24.8,82.8c-5,1.3-8.5,0.3-9.9-0.3c0,0.2,0.2,0.3,0.7,0.5C15.6,83,19.6,84.5,24.8,82.8z"/>
		</g>
	</g>
	<g id="kaki-kiri_2_">
		<path id="kaki-kiri_3_" class="st5" d="M24.9,44.2c0,0-0.3,9.8-0.1,12l5.3,24c0,0-0.4,2.8,3.2,0c0,0-3.9-18.4-3.4-23.7
			c0.5-5.1,2-6.2,1.5-12.2C31.4,44.2,28.3,38.2,24.9,44.2z"/>
		<g id="sepatu-2_1_">
			<path id="XMLID_16_" class="st6" d="M29.4,78.8c0,0-4.3,3.2-5.3,3.2c0,0-2.3,1.3-0.2,1.5c0,0,4.5,0.5,9.3-2.9
				c0,0,0.3-1.7-0.2-2.8C32.9,77.8,31.7,78.8,29.4,78.8z"/>
			<path id="XMLID_15_" class="st7" d="M32.7,80.9c-4.5,2.6-8.1,2.6-9.7,2.4c0.1,0.1,0.3,0.3,0.8,0.3C23.9,83.6,28.1,84,32.7,80.9z"
				/>
		</g>
	</g>
	<path id="XMLID_14_" class="st8" d="M25.8,18.1c0,0-2.2,3.6-2.1,6.5c0,0,0.5,7.1,0.5,9.2s-0.5,13-0.5,13s5.3,2.8,9.7-0.2
		c0,0-0.9-15-0.2-17.9c0.7-2.9-0.6-9.2-2-10.9C29.7,17.1,27.6,16.8,25.8,18.1z"/>
	<g id="tangan-2_3_">
		<path id="XMLID_13_" class="st9" d="M27.3,26.8c0,0,0.3,6.8-0.1,9.3c-0.4,2.4-1.2,8.5-1.8,9.1s-1.6,0.2-1.5,1.4
			c0.1,1.2,2,5,3.5,2.8c0,0-0.1-1.1,0.2-1.7c0.3-0.6,0-2,0-2s4-11.1,3.9-13.8c-0.1-2.7-0.6-5.6-0.6-5.6S30.1,27.2,27.3,26.8z"/>
		<path id="XMLID_22_" class="st8" d="M26.7,19.8c0,0-1.7,1.2-1.1,2.4c0.6,1.2,1.1,4.6,1.2,6.1c0,0.5,0.5,0.9,1.2,1.2
			c1.5,0.7,3.8,0.8,4.2-0.9c0.5-2.5-2.7-9.2-2.3-8.1C30,21.1,29.6,18.7,26.7,19.8z"/>
	</g>
</g>
<g id="frame-2_1_">
	<path id="kepala_5_" class="st0" d="M74.8,6.6c0,0-0.7,4.4-1.3,5.1c-0.7,0.6,0.6,0.3,0.7,0.6c0.1,0.3,0,4.2,0.6,4.3
		c0.6,0.1,1.7,0.3,2.7-0.6l-0.4,1.6c0,0,1.9,1.8,4.1-0.2c0,0-0.5-1.8-0.5-3s1.6-1.7,1.6-4.9S80.2,5,78.2,5S74.8,6.6,74.8,6.6z"/>
	<path id="XMLID_74_" class="st1" d="M78.2,5c-2.1,0-3.4,1.6-3.4,1.6s0,0.1,0,0.3c0.1,0,0.1,0,0.2,0c1.3,0,2.6,0.9,2.6,0.9
		s0.9,1,0.7,2.2c-0.2,1,2,3,2.7,3.6c0.4-0.9,1.5-1.6,1.5-4.2C82.4,6.2,80.2,5,78.2,5z"/>
	<g id="tangan-2_12_">
		<path id="XMLID_73_" class="st9" d="M79.2,26.9c0,0,2.1,6.5,2.3,9c0.2,2.5,1,8.5,0.6,9.2c-0.4,0.7-1.5,0.6-1.1,1.7
			c0.4,1.2,3.2,4.4,4.1,1.8c0,0-0.4-1-0.2-1.7c0.2-0.7-0.5-1.9-0.5-1.9s1.1-11.8,0.3-14.4c-0.8-2.6-2-5.3-2-5.3S82,26.5,79.2,26.9z"
			/>
		<path id="XMLID_72_" class="st8" d="M76.8,20.3c0,0-1.3,1.6-0.5,2.6c0.9,1,2.3,4.2,2.7,5.6c0.1,0.4,0.7,0.8,1.4,0.9
			c1.6,0.3,3.9-0.2,3.8-1.9c-0.1-2.6-4.9-8.2-4.3-7.3C80.3,20.7,79.3,18.4,76.8,20.3z"/>
	</g>
	<g id="kaki-kanan_10_">
		<path id="kaki-kanan_11_" class="st5" d="M77.6,43.3c0,0-4,9-4.6,11.1l-4,24.2c0,0-1.4,2.4,2.9,1.2c0,0,3.3-18.5,5.8-23.3
			c2.3-4.5,4.2-5,6-10.7C83.7,45.8,83,39.1,77.6,43.3z"/>
		<g id="sepatu-1_5_">
			<path id="XMLID_71_" class="st6" d="M68.4,79.5c0,0-5.2,1.1-6.2,0.7c0,0-2.6,0.3-0.8,1.3c0,0,3.9,2.3,9.6,1.2c0,0,1-1.4,1-2.7
				C72,80,70.5,80.4,68.4,79.5z"/>
			<path id="XMLID_70_" class="st7" d="M70.6,82.8c-5.2,0.5-8.4-1-9.8-1.9c0,0.2,0.2,0.4,0.6,0.6C61.4,81.5,65.1,83.7,70.6,82.8z"/>
		</g>
	</g>
	<g id="kaki-kiri_10_">
		<path id="kaki-kiri_11_" class="st5" d="M75.3,45.3c0,0,1.1,9.8,1.6,11.9l8.7,23c0,0,0,2.8,3.1-0.5c0,0-6.5-17.7-6.8-23
			c-0.3-5.1,1.1-6.4-0.2-12.3C81.8,44.5,77.8,39,75.3,45.3z"/>
		<g id="sepatu-2_5_">
			<path id="XMLID_69_" class="st6" d="M84.8,79c0,0-3.8,3.8-4.8,3.9c0,0-2.1,1.7,0,1.5c0,0,4.5-0.2,8.7-4.3c0,0,0.1-1.7-0.6-2.8
				C88.1,77.5,87.1,78.6,84.8,79z"/>
			<path id="XMLID_68_" class="st7" d="M88.4,80.5c-4.1,3.2-7.6,3.7-9.2,3.7c0.1,0.1,0.4,0.2,0.9,0.2C80,84.5,84.3,84.3,88.4,80.5z"
				/>
		</g>
	</g>
	<path id="XMLID_67_" class="st8" d="M76.7,18.1c0,0-2.2,3.6-2.1,6.5c0,0,0.5,7.1,0.5,9.2s-0.5,13-0.5,13s5.3,2.8,9.7-0.2
		c0,0-0.9-15-0.2-17.9s-0.6-9.2-2-10.9C80.6,17.1,78.6,16.8,76.7,18.1z"/>
	<g id="tangan-2_11_">
		<path id="XMLID_66_" class="st9" d="M76.2,27c0,0-1.1,6.7-2,9s-3,8-3.6,8.5c-0.7,0.5-1.6-0.2-1.8,1s0.9,5.3,2.8,3.4
			c0,0,0.1-1.1,0.5-1.6c0.5-0.5,0.4-1.9,0.4-1.9s6.2-10.1,6.7-12.7s0.6-5.6,0.6-5.6S78.8,27.9,76.2,27z"/>
		<path id="XMLID_65_" class="st8" d="M77,20c0,0-1.9,0.8-1.6,2.1s0.2,4.7-0.1,6.2c-0.1,0.5,0.3,1,0.9,1.5c1.3,1,3.6,1.6,4.3,0
			c1-2.3-0.7-9.5-0.6-8.4C79.9,22,80.1,19.5,77,20z"/>
	</g>
</g>
<g id="frame-3_1_">
	<path id="kepala" class="st0" d="M125,6.6c0,0-0.7,4.4-1.3,5.1c-0.7,0.6,0.6,0.3,0.7,0.6c0.1,0.3,0,4.2,0.6,4.3
		c0.6,0.1,1.7,0.3,2.7-0.6l-0.4,1.6c0,0,1.9,1.8,4.1-0.2c0,0-0.5-1.8-0.5-3s1.6-1.7,1.6-4.9S130.4,5,128.4,5S125,6.6,125,6.6z"/>
	<path id="XMLID_12_" class="st1" d="M128.4,5c-2.1,0-3.4,1.6-3.4,1.6s0,0.1,0,0.3c0.1,0,0.1,0,0.2,0c1.3,0,2.6,0.9,2.6,0.9
		s0.9,1,0.7,2.2c-0.2,1,2,3,2.7,3.6c0.4-0.9,1.5-1.6,1.5-4.2C132.6,6.2,130.4,5,128.4,5z"/>
	<g id="tangan-2_2_">
		<path id="XMLID_7_" class="st9" d="M129.7,27c0,0,2.5,6.4,2.9,8.8c0.4,2.4,1.5,8.4,1.2,9.2s-1.5,0.7-1,1.8
			c0.4,1.1,3.5,4.1,4.2,1.5c0,0-0.5-1-0.3-1.7s-0.6-1.9-0.6-1.9s0.3-11.9-0.6-14.4c-0.9-2.5-2.3-5.1-2.3-5.1S132.4,26.5,129.7,27z"
			/>
		<path id="XMLID_4_" class="st8" d="M126.9,20.5c0,0-1.2,1.7-0.3,2.6c0.9,0.9,2.5,4,3.1,5.4c0.2,0.4,0.8,0.7,1.5,0.8
			c1.6,0.2,3.9-0.4,3.7-2.2c-0.3-2.6-5.4-7.9-4.8-7C130.4,20.8,129.3,18.5,126.9,20.5z"/>
	</g>
	<g id="kaki-kanan">
		<path id="kaki-kanan_1_" class="st5" d="M127.2,44.1c0,0-5,8.5-5.9,10.5l-6.8,23.6c0,0-1.7,2.2,2.8,1.5c0,0,5.4-18,8.4-22.5
			c2.8-4.2,4.7-4.5,7.2-10C132.9,47.3,133,40.5,127.2,44.1z"/>
		<g id="sepatu-1">
			<path id="XMLID_5_" class="st6" d="M113.9,79c0,0-5.3,0.5-6.2,0c0,0-2.6,0-1,1.2c0,0,3.6,2.7,9.4,2.3c0,0,1.1-1.3,1.3-2.5
				C117.4,79.9,115.9,80.2,113.9,79z"/>
			<path id="XMLID_10_" class="st7" d="M115.7,82.5c-5.2-0.1-8.2-2-9.5-3c0,0.2,0.1,0.4,0.5,0.7C106.7,80.2,110.1,82.7,115.7,82.5z"
				/>
		</g>
	</g>
	<g id="kaki-kiri_1_">
		<path id="kaki-kiri" class="st5" d="M125.4,46c0,0,2.4,9.5,3.3,11.6l11.9,21.5c0,0,0.4,2.8,3.1-0.9c0,0-8.9-16.6-9.9-21.8
			c-1-5,0.2-6.5-1.9-12.1C131.7,44.3,127.1,39.4,125.4,46z"/>
		<g id="sepatu-2">
			<path id="XMLID_8_" class="st6" d="M139.6,78c0,0-3.2,4.3-4.2,4.6c0,0-1.8,1.9,0.2,1.5c0,0,4.4-0.8,8-5.4c0,0-0.2-1.7-1-2.6
				C142.6,76,141.8,77.3,139.6,78z"/>
			<path id="XMLID_6_" class="st7" d="M143.3,79.1c-3.6,3.8-7,4.7-8.6,5c0.1,0.1,0.4,0.2,0.9,0.1C135.6,84.1,139.8,83.3,143.3,79.1z
				"/>
		</g>
	</g>
	<path id="XMLID_2_" class="st8" d="M126.9,18.1c0,0-2.2,3.6-2.1,6.5c0,0,0.5,7.1,0.5,9.2s-0.5,13-0.5,13s5.3,2.8,9.7-0.2
		c0,0-0.9-15-0.2-17.9s-0.6-9.2-2-10.9C130.8,17.1,128.7,16.8,126.9,18.1z"/>
	<g id="tangan-2_1_">
		<path id="XMLID_9_" class="st9" d="M127.3,27.2c0,0-1.9,6.5-3.1,8.7c-1.2,2.2-3.9,7.6-4.7,8c-0.7,0.4-1.6-0.4-1.9,0.8
			c-0.3,1.2,0.2,5.4,2.4,3.8c0,0,0.2-1.1,0.7-1.5c0.5-0.5,0.7-1.8,0.7-1.8s7.5-9.2,8.3-11.8s1.3-5.5,1.3-5.5S129.8,28.5,127.3,27.2z
			"/>
		<path id="XMLID_11_" class="st8" d="M129,20.4c0,0-2,0.6-1.8,1.9c0.2,1.3-0.4,4.7-0.9,6.1c-0.1,0.4,0.2,1,0.7,1.6
			c1.1,1.1,3.3,2,4.2,0.5c1.3-2.2,0.5-9.6,0.5-8.4C131.7,22.8,132.1,20.3,129,20.4z"/>
	</g>
</g>
<g id="frame-4">
	<path id="kepala_2_" class="st0" d="M175,6.6c0,0-0.7,4.4-1.3,5.1c-0.7,0.6,0.6,0.3,0.7,0.6c0.1,0.3,0,4.2,0.6,4.3s1.7,0.3,2.7-0.6
		l-0.4,1.6c0,0,1.9,1.8,4.1-0.2c0,0-0.5-1.8-0.5-3s1.6-1.7,1.6-4.9S180.4,5,178.4,5S175,6.6,175,6.6z"/>
	<path id="XMLID_33_" class="st1" d="M178.4,5c-2.1,0-3.4,1.6-3.4,1.6s0,0.1,0,0.3c0.1,0,0.1,0,0.2,0c1.3,0,2.6,0.9,2.6,0.9
		s0.9,1,0.7,2.2c-0.2,1,2,3,2.7,3.6c0.4-0.9,1.5-1.6,1.5-4.2C182.6,6.2,180.4,5,178.4,5z"/>
	<g id="tangan-2_6_">
		<path id="XMLID_32_" class="st9" d="M179.4,26.9c0,0,2.1,6.5,2.3,9c0.2,2.5,1,8.5,0.6,9.2c-0.4,0.7-1.5,0.6-1.1,1.7
			c0.4,1.2,3.2,4.4,4.1,1.8c0,0-0.4-1-0.2-1.7c0.2-0.7-0.5-1.9-0.5-1.9s1.1-11.8,0.3-14.4c-0.8-2.6-2-5.3-2-5.3
			S182.2,26.5,179.4,26.9z"/>
		<path id="XMLID_31_" class="st8" d="M177,20.3c0,0-1.3,1.6-0.5,2.6c0.9,1,2.3,4.2,2.7,5.6c0.1,0.4,0.7,0.8,1.4,0.9
			c1.6,0.3,3.9-0.2,3.8-1.9c-0.1-2.6-4.9-8.2-4.3-7.3C180.5,20.7,179.5,18.4,177,20.3z"/>
	</g>
	<g id="kaki-kanan_4_">
		<path id="kaki-kanan_5_" class="st5" d="M177.9,43.3c0,0-4,9-4.6,11.1l-4,24.2c0,0-1.4,2.4,2.9,1.2c0,0,3.3-18.5,5.8-23.3
			c2.3-4.5,4.2-5,6-10.7C183.9,45.8,183.3,39.1,177.9,43.3z"/>
		<g id="sepatu-1_2_">
			<path id="XMLID_30_" class="st6" d="M168.6,79.5c0,0-5.2,1.1-6.2,0.7c0,0-2.6,0.3-0.8,1.3c0,0,3.9,2.3,9.6,1.2c0,0,1-1.4,1-2.7
				C172.2,80,170.7,80.4,168.6,79.5z"/>
			<path id="XMLID_29_" class="st7" d="M170.8,82.8c-5.2,0.5-8.4-1-9.8-1.9c0,0.2,0.2,0.4,0.6,0.6C161.6,81.5,165.3,83.7,170.8,82.8
				z"/>
		</g>
	</g>
	<g id="kaki-kiri_4_">
		<path id="kaki-kiri_5_" class="st5" d="M175.5,45.3c0,0,1.1,9.8,1.6,11.9l8.7,23c0,0,0,2.8,3.1-0.5c0,0-6.5-17.7-6.8-23
			c-0.3-5.1,1.1-6.4-0.2-12.3C182,44.5,178,39,175.5,45.3z"/>
		<g id="sepatu-2_2_">
			<path id="XMLID_28_" class="st6" d="M185,79c0,0-3.8,3.8-4.8,3.9c0,0-2.1,1.7,0,1.5c0,0,4.5-0.2,8.7-4.3c0,0,0.1-1.7-0.6-2.8
				C188.3,77.5,187.3,78.6,185,79z"/>
			<path id="XMLID_27_" class="st7" d="M188.6,80.5c-4.1,3.2-7.6,3.7-9.2,3.7c0.1,0.1,0.4,0.2,0.9,0.2
				C180.2,84.5,184.5,84.3,188.6,80.5z"/>
		</g>
	</g>
	<path id="XMLID_26_" class="st8" d="M176.9,18.1c0,0-2.2,3.6-2.1,6.5c0,0,0.5,7.1,0.5,9.2s-0.5,13-0.5,13s5.3,2.8,9.7-0.2
		c0,0-0.9-15-0.2-17.9s-0.6-9.2-2-10.9C180.8,17.1,178.8,16.8,176.9,18.1z"/>
	<g id="tangan-2_5_">
		<path id="XMLID_24_" class="st9" d="M176.4,27c0,0-1.1,6.7-2,9s-3,8-3.6,8.5c-0.7,0.5-1.6-0.2-1.8,1c-0.2,1.2,0.9,5.3,2.8,3.4
			c0,0,0.1-1.1,0.5-1.6c0.5-0.5,0.4-1.9,0.4-1.9s6.2-10.1,6.7-12.7s0.6-5.6,0.6-5.6S179,27.9,176.4,27z"/>
		<path id="XMLID_23_" class="st8" d="M177.2,20c0,0-1.9,0.8-1.6,2.1s0.2,4.7-0.1,6.2c-0.1,0.5,0.3,1,0.9,1.5c1.3,1,3.6,1.6,4.3,0
			c1-2.3-0.7-9.5-0.6-8.4C180.1,22,180.3,19.5,177.2,20z"/>
	</g>
</g>
<g id="frame-5">
	<path id="kepala_3_" class="st0" d="M223.9,6.6c0,0-0.7,4.4-1.3,5.1c-0.7,0.6,0.6,0.3,0.7,0.6c0.1,0.3,0,4.2,0.6,4.3
		c0.6,0.1,1.7,0.3,2.7-0.6l-0.4,1.6c0,0,1.9,1.8,4.1-0.2c0,0-0.5-1.8-0.5-3s1.6-1.7,1.6-4.9S229.3,5,227.3,5
		C225.2,5,223.9,6.6,223.9,6.6z"/>
	<path id="XMLID_54_" class="st1" d="M227.3,5c-2.1,0-3.4,1.6-3.4,1.6s0,0.1,0,0.3c0.1,0,0.1,0,0.2,0c1.3,0,2.6,0.9,2.6,0.9
		s0.9,1,0.7,2.2c-0.2,1,2,3,2.7,3.6c0.4-0.9,1.5-1.6,1.5-4.2C231.5,6.2,229.3,5,227.3,5z"/>
	<g id="tangan-2_8_" class="st2">
		<path id="XMLID_42_" class="st3" d="M229.1,26.9c0,0,2.1,6.5,2.3,9c0.2,2.5,1,8.5,0.6,9.2c-0.4,0.7-1.5,0.6-1.1,1.7
			c0.4,1.2,3.2,4.4,4.1,1.8c0,0-0.4-1-0.2-1.7c0.2-0.7-0.5-1.9-0.5-1.9s1.1-11.8,0.3-14.4c-0.8-2.6-2-5.3-2-5.3
			S231.9,26.5,229.1,26.9z"/>
		<path id="XMLID_41_" class="st4" d="M226.7,20.3c0,0-1.3,1.6-0.5,2.6c0.9,1,2.3,4.2,2.7,5.6c0.1,0.4,0.7,0.8,1.4,0.9
			c1.6,0.3,3.9-0.2,3.8-1.9c-0.1-2.6-4.9-8.2-4.3-7.3C230.2,20.7,229.3,18.4,226.7,20.3z"/>
	</g>
	<g id="kaki-kanan_6_">
		<path id="kaki-kanan_7_" class="st5" d="M225.8,42.7c0,0-2.6,9.5-2.9,11.7L222.6,79c0,0-1.1,2.6,3.1,0.7c0,0,0.4-18.8,2.1-23.9
			c1.6-4.8,3.3-5.6,4.3-11.5C232.1,44.3,230.5,37.7,225.8,42.7z"/>
		<g id="sepatu-1_3_">
			<path id="XMLID_40_" class="st6" d="M222.2,79.9c0,0-5,1.9-6,1.6c0,0-2.5,0.7-0.6,1.4c0,0,4.2,1.7,9.7-0.3c0,0,0.8-1.5,0.5-2.8
				C225.9,79.9,224.4,80.5,222.2,79.9z"/>
			<path id="XMLID_39_" class="st7" d="M224.8,82.8c-5,1.3-8.5,0.3-9.9-0.3c0,0.2,0.2,0.3,0.7,0.5C215.6,83,219.6,84.5,224.8,82.8z"
				/>
		</g>
	</g>
	<g id="kaki-kiri_6_">
		<path id="kaki-kiri_7_" class="st5" d="M224.9,44.2c0,0-0.3,9.8-0.1,12l5.3,24c0,0-0.4,2.8,3.2,0c0,0-3.9-18.4-3.4-23.7
			c0.5-5.1,2-6.2,1.5-12.2C231.4,44.2,228.3,38.2,224.9,44.2z"/>
		<g id="sepatu-2_3_">
			<path id="XMLID_38_" class="st6" d="M229.4,78.8c0,0-4.3,3.2-5.3,3.2c0,0-2.3,1.3-0.2,1.5c0,0,4.5,0.5,9.3-2.9
				c0,0,0.3-1.7-0.2-2.8C232.9,77.8,231.7,78.8,229.4,78.8z"/>
			<path id="XMLID_37_" class="st7" d="M232.7,80.9c-4.5,2.6-8.1,2.6-9.7,2.4c0.1,0.1,0.3,0.3,0.8,0.3
				C223.9,83.6,228.1,84,232.7,80.9z"/>
		</g>
	</g>
	<path id="XMLID_36_" class="st8" d="M225.8,18.1c0,0-2.2,3.6-2.1,6.5c0,0,0.5,7.1,0.5,9.2s-0.5,13-0.5,13s5.3,2.8,9.7-0.2
		c0,0-0.9-15-0.2-17.9s-0.6-9.2-2-10.9C229.7,17.1,227.6,16.8,225.8,18.1z"/>
	<g id="tangan-2_7_">
		<path id="XMLID_35_" class="st9" d="M227.3,26.8c0,0,0.3,6.8-0.1,9.3c-0.4,2.4-1.2,8.5-1.8,9.1s-1.6,0.2-1.5,1.4
			c0.1,1.2,2,5,3.5,2.8c0,0-0.1-1.1,0.2-1.7c0.3-0.6,0-2,0-2s4-11.1,3.9-13.8c-0.1-2.7-0.6-5.6-0.6-5.6S230.1,27.2,227.3,26.8z"/>
		<path id="XMLID_34_" class="st8" d="M226.7,19.8c0,0-1.7,1.2-1.1,2.4c0.6,1.2,1.1,4.6,1.2,6.1c0,0.5,0.5,0.9,1.2,1.2
			c1.5,0.7,3.8,0.8,4.2-0.9c0.5-2.5-2.7-9.2-2.3-8.1C230,21.1,229.6,18.7,226.7,19.8z"/>
	</g>
</g>
<g id="frame-6_1_">
	<path id="kepala_7_" class="st0" d="M275.2,6.6c0,0-0.7,4.4-1.3,5.1c-0.7,0.6,0.6,0.3,0.7,0.6c0.1,0.3,0,4.2,0.6,4.3
		c0.6,0.1,1.7,0.3,2.7-0.6l-0.4,1.6c0,0,1.9,1.8,4.1-0.2c0,0-0.5-1.8-0.5-3s1.6-1.7,1.6-4.9S280.7,5,278.6,5S275.2,6.6,275.2,6.6z"
		/>
	<path id="XMLID_94_" class="st1" d="M278.6,5c-2.1,0-3.4,1.6-3.4,1.6s0,0.1,0,0.3c0.1,0,0.1,0,0.2,0c1.3,0,2.6,0.9,2.6,0.9
		s0.9,1,0.7,2.2c-0.2,1,2,3,2.7,3.6c0.4-0.9,1.5-1.6,1.5-4.2C282.8,6.2,280.7,5,278.6,5z"/>
	<g id="kaki-kiri_14_">
		<path id="kaki-kiri_15_" class="st5" d="M275.7,45.3c0,0,1.1,9.8,1.6,11.9l8.7,23c0,0,0,2.8,3.1-0.5c0,0-6.5-17.7-6.8-23
			c-0.3-5.1,1.1-6.4-0.2-12.3C282.2,44.5,278.2,39,275.7,45.3z"/>
		<g id="sepatu-2_7_">
			<path id="XMLID_89_" class="st6" d="M285.2,79c0,0-3.8,3.8-4.8,3.9c0,0-2.1,1.7,0,1.5c0,0,4.5-0.2,8.7-4.3c0,0,0.1-1.7-0.6-2.8
				C288.5,77.5,287.5,78.6,285.2,79z"/>
			<path id="XMLID_88_" class="st7" d="M288.8,80.5c-4.1,3.2-7.6,3.7-9.2,3.7c0.1,0.1,0.4,0.2,0.9,0.2
				C280.4,84.5,284.7,84.3,288.8,80.5z"/>
		</g>
	</g>
	<g id="kaki-kanan_14_">
		<path id="kaki-kanan_15_" class="st5" d="M278.1,43.3c0,0-4,9-4.6,11.1l-4,24.2c0,0-1.4,2.4,2.9,1.2c0,0,3.3-18.5,5.8-23.3
			c2.3-4.5,4.2-5,6-10.7C284.1,45.8,283.5,39.1,278.1,43.3z"/>
		<g id="sepatu-1_7_">
			<path id="XMLID_91_" class="st6" d="M268.8,79.5c0,0-5.2,1.1-6.2,0.7c0,0-2.6,0.3-0.8,1.3c0,0,3.9,2.3,9.6,1.2c0,0,1-1.4,1-2.7
				C272.4,80,271,80.4,268.8,79.5z"/>
			<path id="XMLID_90_" class="st7" d="M271,82.8c-5.2,0.5-8.4-1-9.8-1.9c0,0.2,0.2,0.4,0.6,0.6C261.8,81.5,265.5,83.7,271,82.8z"/>
		</g>
	</g>
	<g id="tangan-2_15_">
		<path id="XMLID_86_" class="st9" d="M276.6,27c0,0-1.1,6.7-2,9c-0.9,2.3-3,8-3.6,8.5c-0.7,0.5-1.6-0.2-1.8,1
			c-0.2,1.2,0.9,5.3,2.8,3.4c0,0,0.1-1.1,0.5-1.6c0.5-0.5,0.4-1.9,0.4-1.9s6.2-10.1,6.7-12.7c0.5-2.7,0.6-5.6,0.6-5.6
			S279.2,27.9,276.6,27z"/>
		<path id="XMLID_85_" class="st8" d="M277.4,20c0,0-1.9,0.8-1.6,2.1c0.3,1.3,0.2,4.7-0.1,6.2c-0.1,0.5,0.3,1,0.9,1.5
			c1.3,1,3.6,1.6,4.3,0c1-2.3-0.7-9.5-0.6-8.4C280.4,22,280.5,19.5,277.4,20z"/>
	</g>
	<path id="XMLID_87_" class="st8" d="M277.1,18.1c0,0-2.2,3.6-2.1,6.5c0,0,0.5,7.1,0.5,9.2s-0.5,13-0.5,13s5.3,2.8,9.7-0.2
		c0,0-0.9-15-0.2-17.9c0.7-2.9-0.6-9.2-2-10.9C281,17.1,279,16.8,277.1,18.1z"/>
	<g id="tangan-2_16_">
		<path id="XMLID_93_" class="st9" d="M279.6,26.9c0,0,2.1,6.5,2.3,9c0.2,2.5,1,8.5,0.6,9.2c-0.4,0.7-1.5,0.6-1.1,1.7
			c0.4,1.2,3.2,4.4,4.1,1.8c0,0-0.4-1-0.2-1.7c0.2-0.7-0.5-1.9-0.5-1.9s1.1-11.8,0.3-14.4c-0.8-2.6-2-5.3-2-5.3
			S282.4,26.5,279.6,26.9z"/>
		<path id="XMLID_92_" class="st8" d="M277.2,20.3c0,0-1.3,1.6-0.5,2.6c0.9,1,2.3,4.2,2.7,5.6c0.1,0.4,0.7,0.8,1.4,0.9
			c1.6,0.3,3.9-0.2,3.8-1.9c-0.1-2.6-4.9-8.2-4.3-7.3C280.7,20.7,279.8,18.4,277.2,20.3z"/>
	</g>
</g>
<g id="frame-7">
	<path id="kepala_8_" class="st0" d="M324.9,6.6c0,0-0.7,4.4-1.3,5.1c-0.7,0.6,0.6,0.3,0.7,0.6c0.1,0.3,0,4.2,0.6,4.3
		c0.6,0.1,1.7,0.3,2.7-0.6l-0.4,1.6c0,0,1.9,1.8,4.1-0.2c0,0-0.5-1.8-0.5-3s1.6-1.7,1.6-4.9S330.3,5,328.3,5S324.9,6.6,324.9,6.6z"
		/>
	<path id="XMLID_104_" class="st1" d="M328.3,5c-2.1,0-3.4,1.6-3.4,1.6s0,0.1,0,0.3c0.1,0,0.1,0,0.2,0c1.3,0,2.6,0.9,2.6,0.9
		s0.9,1,0.7,2.2c-0.2,1,2,3,2.7,3.6c0.4-0.9,1.5-1.6,1.5-4.2C332.4,6.2,330.3,5,328.3,5z"/>
	<g id="kaki-kiri_16_">
		<path id="kaki-kiri_17_" class="st5" d="M325.3,46c0,0,2.4,9.5,3.3,11.6l11.9,21.5c0,0,0.4,2.8,3.1-0.9c0,0-8.9-16.6-9.9-21.8
			c-1-5,0.2-6.5-1.9-12.1C331.6,44.3,326.9,39.4,325.3,46z"/>
		<g id="sepatu-2_8_">
			<path id="XMLID_99_" class="st6" d="M339.5,78c0,0-3.2,4.3-4.2,4.6c0,0-1.8,1.9,0.2,1.5c0,0,4.4-0.8,8-5.4c0,0-0.2-1.7-1-2.6
				C342.5,76,341.6,77.3,339.5,78z"/>
			<path id="XMLID_98_" class="st7" d="M343.2,79.1c-3.6,3.8-7,4.7-8.6,5c0.1,0.1,0.4,0.2,0.9,0.1C335.5,84.1,339.6,83.3,343.2,79.1
				z"/>
		</g>
	</g>
	<g id="kaki-kanan_16_">
		<path id="kaki-kanan_17_" class="st5" d="M327.1,44.1c0,0-5,8.5-5.9,10.5l-6.8,23.6c0,0-1.7,2.2,2.8,1.5c0,0,5.4-18,8.4-22.5
			c2.8-4.2,4.7-4.5,7.2-10C332.8,47.3,332.9,40.5,327.1,44.1z"/>
		<g id="sepatu-1_8_">
			<path id="XMLID_101_" class="st6" d="M313.8,79c0,0-5.3,0.5-6.2,0c0,0-2.6,0-1,1.2c0,0,3.6,2.7,9.4,2.3c0,0,1.1-1.3,1.3-2.5
				C317.3,79.9,315.8,80.2,313.8,79z"/>
			<path id="XMLID_100_" class="st7" d="M315.5,82.5c-5.2-0.1-8.2-2-9.5-3c0,0.2,0.1,0.4,0.5,0.7C306.6,80.2,310,82.7,315.5,82.5z"
				/>
		</g>
	</g>
	<g id="tangan-2_17_">
		<path id="XMLID_96_" class="st9" d="M327.2,27.2c0,0-1.9,6.5-3.1,8.7c-1.2,2.2-3.9,7.6-4.7,8c-0.7,0.4-1.6-0.4-1.9,0.8
			c-0.3,1.2,0.2,5.4,2.4,3.8c0,0,0.2-1.1,0.7-1.5c0.5-0.5,0.7-1.8,0.7-1.8s7.5-9.2,8.3-11.8c0.8-2.6,1.3-5.5,1.3-5.5
			S329.7,28.5,327.2,27.2z"/>
		<path id="XMLID_95_" class="st8" d="M328.9,20.4c0,0-2,0.6-1.8,1.9c0.2,1.3-0.4,4.7-0.9,6.1c-0.1,0.4,0.2,1,0.7,1.6
			c1.1,1.1,3.3,2,4.2,0.5c1.3-2.2,0.5-9.6,0.5-8.4C331.5,22.8,332,20.3,328.9,20.4z"/>
	</g>
	<path id="XMLID_97_" class="st8" d="M326.8,18.1c0,0-2.2,3.6-2.1,6.5c0,0,0.5,7.1,0.5,9.2s-0.5,13-0.5,13s5.3,2.8,9.7-0.2
		c0,0-0.9-15-0.2-17.9c0.7-2.9-0.6-9.2-2-10.9C330.7,17.1,328.6,16.8,326.8,18.1z"/>
	<g id="tangan-2_18_">
		<path id="XMLID_103_" class="st9" d="M329.6,27c0,0,2.5,6.4,2.9,8.8c0.4,2.4,1.5,8.4,1.2,9.2c-0.3,0.8-1.5,0.7-1,1.8
			c0.4,1.1,3.5,4.1,4.2,1.5c0,0-0.5-1-0.3-1.7s-0.6-1.9-0.6-1.9s0.3-11.9-0.6-14.4c-0.9-2.5-2.3-5.1-2.3-5.1S332.3,26.5,329.6,27z"
			/>
		<path id="XMLID_102_" class="st8" d="M326.7,20.5c0,0-1.2,1.7-0.3,2.6s2.5,4,3.1,5.4c0.2,0.4,0.8,0.7,1.5,0.8
			c1.6,0.2,3.9-0.4,3.7-2.2c-0.3-2.6-5.4-7.9-4.8-7C330.3,20.8,329.2,18.5,326.7,20.5z"/>
	</g>
</g>
<g id="frame-8">
	<path id="kepala_6_" class="st0" d="M374.9,6.6c0,0-0.7,4.4-1.3,5.1c-0.7,0.6,0.6,0.3,0.7,0.6c0.1,0.3,0,4.2,0.6,4.3
		c0.6,0.1,1.7,0.3,2.7-0.6l-0.4,1.6c0,0,1.9,1.8,4.1-0.2c0,0-0.5-1.8-0.5-3s1.6-1.7,1.6-4.9S380.3,5,378.3,5S374.9,6.6,374.9,6.6z"
		/>
	<path id="XMLID_84_" class="st1" d="M378.3,5c-2.1,0-3.4,1.6-3.4,1.6s0,0.1,0,0.3c0.1,0,0.1,0,0.2,0c1.3,0,2.6,0.9,2.6,0.9
		s0.9,1,0.7,2.2c-0.2,1,2,3,2.7,3.6c0.4-0.9,1.5-1.6,1.5-4.2C382.5,6.2,380.3,5,378.3,5z"/>
	<g id="kaki-kiri_12_">
		<path id="kaki-kiri_13_" class="st5" d="M375.4,45.3c0,0,1.1,9.8,1.6,11.9l8.7,23c0,0,0,2.8,3.1-0.5c0,0-6.5-17.7-6.8-23
			c-0.3-5.1,1.1-6.4-0.2-12.3C381.9,44.5,377.9,39,375.4,45.3z"/>
		<g id="sepatu-2_6_">
			<path id="XMLID_79_" class="st6" d="M384.9,79c0,0-3.8,3.8-4.8,3.9c0,0-2.1,1.7,0,1.5c0,0,4.5-0.2,8.7-4.3c0,0,0.1-1.7-0.6-2.8
				C388.2,77.5,387.2,78.6,384.9,79z"/>
			<path id="XMLID_78_" class="st7" d="M388.5,80.5c-4.1,3.2-7.6,3.7-9.2,3.7c0.1,0.1,0.4,0.2,0.9,0.2
				C380.1,84.5,384.4,84.3,388.5,80.5z"/>
		</g>
	</g>
	<g id="kaki-kanan_12_">
		<path id="kaki-kanan_13_" class="st5" d="M377.7,43.3c0,0-4,9-4.6,11.1l-4,24.2c0,0-1.4,2.4,2.9,1.2c0,0,3.3-18.5,5.8-23.3
			c2.3-4.5,4.2-5,6-10.7C383.8,45.8,383.1,39.1,377.7,43.3z"/>
		<g id="sepatu-1_6_">
			<path id="XMLID_81_" class="st6" d="M368.5,79.5c0,0-5.2,1.1-6.2,0.7c0,0-2.6,0.3-0.8,1.3c0,0,3.9,2.3,9.6,1.2c0,0,1-1.4,1-2.7
				C372.1,80,370.6,80.4,368.5,79.5z"/>
			<path id="XMLID_80_" class="st7" d="M370.7,82.8c-5.2,0.5-8.4-1-9.8-1.9c0,0.2,0.2,0.4,0.6,0.6C361.5,81.5,365.2,83.7,370.7,82.8
				z"/>
		</g>
	</g>
	<g id="tangan-2_13_">
		<path id="XMLID_76_" class="st9" d="M376.2,27c0,0-1.1,6.7-2,9c-0.9,2.3-3,8-3.6,8.5s-1.6-0.2-1.8,1c-0.2,1.2,0.9,5.3,2.8,3.4
			c0,0,0.1-1.1,0.5-1.6c0.5-0.5,0.4-1.9,0.4-1.9s6.2-10.1,6.7-12.7c0.5-2.7,0.6-5.6,0.6-5.6S378.9,27.9,376.2,27z"/>
		<path id="XMLID_75_" class="st8" d="M377.1,20c0,0-1.9,0.8-1.6,2.1c0.3,1.3,0.2,4.7-0.1,6.2c-0.1,0.5,0.3,1,0.9,1.5
			c1.3,1,3.6,1.6,4.3,0c1-2.3-0.7-9.5-0.6-8.4C380,22,380.2,19.5,377.1,20z"/>
	</g>
	<path id="XMLID_77_" class="st8" d="M376.8,18.1c0,0-2.2,3.6-2.1,6.5c0,0,0.5,7.1,0.5,9.2s-0.5,13-0.5,13s5.3,2.8,9.7-0.2
		c0,0-0.9-15-0.2-17.9c0.7-2.9-0.6-9.2-2-10.9C380.7,17.1,378.6,16.8,376.8,18.1z"/>
	<g id="tangan-2_14_">
		<path id="XMLID_83_" class="st9" d="M379.2,26.9c0,0,2.1,6.5,2.3,9c0.2,2.5,1,8.5,0.6,9.2c-0.4,0.7-1.5,0.6-1.1,1.7
			s3.2,4.4,4.1,1.8c0,0-0.4-1-0.2-1.7c0.2-0.7-0.5-1.9-0.5-1.9s1.1-11.8,0.3-14.4s-2-5.3-2-5.3S382,26.5,379.2,26.9z"/>
		<path id="XMLID_82_" class="st8" d="M376.8,20.3c0,0-1.3,1.6-0.5,2.6c0.9,1,2.3,4.2,2.7,5.6c0.1,0.4,0.7,0.8,1.4,0.9
			c1.6,0.3,3.9-0.2,3.8-1.9c-0.1-2.6-4.9-8.2-4.3-7.3C380.4,20.7,379.4,18.4,376.8,20.3z"/>
	</g>
</g>
</svg>
