<?xml version="1.0" encoding="utf-8"?>
<!-- Generator: Adobe Illustrator 19.0.0, SVG Export Plug-In . SVG Version: 6.00 Build 0)  -->
<svg version="1.1" id="Layer_1" xmlns="http://www.w3.org/2000/svg" xmlns:xlink="http://www.w3.org/1999/xlink" x="0px" y="0px"
	 viewBox="0 0 400 90" style="enable-background:new 0 0 400 90;" xml:space="preserve">
<style type="text/css">
	.st0{display:none;}
	.st1{display:inline;}
	.st2{fill:#F6E0CD;}
	.st3{fill:#8E4610;}
	.st4{display:inline;fill:#F6E0CD;stroke:#F6E0CD;stroke-miterlimit:10;}
	.st5{display:inline;fill:#00897B;stroke:#00796B;stroke-miterlimit:10;}
	.st6{fill:#263238;stroke:#37474F;stroke-miterlimit:10;}
	.st7{fill:#424242;stroke:#424242;stroke-miterlimit:10;}
	.st8{fill:#FAFAFA;}
	.st9{fill:#00897B;stroke:#00796B;stroke-miterlimit:10;}
	.st10{fill:#F6E0CD;stroke:#F6E0CD;stroke-miterlimit:10;}
	.st11{display:inline;fill:#D32F2F;stroke:#D32F2F;stroke-miterlimit:10;}
	.st12{fill:#D32F2F;stroke:#D32F2F;stroke-miterlimit:10;}
	.st13{display:inline;fill:#C62828;stroke:#D32F2F;stroke-miterlimit:10;}
	.st14{fill:#C62828;stroke:#D32F2F;stroke-miterlimit:10;}
</style>
<g id="XMLID_1_" class="st0">
	<g id="frame-1" class="st1">
		<path id="kepala_1_" class="st2" d="M23.9,6.6c0,0-0.7,4.4-1.3,5.1c-0.7,0.6,0.6,0.3,0.7,0.6c0.1,0.3,0,4.2,0.6,4.3
			s1.7,0.3,2.7-0.6l-0.4,1.6c0,0,1.9,1.8,4.1-0.2c0,0-0.5-1.8-0.5-3s1.6-1.7,1.6-4.9c0-3.2-2.1-4.4-4.1-4.4S23.9,6.6,23.9,6.6z"/>
		<path id="XMLID_21_" class="st3" d="M27.3,5c-2.1,0-3.4,1.6-3.4,1.6s0,0.1,0,0.3c0.1,0,0.1,0,0.2,0c1.3,0,2.6,0.9,2.6,0.9
			s0.9,1,0.7,2.2c-0.2,1,2,3,2.7,3.6c0.4-0.9,1.5-1.6,1.5-4.2C31.5,6.2,29.3,5,27.3,5z"/>
		<g id="tangan-2_4_" class="st0">
			<path id="XMLID_20_" class="st4" d="M29.1,26.9c0,0,2.1,6.5,2.3,9c0.2,2.5,1,8.5,0.6,9.2c-0.4,0.7-1.5,0.6-1.1,1.7
				c0.4,1.2,3.2,4.4,4.1,1.8c0,0-0.4-1-0.2-1.7c0.2-0.7-0.5-1.9-0.5-1.9s1.1-11.8,0.3-14.4s-2-5.3-2-5.3S31.9,26.5,29.1,26.9z"/>
			<path id="XMLID_19_" class="st5" d="M26.7,20.3c0,0-1.3,1.6-0.5,2.6c0.9,1,2.3,4.2,2.7,5.6c0.1,0.4,0.7,0.8,1.4,0.9
				c1.6,0.3,3.9-0.2,3.8-1.9c-0.1-2.6-4.9-8.2-4.3-7.3C30.2,20.7,29.3,18.4,26.7,20.3z"/>
		</g>
		<g id="kaki-kanan_2_">
			<path id="kaki-kanan_3_" class="st6" d="M25.8,42.7c0,0-2.6,9.5-2.9,11.7L22.6,79c0,0-1.1,2.6,3.1,0.7c0,0,0.4-18.8,2.1-23.9
				c1.6-4.8,3.3-5.6,4.3-11.5C32.1,44.3,30.5,37.7,25.8,42.7z"/>
			<g id="sepatu-1_1_">
				<path id="XMLID_18_" class="st7" d="M22.2,79.9c0,0-5,1.9-6,1.6c0,0-2.5,0.7-0.6,1.4c0,0,4.2,1.7,9.7-0.3c0,0,0.8-1.5,0.5-2.8
					C25.9,79.9,24.4,80.5,22.2,79.9z"/>
				<path id="XMLID_17_" class="st8" d="M24.8,82.8c-5,1.3-8.5,0.3-9.9-0.3c0,0.2,0.2,0.3,0.7,0.5C15.6,83,19.6,84.5,24.8,82.8z"/>
			</g>
		</g>
		<g id="kaki-kiri_2_">
			<path id="kaki-kiri_3_" class="st6" d="M24.9,44.2c0,0-0.3,9.8-0.1,12l5.3,24c0,0-0.4,2.8,3.2,0c0,0-3.9-18.4-3.4-23.7
				c0.5-5.1,2-6.2,1.5-12.2C31.4,44.2,28.3,38.2,24.9,44.2z"/>
			<g id="sepatu-2_1_">
				<path id="XMLID_16_" class="st7" d="M29.4,78.8c0,0-4.3,3.2-5.3,3.2c0,0-2.3,1.3-0.2,1.5c0,0,4.5,0.5,9.3-2.9
					c0,0,0.3-1.7-0.2-2.8C32.9,77.8,31.7,78.8,29.4,78.8z"/>
				<path id="XMLID_15_" class="st8" d="M32.7,80.9c-4.5,2.6-8.1,2.6-9.7,2.4c0.1,0.1,0.3,0.3,0.8,0.3C23.9,83.6,28.1,84,32.7,80.9z
					"/>
			</g>
		</g>
		<path id="XMLID_14_" class="st9" d="M25.8,18.1c0,0-2.2,3.6-2.1,6.5c0,0,0.5,7.1,0.5,9.2s-0.5,13-0.5,13s5.3,2.8,9.7-0.2
			c0,0-0.9-15-0.2-17.9c0.7-2.9-0.6-9.2-2-10.9C29.7,17.1,27.6,16.8,25.8,18.1z"/>
		<g id="tangan-2_3_">
			<path id="XMLID_13_" class="st10" d="M27.3,26.8c0,0,0.3,6.8-0.1,9.3c-0.4,2.4-1.2,8.5-1.8,9.1s-1.6,0.2-1.5,1.4
				c0.1,1.2,2,5,3.5,2.8c0,0-0.1-1.1,0.2-1.7c0.3-0.6,0-2,0-2s4-11.1,3.9-13.8c-0.1-2.7-0.6-5.6-0.6-5.6S30.1,27.2,27.3,26.8z"/>
			<path id="XMLID_22_" class="st9" d="M26.7,19.8c0,0-1.7,1.2-1.1,2.4c0.6,1.2,1.1,4.6,1.2,6.1c0,0.5,0.5,0.9,1.2,1.2
				c1.5,0.7,3.8,0.8,4.2-0.9c0.5-2.5-2.7-9.2-2.3-8.1C30,21.1,29.6,18.7,26.7,19.8z"/>
		</g>
	</g>
	<g id="frame-2_1_" class="st1">
		<path id="kepala_5_" class="st2" d="M74.8,6.6c0,0-0.7,4.4-1.3,5.1c-0.7,0.6,0.6,0.3,0.7,0.6c0.1,0.3,0,4.2,0.6,4.3
			c0.6,0.1,1.7,0.3,2.7-0.6l-0.4,1.6c0,0,1.9,1.8,4.1-0.2c0,0-0.5-1.8-0.5-3s1.6-1.7,1.6-4.9S80.2,5,78.2,5S74.8,6.6,74.8,6.6z"/>
		<path id="XMLID_74_" class="st3" d="M78.2,5c-2.1,0-3.4,1.6-3.4,1.6s0,0.1,0,0.3c0.1,0,0.1,0,0.2,0c1.3,0,2.6,0.9,2.6,0.9
			s0.9,1,0.7,2.2c-0.2,1,2,3,2.7,3.6c0.4-0.9,1.5-1.6,1.5-4.2C82.4,6.2,80.2,5,78.2,5z"/>
		<g id="tangan-2_12_">
			<path id="XMLID_73_" class="st10" d="M79.2,26.9c0,0,2.1,6.5,2.3,9c0.2,2.5,1,8.5,0.6,9.2c-0.4,0.7-1.5,0.6-1.1,1.7
				c0.4,1.2,3.2,4.4,4.1,1.8c0,0-0.4-1-0.2-1.7c0.2-0.7-0.5-1.9-0.5-1.9s1.1-11.8,0.3-14.4c-0.8-2.6-2-5.3-2-5.3S82,26.5,79.2,26.9z
				"/>
			<path id="XMLID_72_" class="st9" d="M76.8,20.3c0,0-1.3,1.6-0.5,2.6c0.9,1,2.3,4.2,2.7,5.6c0.1,0.4,0.7,0.8,1.4,0.9
				c1.6,0.3,3.9-0.2,3.8-1.9c-0.1-2.6-4.9-8.2-4.3-7.3C80.3,20.7,79.3,18.4,76.8,20.3z"/>
		</g>
		<g id="kaki-kanan_10_">
			<path id="kaki-kanan_11_" class="st6" d="M77.6,43.3c0,0-4,9-4.6,11.1l-4,24.2c0,0-1.4,2.4,2.9,1.2c0,0,3.3-18.5,5.8-23.3
				c2.3-4.5,4.2-5,6-10.7C83.7,45.8,83,39.1,77.6,43.3z"/>
			<g id="sepatu-1_5_">
				<path id="XMLID_71_" class="st7" d="M68.4,79.5c0,0-5.2,1.1-6.2,0.7c0,0-2.6,0.3-0.8,1.3c0,0,3.9,2.3,9.6,1.2c0,0,1-1.4,1-2.7
					C72,80,70.5,80.4,68.4,79.5z"/>
				<path id="XMLID_70_" class="st8" d="M70.6,82.8c-5.2,0.5-8.4-1-9.8-1.9c0,0.2,0.2,0.4,0.6,0.6C61.4,81.5,65.1,83.7,70.6,82.8z"
					/>
			</g>
		</g>
		<g id="kaki-kiri_10_">
			<path id="kaki-kiri_11_" class="st6" d="M75.3,45.3c0,0,1.1,9.8,1.6,11.9l8.7,23c0,0,0,2.8,3.1-0.5c0,0-6.5-17.7-6.8-23
				c-0.3-5.1,1.1-6.4-0.2-12.3C81.8,44.5,77.8,39,75.3,45.3z"/>
			<g id="sepatu-2_5_">
				<path id="XMLID_69_" class="st7" d="M84.8,79c0,0-3.8,3.8-4.8,3.9c0,0-2.1,1.7,0,1.5c0,0,4.5-0.2,8.7-4.3c0,0,0.1-1.7-0.6-2.8
					C88.1,77.5,87.1,78.6,84.8,79z"/>
				<path id="XMLID_68_" class="st8" d="M88.4,80.5c-4.1,3.2-7.6,3.7-9.2,3.7c0.1,0.1,0.4,0.2,0.9,0.2C80,84.5,84.3,84.3,88.4,80.5z
					"/>
			</g>
		</g>
		<path id="XMLID_67_" class="st9" d="M76.7,18.1c0,0-2.2,3.6-2.1,6.5c0,0,0.5,7.1,0.5,9.2s-0.5,13-0.5,13s5.3,2.8,9.7-0.2
			c0,0-0.9-15-0.2-17.9s-0.6-9.2-2-10.9C80.6,17.1,78.6,16.8,76.7,18.1z"/>
		<g id="tangan-2_11_">
			<path id="XMLID_66_" class="st10" d="M76.2,27c0,0-1.1,6.7-2,9s-3,8-3.6,8.5c-0.7,0.5-1.6-0.2-1.8,1s0.9,5.3,2.8,3.4
				c0,0,0.1-1.1,0.5-1.6c0.5-0.5,0.4-1.9,0.4-1.9s6.2-10.1,6.7-12.7s0.6-5.6,0.6-5.6S78.8,27.9,76.2,27z"/>
			<path id="XMLID_65_" class="st9" d="M77,20c0,0-1.9,0.8-1.6,2.1s0.2,4.7-0.1,6.2c-0.1,0.5,0.3,1,0.9,1.5c1.3,1,3.6,1.6,4.3,0
				c1-2.3-0.7-9.5-0.6-8.4C79.9,22,80.1,19.5,77,20z"/>
		</g>
	</g>
	<g id="frame-3_1_" class="st1">
		<path id="kepala" class="st2" d="M125,6.6c0,0-0.7,4.4-1.3,5.1c-0.7,0.6,0.6,0.3,0.7,0.6c0.1,0.3,0,4.2,0.6,4.3
			c0.6,0.1,1.7,0.3,2.7-0.6l-0.4,1.6c0,0,1.9,1.8,4.1-0.2c0,0-0.5-1.8-0.5-3s1.6-1.7,1.6-4.9S130.4,5,128.4,5S125,6.6,125,6.6z"/>
		<path id="XMLID_12_" class="st3" d="M128.4,5c-2.1,0-3.4,1.6-3.4,1.6s0,0.1,0,0.3c0.1,0,0.1,0,0.2,0c1.3,0,2.6,0.9,2.6,0.9
			s0.9,1,0.7,2.2c-0.2,1,2,3,2.7,3.6c0.4-0.9,1.5-1.6,1.5-4.2C132.6,6.2,130.4,5,128.4,5z"/>
		<g id="tangan-2_2_">
			<path id="XMLID_7_" class="st10" d="M129.7,27c0,0,2.5,6.4,2.9,8.8c0.4,2.4,1.5,8.4,1.2,9.2s-1.5,0.7-1,1.8
				c0.4,1.1,3.5,4.1,4.2,1.5c0,0-0.5-1-0.3-1.7s-0.6-1.9-0.6-1.9s0.3-11.9-0.6-14.4c-0.9-2.5-2.3-5.1-2.3-5.1S132.4,26.5,129.7,27z"
				/>
			<path id="XMLID_4_" class="st9" d="M126.9,20.5c0,0-1.2,1.7-0.3,2.6c0.9,0.9,2.5,4,3.1,5.4c0.2,0.4,0.8,0.7,1.5,0.8
				c1.6,0.2,3.9-0.4,3.7-2.2c-0.3-2.6-5.4-7.9-4.8-7C130.4,20.8,129.3,18.5,126.9,20.5z"/>
		</g>
		<g id="kaki-kanan">
			<path id="kaki-kanan_1_" class="st6" d="M127.2,44.1c0,0-5,8.5-5.9,10.5l-6.8,23.6c0,0-1.7,2.2,2.8,1.5c0,0,5.4-18,8.4-22.5
				c2.8-4.2,4.7-4.5,7.2-10C132.9,47.3,133,40.5,127.2,44.1z"/>
			<g id="sepatu-1">
				<path id="XMLID_6_" class="st7" d="M113.9,79c0,0-5.3,0.5-6.2,0c0,0-2.6,0-1,1.2c0,0,3.6,2.7,9.4,2.3c0,0,1.1-1.3,1.3-2.5
					C117.4,79.9,115.9,80.2,113.9,79z"/>
				<path id="XMLID_10_" class="st8" d="M115.7,82.5c-5.2-0.1-8.2-2-9.5-3c0,0.2,0.1,0.4,0.5,0.7C106.7,80.2,110.1,82.7,115.7,82.5z
					"/>
			</g>
		</g>
		<g id="kaki-kiri_1_">
			<path id="kaki-kiri" class="st6" d="M125.4,46c0,0,2.4,9.5,3.3,11.6l11.9,21.5c0,0,0.4,2.8,3.1-0.9c0,0-8.9-16.6-9.9-21.8
				c-1-5,0.2-6.5-1.9-12.1C131.7,44.3,127.1,39.4,125.4,46z"/>
			<g id="sepatu-2">
				<path id="XMLID_8_" class="st7" d="M139.6,78c0,0-3.2,4.3-4.2,4.6c0,0-1.8,1.9,0.2,1.5c0,0,4.4-0.8,8-5.4c0,0-0.2-1.7-1-2.6
					C142.6,76,141.8,77.3,139.6,78z"/>
				<path id="XMLID_9_" class="st8" d="M143.3,79.1c-3.6,3.8-7,4.7-8.6,5c0.1,0.1,0.4,0.2,0.9,0.1C135.6,84.1,139.8,83.3,143.3,79.1
					z"/>
			</g>
		</g>
		<path id="XMLID_3_" class="st9" d="M126.9,18.1c0,0-2.2,3.6-2.1,6.5c0,0,0.5,7.1,0.5,9.2s-0.5,13-0.5,13s5.3,2.8,9.7-0.2
			c0,0-0.9-15-0.2-17.9s-0.6-9.2-2-10.9C130.8,17.1,128.7,16.8,126.9,18.1z"/>
		<g id="tangan-2_1_">
			<path id="XMLID_11_" class="st10" d="M127.3,27.2c0,0-1.9,6.5-3.1,8.7c-1.2,2.2-3.9,7.6-4.7,8c-0.7,0.4-1.6-0.4-1.9,0.8
				c-0.3,1.2,0.2,5.4,2.4,3.8c0,0,0.2-1.1,0.7-1.5c0.5-0.5,0.7-1.8,0.7-1.8s7.5-9.2,8.3-11.8s1.3-5.5,1.3-5.5S129.8,28.5,127.3,27.2
				z"/>
			<path id="XMLID_23_" class="st9" d="M129,20.4c0,0-2,0.6-1.8,1.9c0.2,1.3-0.4,4.7-0.9,6.1c-0.1,0.4,0.2,1,0.7,1.6
				c1.1,1.1,3.3,2,4.2,0.5c1.3-2.2,0.5-9.6,0.5-8.4C131.7,22.8,132.1,20.3,129,20.4z"/>
		</g>
	</g>
	<g id="frame-4" class="st1">
		<path id="kepala_2_" class="st2" d="M175,6.6c0,0-0.7,4.4-1.3,5.1c-0.7,0.6,0.6,0.3,0.7,0.6c0.1,0.3,0,4.2,0.6,4.3
			s1.7,0.3,2.7-0.6l-0.4,1.6c0,0,1.9,1.8,4.1-0.2c0,0-0.5-1.8-0.5-3s1.6-1.7,1.6-4.9S180.4,5,178.4,5S175,6.6,175,6.6z"/>
		<path id="XMLID_33_" class="st3" d="M178.4,5c-2.1,0-3.4,1.6-3.4,1.6s0,0.1,0,0.3c0.1,0,0.1,0,0.2,0c1.3,0,2.6,0.9,2.6,0.9
			s0.9,1,0.7,2.2c-0.2,1,2,3,2.7,3.6c0.4-0.9,1.5-1.6,1.5-4.2C182.6,6.2,180.4,5,178.4,5z"/>
		<g id="tangan-2_6_">
			<path id="XMLID_32_" class="st10" d="M179.4,26.9c0,0,2.1,6.5,2.3,9c0.2,2.5,1,8.5,0.6,9.2c-0.4,0.7-1.5,0.6-1.1,1.7
				c0.4,1.2,3.2,4.4,4.1,1.8c0,0-0.4-1-0.2-1.7c0.2-0.7-0.5-1.9-0.5-1.9s1.1-11.8,0.3-14.4c-0.8-2.6-2-5.3-2-5.3
				S182.2,26.5,179.4,26.9z"/>
			<path id="XMLID_31_" class="st9" d="M177,20.3c0,0-1.3,1.6-0.5,2.6c0.9,1,2.3,4.2,2.7,5.6c0.1,0.4,0.7,0.8,1.4,0.9
				c1.6,0.3,3.9-0.2,3.8-1.9c-0.1-2.6-4.9-8.2-4.3-7.3C180.5,20.7,179.5,18.4,177,20.3z"/>
		</g>
		<g id="kaki-kanan_4_">
			<path id="kaki-kanan_5_" class="st6" d="M177.9,43.3c0,0-4,9-4.6,11.1l-4,24.2c0,0-1.4,2.4,2.9,1.2c0,0,3.3-18.5,5.8-23.3
				c2.3-4.5,4.2-5,6-10.7C183.9,45.8,183.3,39.1,177.9,43.3z"/>
			<g id="sepatu-1_2_">
				<path id="XMLID_30_" class="st7" d="M168.6,79.5c0,0-5.2,1.1-6.2,0.7c0,0-2.6,0.3-0.8,1.3c0,0,3.9,2.3,9.6,1.2c0,0,1-1.4,1-2.7
					C172.2,80,170.7,80.4,168.6,79.5z"/>
				<path id="XMLID_29_" class="st8" d="M170.8,82.8c-5.2,0.5-8.4-1-9.8-1.9c0,0.2,0.2,0.4,0.6,0.6
					C161.6,81.5,165.3,83.7,170.8,82.8z"/>
			</g>
		</g>
		<g id="kaki-kiri_4_">
			<path id="kaki-kiri_5_" class="st6" d="M175.5,45.3c0,0,1.1,9.8,1.6,11.9l8.7,23c0,0,0,2.8,3.1-0.5c0,0-6.5-17.7-6.8-23
				c-0.3-5.1,1.1-6.4-0.2-12.3C182,44.5,178,39,175.5,45.3z"/>
			<g id="sepatu-2_2_">
				<path id="XMLID_28_" class="st7" d="M185,79c0,0-3.8,3.8-4.8,3.9c0,0-2.1,1.7,0,1.5c0,0,4.5-0.2,8.7-4.3c0,0,0.1-1.7-0.6-2.8
					C188.3,77.5,187.3,78.6,185,79z"/>
				<path id="XMLID_27_" class="st8" d="M188.6,80.5c-4.1,3.2-7.6,3.7-9.2,3.7c0.1,0.1,0.4,0.2,0.9,0.2
					C180.2,84.5,184.5,84.3,188.6,80.5z"/>
			</g>
		</g>
		<path id="XMLID_26_" class="st9" d="M176.9,18.1c0,0-2.2,3.6-2.1,6.5c0,0,0.5,7.1,0.5,9.2s-0.5,13-0.5,13s5.3,2.8,9.7-0.2
			c0,0-0.9-15-0.2-17.9s-0.6-9.2-2-10.9C180.8,17.1,178.8,16.8,176.9,18.1z"/>
		<g id="tangan-2_5_">
			<path id="XMLID_24_" class="st10" d="M176.4,27c0,0-1.1,6.7-2,9s-3,8-3.6,8.5c-0.7,0.5-1.6-0.2-1.8,1c-0.2,1.2,0.9,5.3,2.8,3.4
				c0,0,0.1-1.1,0.5-1.6c0.5-0.5,0.4-1.9,0.4-1.9s6.2-10.1,6.7-12.7s0.6-5.6,0.6-5.6S179,27.9,176.4,27z"/>
			<path id="XMLID_25_" class="st9" d="M177.2,20c0,0-1.9,0.8-1.6,2.1s0.2,4.7-0.1,6.2c-0.1,0.5,0.3,1,0.9,1.5c1.3,1,3.6,1.6,4.3,0
				c1-2.3-0.7-9.5-0.6-8.4C180.1,22,180.3,19.5,177.2,20z"/>
		</g>
	</g>
	<g id="frame-5" class="st1">
		<path id="kepala_3_" class="st2" d="M223.9,6.6c0,0-0.7,4.4-1.3,5.1c-0.7,0.6,0.6,0.3,0.7,0.6c0.1,0.3,0,4.2,0.6,4.3
			c0.6,0.1,1.7,0.3,2.7-0.6l-0.4,1.6c0,0,1.9,1.8,4.1-0.2c0,0-0.5-1.8-0.5-3s1.6-1.7,1.6-4.9S229.3,5,227.3,5
			C225.2,5,223.9,6.6,223.9,6.6z"/>
		<path id="XMLID_54_" class="st3" d="M227.3,5c-2.1,0-3.4,1.6-3.4,1.6s0,0.1,0,0.3c0.1,0,0.1,0,0.2,0c1.3,0,2.6,0.9,2.6,0.9
			s0.9,1,0.7,2.2c-0.2,1,2,3,2.7,3.6c0.4-0.9,1.5-1.6,1.5-4.2C231.5,6.2,229.3,5,227.3,5z"/>
		<g id="tangan-2_8_" class="st0">
			<path id="XMLID_42_" class="st4" d="M229.1,26.9c0,0,2.1,6.5,2.3,9c0.2,2.5,1,8.5,0.6,9.2c-0.4,0.7-1.5,0.6-1.1,1.7
				c0.4,1.2,3.2,4.4,4.1,1.8c0,0-0.4-1-0.2-1.7c0.2-0.7-0.5-1.9-0.5-1.9s1.1-11.8,0.3-14.4c-0.8-2.6-2-5.3-2-5.3
				S231.9,26.5,229.1,26.9z"/>
			<path id="XMLID_41_" class="st5" d="M226.7,20.3c0,0-1.3,1.6-0.5,2.6c0.9,1,2.3,4.2,2.7,5.6c0.1,0.4,0.7,0.8,1.4,0.9
				c1.6,0.3,3.9-0.2,3.8-1.9c-0.1-2.6-4.9-8.2-4.3-7.3C230.2,20.7,229.3,18.4,226.7,20.3z"/>
		</g>
		<g id="kaki-kanan_6_">
			<path id="kaki-kanan_7_" class="st6" d="M225.8,42.7c0,0-2.6,9.5-2.9,11.7L222.6,79c0,0-1.1,2.6,3.1,0.7c0,0,0.4-18.8,2.1-23.9
				c1.6-4.8,3.3-5.6,4.3-11.5C232.1,44.3,230.5,37.7,225.8,42.7z"/>
			<g id="sepatu-1_3_">
				<path id="XMLID_40_" class="st7" d="M222.2,79.9c0,0-5,1.9-6,1.6c0,0-2.5,0.7-0.6,1.4c0,0,4.2,1.7,9.7-0.3c0,0,0.8-1.5,0.5-2.8
					C225.9,79.9,224.4,80.5,222.2,79.9z"/>
				<path id="XMLID_39_" class="st8" d="M224.8,82.8c-5,1.3-8.5,0.3-9.9-0.3c0,0.2,0.2,0.3,0.7,0.5C215.6,83,219.6,84.5,224.8,82.8z
					"/>
			</g>
		</g>
		<g id="kaki-kiri_6_">
			<path id="kaki-kiri_7_" class="st6" d="M224.9,44.2c0,0-0.3,9.8-0.1,12l5.3,24c0,0-0.4,2.8,3.2,0c0,0-3.9-18.4-3.4-23.7
				c0.5-5.1,2-6.2,1.5-12.2C231.4,44.2,228.3,38.2,224.9,44.2z"/>
			<g id="sepatu-2_3_">
				<path id="XMLID_38_" class="st7" d="M229.4,78.8c0,0-4.3,3.2-5.3,3.2c0,0-2.3,1.3-0.2,1.5c0,0,4.5,0.5,9.3-2.9
					c0,0,0.3-1.7-0.2-2.8C232.9,77.8,231.7,78.8,229.4,78.8z"/>
				<path id="XMLID_37_" class="st8" d="M232.7,80.9c-4.5,2.6-8.1,2.6-9.7,2.4c0.1,0.1,0.3,0.3,0.8,0.3
					C223.9,83.6,228.1,84,232.7,80.9z"/>
			</g>
		</g>
		<path id="XMLID_36_" class="st9" d="M225.8,18.1c0,0-2.2,3.6-2.1,6.5c0,0,0.5,7.1,0.5,9.2s-0.5,13-0.5,13s5.3,2.8,9.7-0.2
			c0,0-0.9-15-0.2-17.9s-0.6-9.2-2-10.9C229.7,17.1,227.6,16.8,225.8,18.1z"/>
		<g id="tangan-2_7_">
			<path id="XMLID_35_" class="st10" d="M227.3,26.8c0,0,0.3,6.8-0.1,9.3c-0.4,2.4-1.2,8.5-1.8,9.1s-1.6,0.2-1.5,1.4
				c0.1,1.2,2,5,3.5,2.8c0,0-0.1-1.1,0.2-1.7c0.3-0.6,0-2,0-2s4-11.1,3.9-13.8c-0.1-2.7-0.6-5.6-0.6-5.6S230.1,27.2,227.3,26.8z"/>
			<path id="XMLID_34_" class="st9" d="M226.7,19.8c0,0-1.7,1.2-1.1,2.4c0.6,1.2,1.1,4.6,1.2,6.1c0,0.5,0.5,0.9,1.2,1.2
				c1.5,0.7,3.8,0.8,4.2-0.9c0.5-2.5-2.7-9.2-2.3-8.1C230,21.1,229.6,18.7,226.7,19.8z"/>
		</g>
	</g>
	<g id="frame-6_1_" class="st1">
		<path id="kepala_7_" class="st2" d="M275.2,6.6c0,0-0.7,4.4-1.3,5.1c-0.7,0.6,0.6,0.3,0.7,0.6c0.1,0.3,0,4.2,0.6,4.3
			c0.6,0.1,1.7,0.3,2.7-0.6l-0.4,1.6c0,0,1.9,1.8,4.1-0.2c0,0-0.5-1.8-0.5-3s1.6-1.7,1.6-4.9S280.7,5,278.6,5S275.2,6.6,275.2,6.6z"
			/>
		<path id="XMLID_94_" class="st3" d="M278.6,5c-2.1,0-3.4,1.6-3.4,1.6s0,0.1,0,0.3c0.1,0,0.1,0,0.2,0c1.3,0,2.6,0.9,2.6,0.9
			s0.9,1,0.7,2.2c-0.2,1,2,3,2.7,3.6c0.4-0.9,1.5-1.6,1.5-4.2C282.8,6.2,280.7,5,278.6,5z"/>
		<g id="kaki-kiri_14_">
			<path id="kaki-kiri_15_" class="st6" d="M275.7,45.3c0,0,1.1,9.8,1.6,11.9l8.7,23c0,0,0,2.8,3.1-0.5c0,0-6.5-17.7-6.8-23
				c-0.3-5.1,1.1-6.4-0.2-12.3C282.2,44.5,278.2,39,275.7,45.3z"/>
			<g id="sepatu-2_7_">
				<path id="XMLID_89_" class="st7" d="M285.2,79c0,0-3.8,3.8-4.8,3.9c0,0-2.1,1.7,0,1.5c0,0,4.5-0.2,8.7-4.3c0,0,0.1-1.7-0.6-2.8
					C288.5,77.5,287.5,78.6,285.2,79z"/>
				<path id="XMLID_88_" class="st8" d="M288.8,80.5c-4.1,3.2-7.6,3.7-9.2,3.7c0.1,0.1,0.4,0.2,0.9,0.2
					C280.4,84.5,284.7,84.3,288.8,80.5z"/>
			</g>
		</g>
		<g id="kaki-kanan_14_">
			<path id="kaki-kanan_15_" class="st6" d="M278.1,43.3c0,0-4,9-4.6,11.1l-4,24.2c0,0-1.4,2.4,2.9,1.2c0,0,3.3-18.5,5.8-23.3
				c2.3-4.5,4.2-5,6-10.7C284.1,45.8,283.5,39.1,278.1,43.3z"/>
			<g id="sepatu-1_7_">
				<path id="XMLID_91_" class="st7" d="M268.8,79.5c0,0-5.2,1.1-6.2,0.7c0,0-2.6,0.3-0.8,1.3c0,0,3.9,2.3,9.6,1.2c0,0,1-1.4,1-2.7
					C272.4,80,271,80.4,268.8,79.5z"/>
				<path id="XMLID_90_" class="st8" d="M271,82.8c-5.2,0.5-8.4-1-9.8-1.9c0,0.2,0.2,0.4,0.6,0.6C261.8,81.5,265.5,83.7,271,82.8z"
					/>
			</g>
		</g>
		<g id="tangan-2_15_">
			<path id="XMLID_86_" class="st10" d="M276.6,27c0,0-1.1,6.7-2,9c-0.9,2.3-3,8-3.6,8.5c-0.7,0.5-1.6-0.2-1.8,1
				c-0.2,1.2,0.9,5.3,2.8,3.4c0,0,0.1-1.1,0.5-1.6c0.5-0.5,0.4-1.9,0.4-1.9s6.2-10.1,6.7-12.7c0.5-2.7,0.6-5.6,0.6-5.6
				S279.2,27.9,276.6,27z"/>
			<path id="XMLID_85_" class="st9" d="M277.4,20c0,0-1.9,0.8-1.6,2.1c0.3,1.3,0.2,4.7-0.1,6.2c-0.1,0.5,0.3,1,0.9,1.5
				c1.3,1,3.6,1.6,4.3,0c1-2.3-0.7-9.5-0.6-8.4C280.4,22,280.5,19.5,277.4,20z"/>
		</g>
		<path id="XMLID_87_" class="st9" d="M277.1,18.1c0,0-2.2,3.6-2.1,6.5c0,0,0.5,7.1,0.5,9.2s-0.5,13-0.5,13s5.3,2.8,9.7-0.2
			c0,0-0.9-15-0.2-17.9c0.7-2.9-0.6-9.2-2-10.9C281,17.1,279,16.8,277.1,18.1z"/>
		<g id="tangan-2_16_">
			<path id="XMLID_93_" class="st10" d="M279.6,26.9c0,0,2.1,6.5,2.3,9c0.2,2.5,1,8.5,0.6,9.2c-0.4,0.7-1.5,0.6-1.1,1.7
				c0.4,1.2,3.2,4.4,4.1,1.8c0,0-0.4-1-0.2-1.7c0.2-0.7-0.5-1.9-0.5-1.9s1.1-11.8,0.3-14.4c-0.8-2.6-2-5.3-2-5.3
				S282.4,26.5,279.6,26.9z"/>
			<path id="XMLID_92_" class="st9" d="M277.2,20.3c0,0-1.3,1.6-0.5,2.6c0.9,1,2.3,4.2,2.7,5.6c0.1,0.4,0.7,0.8,1.4,0.9
				c1.6,0.3,3.9-0.2,3.8-1.9c-0.1-2.6-4.9-8.2-4.3-7.3C280.7,20.7,279.8,18.4,277.2,20.3z"/>
		</g>
	</g>
	<g id="frame-7" class="st1">
		<path id="kepala_8_" class="st2" d="M324.9,6.6c0,0-0.7,4.4-1.3,5.1c-0.7,0.6,0.6,0.3,0.7,0.6c0.1,0.3,0,4.2,0.6,4.3
			c0.6,0.1,1.7,0.3,2.7-0.6l-0.4,1.6c0,0,1.9,1.8,4.1-0.2c0,0-0.5-1.8-0.5-3s1.6-1.7,1.6-4.9S330.3,5,328.3,5S324.9,6.6,324.9,6.6z"
			/>
		<path id="XMLID_104_" class="st3" d="M328.3,5c-2.1,0-3.4,1.6-3.4,1.6s0,0.1,0,0.3c0.1,0,0.1,0,0.2,0c1.3,0,2.6,0.9,2.6,0.9
			s0.9,1,0.7,2.2c-0.2,1,2,3,2.7,3.6c0.4-0.9,1.5-1.6,1.5-4.2C332.4,6.2,330.3,5,328.3,5z"/>
		<g id="kaki-kiri_16_">
			<path id="kaki-kiri_17_" class="st6" d="M325.3,46c0,0,2.4,9.5,3.3,11.6l11.9,21.5c0,0,0.4,2.8,3.1-0.9c0,0-8.9-16.6-9.9-21.8
				c-1-5,0.2-6.5-1.9-12.1C331.6,44.3,326.9,39.4,325.3,46z"/>
			<g id="sepatu-2_8_">
				<path id="XMLID_99_" class="st7" d="M339.5,78c0,0-3.2,4.3-4.2,4.6c0,0-1.8,1.9,0.2,1.5c0,0,4.4-0.8,8-5.4c0,0-0.2-1.7-1-2.6
					C342.5,76,341.6,77.3,339.5,78z"/>
				<path id="XMLID_98_" class="st8" d="M343.2,79.1c-3.6,3.8-7,4.7-8.6,5c0.1,0.1,0.4,0.2,0.9,0.1
					C335.5,84.1,339.6,83.3,343.2,79.1z"/>
			</g>
		</g>
		<g id="kaki-kanan_16_">
			<path id="kaki-kanan_17_" class="st6" d="M327.1,44.1c0,0-5,8.5-5.9,10.5l-6.8,23.6c0,0-1.7,2.2,2.8,1.5c0,0,5.4-18,8.4-22.5
				c2.8-4.2,4.7-4.5,7.2-10C332.8,47.3,332.9,40.5,327.1,44.1z"/>
			<g id="sepatu-1_8_">
				<path id="XMLID_101_" class="st7" d="M313.8,79c0,0-5.3,0.5-6.2,0c0,0-2.6,0-1,1.2c0,0,3.6,2.7,9.4,2.3c0,0,1.1-1.3,1.3-2.5
					C317.3,79.9,315.8,80.2,313.8,79z"/>
				<path id="XMLID_100_" class="st8" d="M315.5,82.5c-5.2-0.1-8.2-2-9.5-3c0,0.2,0.1,0.4,0.5,0.7C306.6,80.2,310,82.7,315.5,82.5z"
					/>
			</g>
		</g>
		<g id="tangan-2_17_">
			<path id="XMLID_96_" class="st10" d="M327.2,27.2c0,0-1.9,6.5-3.1,8.7c-1.2,2.2-3.9,7.6-4.7,8c-0.7,0.4-1.6-0.4-1.9,0.8
				c-0.3,1.2,0.2,5.4,2.4,3.8c0,0,0.2-1.1,0.7-1.5c0.5-0.5,0.7-1.8,0.7-1.8s7.5-9.2,8.3-11.8c0.8-2.6,1.3-5.5,1.3-5.5
				S329.7,28.5,327.2,27.2z"/>
			<path id="XMLID_95_" class="st9" d="M328.9,20.4c0,0-2,0.6-1.8,1.9c0.2,1.3-0.4,4.7-0.9,6.1c-0.1,0.4,0.2,1,0.7,1.6
				c1.1,1.1,3.3,2,4.2,0.5c1.3-2.2,0.5-9.6,0.5-8.4C331.5,22.8,332,20.3,328.9,20.4z"/>
		</g>
		<path id="XMLID_97_" class="st9" d="M326.8,18.1c0,0-2.2,3.6-2.1,6.5c0,0,0.5,7.1,0.5,9.2s-0.5,13-0.5,13s5.3,2.8,9.7-0.2
			c0,0-0.9-15-0.2-17.9c0.7-2.9-0.6-9.2-2-10.9C330.7,17.1,328.6,16.8,326.8,18.1z"/>
		<g id="tangan-2_18_">
			<path id="XMLID_103_" class="st10" d="M329.6,27c0,0,2.5,6.4,2.9,8.8c0.4,2.4,1.5,8.4,1.2,9.2c-0.3,0.8-1.5,0.7-1,1.8
				c0.4,1.1,3.5,4.1,4.2,1.5c0,0-0.5-1-0.3-1.7s-0.6-1.9-0.6-1.9s0.3-11.9-0.6-14.4c-0.9-2.5-2.3-5.1-2.3-5.1S332.3,26.5,329.6,27z"
				/>
			<path id="XMLID_102_" class="st9" d="M326.7,20.5c0,0-1.2,1.7-0.3,2.6s2.5,4,3.1,5.4c0.2,0.4,0.8,0.7,1.5,0.8
				c1.6,0.2,3.9-0.4,3.7-2.2c-0.3-2.6-5.4-7.9-4.8-7C330.3,20.8,329.2,18.5,326.7,20.5z"/>
		</g>
	</g>
	<g id="frame-8" class="st1">
		<path id="kepala_6_" class="st2" d="M374.9,6.6c0,0-0.7,4.4-1.3,5.1c-0.7,0.6,0.6,0.3,0.7,0.6c0.1,0.3,0,4.2,0.6,4.3
			c0.6,0.1,1.7,0.3,2.7-0.6l-0.4,1.6c0,0,1.9,1.8,4.1-0.2c0,0-0.5-1.8-0.5-3s1.6-1.7,1.6-4.9S380.3,5,378.3,5S374.9,6.6,374.9,6.6z"
			/>
		<path id="XMLID_84_" class="st3" d="M378.3,5c-2.1,0-3.4,1.6-3.4,1.6s0,0.1,0,0.3c0.1,0,0.1,0,0.2,0c1.3,0,2.6,0.9,2.6,0.9
			s0.9,1,0.7,2.2c-0.2,1,2,3,2.7,3.6c0.4-0.9,1.5-1.6,1.5-4.2C382.5,6.2,380.3,5,378.3,5z"/>
		<g id="kaki-kiri_12_">
			<path id="kaki-kiri_13_" class="st6" d="M375.4,45.3c0,0,1.1,9.8,1.6,11.9l8.7,23c0,0,0,2.8,3.1-0.5c0,0-6.5-17.7-6.8-23
				c-0.3-5.1,1.1-6.4-0.2-12.3C381.9,44.5,377.9,39,375.4,45.3z"/>
			<g id="sepatu-2_6_">
				<path id="XMLID_79_" class="st7" d="M384.9,79c0,0-3.8,3.8-4.8,3.9c0,0-2.1,1.7,0,1.5c0,0,4.5-0.2,8.7-4.3c0,0,0.1-1.7-0.6-2.8
					C388.2,77.5,387.2,78.6,384.9,79z"/>
				<path id="XMLID_78_" class="st8" d="M388.5,80.5c-4.1,3.2-7.6,3.7-9.2,3.7c0.1,0.1,0.4,0.2,0.9,0.2
					C380.1,84.5,384.4,84.3,388.5,80.5z"/>
			</g>
		</g>
		<g id="kaki-kanan_12_">
			<path id="kaki-kanan_13_" class="st6" d="M377.7,43.3c0,0-4,9-4.6,11.1l-4,24.2c0,0-1.4,2.4,2.9,1.2c0,0,3.3-18.5,5.8-23.3
				c2.3-4.5,4.2-5,6-10.7C383.8,45.8,383.1,39.1,377.7,43.3z"/>
			<g id="sepatu-1_6_">
				<path id="XMLID_81_" class="st7" d="M368.5,79.5c0,0-5.2,1.1-6.2,0.7c0,0-2.6,0.3-0.8,1.3c0,0,3.9,2.3,9.6,1.2c0,0,1-1.4,1-2.7
					C372.1,80,370.6,80.4,368.5,79.5z"/>
				<path id="XMLID_80_" class="st8" d="M370.7,82.8c-5.2,0.5-8.4-1-9.8-1.9c0,0.2,0.2,0.4,0.6,0.6
					C361.5,81.5,365.2,83.7,370.7,82.8z"/>
			</g>
		</g>
		<g id="tangan-2_13_">
			<path id="XMLID_76_" class="st10" d="M376.2,27c0,0-1.1,6.7-2,9c-0.9,2.3-3,8-3.6,8.5s-1.6-0.2-1.8,1c-0.2,1.2,0.9,5.3,2.8,3.4
				c0,0,0.1-1.1,0.5-1.6c0.5-0.5,0.4-1.9,0.4-1.9s6.2-10.1,6.7-12.7c0.5-2.7,0.6-5.6,0.6-5.6S378.9,27.9,376.2,27z"/>
			<path id="XMLID_75_" class="st9" d="M377.1,20c0,0-1.9,0.8-1.6,2.1c0.3,1.3,0.2,4.7-0.1,6.2c-0.1,0.5,0.3,1,0.9,1.5
				c1.3,1,3.6,1.6,4.3,0c1-2.3-0.7-9.5-0.6-8.4C380,22,380.2,19.5,377.1,20z"/>
		</g>
		<path id="XMLID_77_" class="st9" d="M376.8,18.1c0,0-2.2,3.6-2.1,6.5c0,0,0.5,7.1,0.5,9.2s-0.5,13-0.5,13s5.3,2.8,9.7-0.2
			c0,0-0.9-15-0.2-17.9c0.7-2.9-0.6-9.2-2-10.9C380.7,17.1,378.6,16.8,376.8,18.1z"/>
		<g id="tangan-2_14_">
			<path id="XMLID_83_" class="st10" d="M379.2,26.9c0,0,2.1,6.5,2.3,9c0.2,2.5,1,8.5,0.6,9.2c-0.4,0.7-1.5,0.6-1.1,1.7
				s3.2,4.4,4.1,1.8c0,0-0.4-1-0.2-1.7c0.2-0.7-0.5-1.9-0.5-1.9s1.1-11.8,0.3-14.4s-2-5.3-2-5.3S382,26.5,379.2,26.9z"/>
			<path id="XMLID_82_" class="st9" d="M376.8,20.3c0,0-1.3,1.6-0.5,2.6c0.9,1,2.3,4.2,2.7,5.6c0.1,0.4,0.7,0.8,1.4,0.9
				c1.6,0.3,3.9-0.2,3.8-1.9c-0.1-2.6-4.9-8.2-4.3-7.3C380.4,20.7,379.4,18.4,376.8,20.3z"/>
		</g>
	</g>
</g>
<g id="orang-1">
	<g id="frame-1_1_">
		<path id="kepala_15_" class="st2" d="M443.9,6.6c0,0-0.7,4.4-1.3,5.1c-0.7,0.6,0.6,0.3,0.7,0.6c0.1,0.3,0,4.2,0.6,4.3
			c0.6,0.1,1.7,0.3,2.7-0.6l-0.4,1.6c0,0,1.9,1.8,4.1-0.2c0,0-0.5-1.8-0.5-3s1.6-1.7,1.6-4.9S449.3,5,447.3,5S443.9,6.6,443.9,6.6z"
			/>
		<path id="XMLID_341_" class="st3" d="M447.3,5c-2.1,0-3.4,1.6-3.4,1.6s0,0.1,0,0.3c0.1,0,0.1,0,0.2,0c1.3,0,2.6,0.9,2.6,0.9
			s0.9,1,0.7,2.2c-0.2,1,2,3,2.7,3.6c0.4-0.9,1.5-1.6,1.5-4.2C451.5,6.2,449.3,5,447.3,5z"/>
		<g id="tangan-2_32_" class="st0">
			<path id="XMLID_340_" class="st4" d="M449.1,26.9c0,0,2.1,6.5,2.3,9c0.2,2.5,1,8.5,0.6,9.2c-0.4,0.7-1.5,0.6-1.1,1.7
				c0.4,1.2,3.2,4.4,4.1,1.8c0,0-0.4-1-0.2-1.7c0.2-0.7-0.5-1.9-0.5-1.9s1.1-11.8,0.3-14.4s-2-5.3-2-5.3S451.9,26.5,449.1,26.9z"/>
			<path id="XMLID_339_" class="st5" d="M446.7,20.3c0,0-1.3,1.6-0.5,2.6c0.9,1,2.3,4.2,2.7,5.6c0.1,0.4,0.7,0.8,1.4,0.9
				c1.6,0.3,3.9-0.2,3.8-1.9c-0.1-2.6-4.9-8.2-4.3-7.3C450.2,20.7,449.3,18.4,446.7,20.3z"/>
		</g>
		<g id="kaki-kanan_30_">
			<path id="kaki-kanan_31_" class="st6" d="M445.8,42.7c0,0-2.6,9.5-2.9,11.7L442.6,79c0,0-1.1,2.6,3.1,0.7c0,0,0.4-18.8,2.1-23.9
				c1.6-4.8,3.3-5.6,4.3-11.5C452.1,44.3,450.5,37.7,445.8,42.7z"/>
			<g id="sepatu-1_15_">
				<path id="XMLID_338_" class="st7" d="M442.2,79.9c0,0-5,1.9-6,1.6c0,0-2.5,0.7-0.6,1.4c0,0,4.2,1.7,9.7-0.3c0,0,0.8-1.5,0.5-2.8
					C445.9,79.9,444.4,80.5,442.2,79.9z"/>
				<path id="XMLID_337_" class="st8" d="M444.8,82.8c-5,1.3-8.5,0.3-9.9-0.3c0,0.2,0.2,0.3,0.7,0.5C435.6,83,439.6,84.5,444.8,82.8
					z"/>
			</g>
		</g>
		<g id="kaki-kiri_30_">
			<path id="kaki-kiri_31_" class="st6" d="M444.9,44.2c0,0-0.3,9.8-0.1,12l5.3,24c0,0-0.4,2.8,3.2,0c0,0-3.9-18.4-3.4-23.7
				c0.5-5.1,2-6.2,1.5-12.2C451.4,44.2,448.3,38.2,444.9,44.2z"/>
			<g id="sepatu-2_15_">
				<path id="XMLID_336_" class="st7" d="M449.4,78.8c0,0-4.3,3.2-5.3,3.2c0,0-2.3,1.3-0.2,1.5c0,0,4.5,0.5,9.3-2.9
					c0,0,0.3-1.7-0.2-2.8C452.9,77.8,451.7,78.8,449.4,78.8z"/>
				<path id="XMLID_335_" class="st8" d="M452.7,80.9c-4.5,2.6-8.1,2.6-9.7,2.4c0.1,0.1,0.3,0.3,0.8,0.3
					C443.9,83.6,448.1,84,452.7,80.9z"/>
			</g>
		</g>
		<path id="XMLID_334_" class="st9" d="M445.8,18.1c0,0-2.2,3.6-2.1,6.5c0,0,0.5,7.1,0.5,9.2s-0.5,13-0.5,13s5.3,2.8,9.7-0.2
			c0,0-0.9-15-0.2-17.9c0.7-2.9-0.6-9.2-2-10.9C449.7,17.1,447.6,16.8,445.8,18.1z"/>
		<g id="tangan-2_31_">
			<path id="XMLID_333_" class="st10" d="M447.3,26.8c0,0,0.3,6.8-0.1,9.3c-0.4,2.4-1.2,8.5-1.8,9.1s-1.6,0.2-1.5,1.4
				c0.1,1.2,2,5,3.5,2.8c0,0-0.1-1.1,0.2-1.7c0.3-0.6,0-2,0-2s4-11.1,3.9-13.8c-0.1-2.7-0.6-5.6-0.6-5.6S450.1,27.2,447.3,26.8z"/>
			<path id="XMLID_332_" class="st9" d="M446.7,19.8c0,0-1.7,1.2-1.1,2.4c0.6,1.2,1.1,4.6,1.2,6.1c0,0.5,0.5,0.9,1.2,1.2
				c1.5,0.7,3.8,0.8,4.2-0.9c0.5-2.5-2.7-9.2-2.3-8.1C450,21.1,449.6,18.7,446.7,19.8z"/>
		</g>
	</g>
	<g id="frame-2_2_">
		<path id="kepala_14_" class="st2" d="M494.8,6.6c0,0-0.7,4.4-1.3,5.1c-0.7,0.6,0.6,0.3,0.7,0.6c0.1,0.3,0,4.2,0.6,4.3
			c0.6,0.1,1.7,0.3,2.7-0.6l-0.4,1.6c0,0,1.9,1.8,4.1-0.2c0,0-0.5-1.8-0.5-3s1.6-1.7,1.6-4.9S500.2,5,498.2,5S494.8,6.6,494.8,6.6z"
			/>
		<path id="XMLID_331_" class="st3" d="M498.2,5c-2.1,0-3.4,1.6-3.4,1.6s0,0.1,0,0.3c0.1,0,0.1,0,0.2,0c1.3,0,2.6,0.9,2.6,0.9
			s0.9,1,0.7,2.2c-0.2,1,2,3,2.7,3.6c0.4-0.9,1.5-1.6,1.5-4.2C502.4,6.2,500.2,5,498.2,5z"/>
		<g id="tangan-2_30_">
			<path id="XMLID_330_" class="st10" d="M499.2,26.9c0,0,2.1,6.5,2.3,9c0.2,2.5,1,8.5,0.6,9.2c-0.4,0.7-1.5,0.6-1.1,1.7
				c0.4,1.2,3.2,4.4,4.1,1.8c0,0-0.4-1-0.2-1.7c0.2-0.7-0.5-1.9-0.5-1.9s1.1-11.8,0.3-14.4s-2-5.3-2-5.3S502,26.5,499.2,26.9z"/>
			<path id="XMLID_329_" class="st9" d="M496.8,20.3c0,0-1.3,1.6-0.5,2.6c0.9,1,2.3,4.2,2.7,5.6c0.1,0.4,0.7,0.8,1.4,0.9
				c1.6,0.3,3.9-0.2,3.8-1.9c-0.1-2.6-4.9-8.2-4.3-7.3C500.3,20.7,499.3,18.4,496.8,20.3z"/>
		</g>
		<g id="kaki-kanan_28_">
			<path id="kaki-kanan_29_" class="st6" d="M497.6,43.3c0,0-4,9-4.6,11.1l-4,24.2c0,0-1.4,2.4,2.9,1.2c0,0,3.3-18.5,5.8-23.3
				c2.3-4.5,4.2-5,6-10.7C503.7,45.8,503,39.1,497.6,43.3z"/>
			<g id="sepatu-1_14_">
				<path id="XMLID_328_" class="st7" d="M488.4,79.5c0,0-5.2,1.1-6.2,0.7c0,0-2.6,0.3-0.8,1.3c0,0,3.9,2.3,9.6,1.2c0,0,1-1.4,1-2.7
					C492,80,490.5,80.4,488.4,79.5z"/>
				<path id="XMLID_327_" class="st8" d="M490.6,82.8c-5.2,0.5-8.4-1-9.8-1.9c0,0.2,0.2,0.4,0.6,0.6
					C481.4,81.5,485.1,83.7,490.6,82.8z"/>
			</g>
		</g>
		<g id="kaki-kiri_28_">
			<path id="kaki-kiri_29_" class="st6" d="M495.3,45.3c0,0,1.1,9.8,1.6,11.9l8.7,23c0,0,0,2.8,3.1-0.5c0,0-6.5-17.7-6.8-23
				c-0.3-5.1,1.1-6.4-0.2-12.3C501.8,44.5,497.8,39,495.3,45.3z"/>
			<g id="sepatu-2_14_">
				<path id="XMLID_326_" class="st7" d="M504.8,79c0,0-3.8,3.8-4.8,3.9c0,0-2.1,1.7,0,1.5c0,0,4.5-0.2,8.7-4.3c0,0,0.1-1.7-0.6-2.8
					C508.1,77.5,507.1,78.6,504.8,79z"/>
				<path id="XMLID_325_" class="st8" d="M508.4,80.5c-4.1,3.2-7.6,3.7-9.2,3.7c0.1,0.1,0.4,0.2,0.9,0.2
					C500,84.5,504.3,84.3,508.4,80.5z"/>
			</g>
		</g>
		<path id="XMLID_324_" class="st9" d="M496.7,18.1c0,0-2.2,3.6-2.1,6.5c0,0,0.5,7.1,0.5,9.2s-0.5,13-0.5,13s5.3,2.8,9.7-0.2
			c0,0-0.9-15-0.2-17.9c0.7-2.9-0.6-9.2-2-10.9C500.6,17.1,498.6,16.8,496.7,18.1z"/>
		<g id="tangan-2_29_">
			<path id="XMLID_323_" class="st10" d="M496.2,27c0,0-1.1,6.7-2,9c-0.9,2.3-3,8-3.6,8.5c-0.7,0.5-1.6-0.2-1.8,1
				c-0.2,1.2,0.9,5.3,2.8,3.4c0,0,0.1-1.1,0.5-1.6c0.5-0.5,0.4-1.9,0.4-1.9s6.2-10.1,6.7-12.7c0.5-2.7,0.6-5.6,0.6-5.6
				S498.8,27.9,496.2,27z"/>
			<path id="XMLID_322_" class="st9" d="M497,20c0,0-1.9,0.8-1.6,2.1c0.3,1.3,0.2,4.7-0.1,6.2c-0.1,0.5,0.3,1,0.9,1.5
				c1.3,1,3.6,1.6,4.3,0c1-2.3-0.7-9.5-0.6-8.4C499.9,22,500.1,19.5,497,20z"/>
		</g>
	</g>
	<g id="frame-3_2_">
		<path id="kepala_13_" class="st2" d="M545,6.6c0,0-0.7,4.4-1.3,5.1c-0.7,0.6,0.6,0.3,0.7,0.6c0.1,0.3,0,4.2,0.6,4.3
			s1.7,0.3,2.7-0.6l-0.4,1.6c0,0,1.9,1.8,4.1-0.2c0,0-0.5-1.8-0.5-3s1.6-1.7,1.6-4.9c0-3.2-2.1-4.4-4.1-4.4C546.3,5,545,6.6,545,6.6
			z"/>
		<path id="XMLID_321_" class="st3" d="M548.4,5c-2.1,0-3.4,1.6-3.4,1.6s0,0.1,0,0.3c0.1,0,0.1,0,0.2,0c1.3,0,2.6,0.9,2.6,0.9
			s0.9,1,0.7,2.2c-0.2,1,2,3,2.7,3.6c0.4-0.9,1.5-1.6,1.5-4.2C552.6,6.2,550.4,5,548.4,5z"/>
		<g id="tangan-2_28_">
			<path id="XMLID_320_" class="st10" d="M549.7,27c0,0,2.5,6.4,2.9,8.8c0.4,2.4,1.5,8.4,1.2,9.2c-0.3,0.8-1.5,0.7-1,1.8
				c0.4,1.1,3.5,4.1,4.2,1.5c0,0-0.5-1-0.3-1.7s-0.6-1.9-0.6-1.9s0.3-11.9-0.6-14.4s-2.3-5.1-2.3-5.1S552.4,26.5,549.7,27z"/>
			<path id="XMLID_319_" class="st9" d="M546.9,20.5c0,0-1.2,1.7-0.3,2.6c0.9,0.9,2.5,4,3.1,5.4c0.2,0.4,0.8,0.7,1.5,0.8
				c1.6,0.2,3.9-0.4,3.7-2.2c-0.3-2.6-5.4-7.9-4.8-7C550.4,20.8,549.3,18.5,546.9,20.5z"/>
		</g>
		<g id="kaki-kanan_26_">
			<path id="kaki-kanan_27_" class="st6" d="M547.2,44.1c0,0-5,8.5-5.9,10.5l-6.8,23.6c0,0-1.7,2.2,2.8,1.5c0,0,5.4-18,8.4-22.5
				c2.8-4.2,4.7-4.5,7.2-10C552.9,47.3,553,40.5,547.2,44.1z"/>
			<g id="sepatu-1_13_">
				<path id="XMLID_318_" class="st7" d="M533.9,79c0,0-5.3,0.5-6.2,0c0,0-2.6,0-1,1.2c0,0,3.6,2.7,9.4,2.3c0,0,1.1-1.3,1.3-2.5
					C537.4,79.9,535.9,80.2,533.9,79z"/>
				<path id="XMLID_317_" class="st8" d="M535.7,82.5c-5.2-0.1-8.2-2-9.5-3c0,0.2,0.1,0.4,0.5,0.7C526.7,80.2,530.1,82.7,535.7,82.5
					z"/>
			</g>
		</g>
		<g id="kaki-kiri_26_">
			<path id="kaki-kiri_27_" class="st6" d="M545.4,46c0,0,2.4,9.5,3.3,11.6l11.9,21.5c0,0,0.4,2.8,3.1-0.9c0,0-8.9-16.6-9.9-21.8
				c-1-5,0.2-6.5-1.9-12.1C551.7,44.3,547.1,39.4,545.4,46z"/>
			<g id="sepatu-2_13_">
				<path id="XMLID_316_" class="st7" d="M559.6,78c0,0-3.2,4.3-4.2,4.6c0,0-1.8,1.9,0.2,1.5c0,0,4.4-0.8,8-5.4c0,0-0.2-1.7-1-2.6
					C562.6,76,561.8,77.3,559.6,78z"/>
				<path id="XMLID_315_" class="st8" d="M563.3,79.1c-3.6,3.8-7,4.7-8.6,5c0.1,0.1,0.4,0.2,0.9,0.1
					C555.6,84.1,559.8,83.3,563.3,79.1z"/>
			</g>
		</g>
		<path id="XMLID_314_" class="st9" d="M546.9,18.1c0,0-2.2,3.6-2.1,6.5c0,0,0.5,7.1,0.5,9.2s-0.5,13-0.5,13s5.3,2.8,9.7-0.2
			c0,0-0.9-15-0.2-17.9s-0.6-9.2-2-10.9C550.8,17.1,548.7,16.8,546.9,18.1z"/>
		<g id="tangan-2_27_">
			<path id="XMLID_313_" class="st10" d="M547.3,27.2c0,0-1.9,6.5-3.1,8.7c-1.2,2.2-3.9,7.6-4.7,8c-0.7,0.4-1.6-0.4-1.9,0.8
				c-0.3,1.2,0.2,5.4,2.4,3.8c0,0,0.2-1.1,0.7-1.5c0.5-0.5,0.7-1.8,0.7-1.8s7.5-9.2,8.3-11.8s1.3-5.5,1.3-5.5S549.8,28.5,547.3,27.2
				z"/>
			<path id="XMLID_312_" class="st9" d="M549,20.4c0,0-2,0.6-1.8,1.9c0.2,1.3-0.4,4.7-0.9,6.1c-0.1,0.4,0.2,1,0.7,1.6
				c1.1,1.1,3.3,2,4.2,0.5c1.3-2.2,0.5-9.6,0.5-8.4C551.7,22.8,552.1,20.3,549,20.4z"/>
		</g>
	</g>
	<g id="frame-4_1_">
		<path id="kepala_12_" class="st2" d="M595,6.6c0,0-0.7,4.4-1.3,5.1c-0.7,0.6,0.6,0.3,0.7,0.6c0.1,0.3,0,4.2,0.6,4.3
			s1.7,0.3,2.7-0.6l-0.4,1.6c0,0,1.9,1.8,4.1-0.2c0,0-0.5-1.8-0.5-3s1.6-1.7,1.6-4.9c0-3.2-2.1-4.4-4.1-4.4C596.3,5,595,6.6,595,6.6
			z"/>
		<path id="XMLID_311_" class="st3" d="M598.4,5c-2.1,0-3.4,1.6-3.4,1.6s0,0.1,0,0.3c0.1,0,0.1,0,0.2,0c1.3,0,2.6,0.9,2.6,0.9
			s0.9,1,0.7,2.2c-0.2,1,2,3,2.7,3.6c0.4-0.9,1.5-1.6,1.5-4.2C602.6,6.2,600.4,5,598.4,5z"/>
		<g id="tangan-2_26_">
			<path id="XMLID_310_" class="st10" d="M599.4,26.9c0,0,2.1,6.5,2.3,9c0.2,2.5,1,8.5,0.6,9.2c-0.4,0.7-1.5,0.6-1.1,1.7
				s3.2,4.4,4.1,1.8c0,0-0.4-1-0.2-1.7c0.2-0.7-0.5-1.9-0.5-1.9s1.1-11.8,0.3-14.4c-0.8-2.6-2-5.3-2-5.3S602.2,26.5,599.4,26.9z"/>
			<path id="XMLID_309_" class="st9" d="M597,20.3c0,0-1.3,1.6-0.5,2.6c0.9,1,2.3,4.2,2.7,5.6c0.1,0.4,0.7,0.8,1.4,0.9
				c1.6,0.3,3.9-0.2,3.8-1.9c-0.1-2.6-4.9-8.2-4.3-7.3C600.5,20.7,599.5,18.4,597,20.3z"/>
		</g>
		<g id="kaki-kanan_24_">
			<path id="kaki-kanan_25_" class="st6" d="M597.9,43.3c0,0-4,9-4.6,11.1l-4,24.2c0,0-1.4,2.4,2.9,1.2c0,0,3.3-18.5,5.8-23.3
				c2.3-4.5,4.2-5,6-10.7C603.9,45.8,603.3,39.1,597.9,43.3z"/>
			<g id="sepatu-1_12_">
				<path id="XMLID_308_" class="st7" d="M588.6,79.5c0,0-5.2,1.1-6.2,0.7c0,0-2.6,0.3-0.8,1.3c0,0,3.9,2.3,9.6,1.2c0,0,1-1.4,1-2.7
					C592.2,80,590.7,80.4,588.6,79.5z"/>
				<path id="XMLID_307_" class="st8" d="M590.8,82.8c-5.2,0.5-8.4-1-9.8-1.9c0,0.2,0.2,0.4,0.6,0.6
					C581.6,81.5,585.3,83.7,590.8,82.8z"/>
			</g>
		</g>
		<g id="kaki-kiri_24_">
			<path id="kaki-kiri_25_" class="st6" d="M595.5,45.3c0,0,1.1,9.8,1.6,11.9l8.7,23c0,0,0,2.8,3.1-0.5c0,0-6.5-17.7-6.8-23
				c-0.3-5.1,1.1-6.4-0.2-12.3C602,44.5,598,39,595.5,45.3z"/>
			<g id="sepatu-2_12_">
				<path id="XMLID_306_" class="st7" d="M605,79c0,0-3.8,3.8-4.8,3.9c0,0-2.1,1.7,0,1.5c0,0,4.5-0.2,8.7-4.3c0,0,0.1-1.7-0.6-2.8
					C608.3,77.5,607.3,78.6,605,79z"/>
				<path id="XMLID_305_" class="st8" d="M608.6,80.5c-4.1,3.2-7.6,3.7-9.2,3.7c0.1,0.1,0.4,0.2,0.9,0.2
					C600.2,84.5,604.5,84.3,608.6,80.5z"/>
			</g>
		</g>
		<path id="XMLID_304_" class="st9" d="M596.9,18.1c0,0-2.2,3.6-2.1,6.5c0,0,0.5,7.1,0.5,9.2s-0.5,13-0.5,13s5.3,2.8,9.7-0.2
			c0,0-0.9-15-0.2-17.9c0.7-2.9-0.6-9.2-2-10.9C600.8,17.1,598.8,16.8,596.9,18.1z"/>
		<g id="tangan-2_25_">
			<path id="XMLID_303_" class="st10" d="M596.4,27c0,0-1.1,6.7-2,9s-3,8-3.6,8.5s-1.6-0.2-1.8,1c-0.2,1.2,0.9,5.3,2.8,3.4
				c0,0,0.1-1.1,0.5-1.6c0.5-0.5,0.4-1.9,0.4-1.9s6.2-10.1,6.7-12.7s0.6-5.6,0.6-5.6S599,27.9,596.4,27z"/>
			<path id="XMLID_302_" class="st9" d="M597.2,20c0,0-1.9,0.8-1.6,2.1c0.3,1.3,0.2,4.7-0.1,6.2c-0.1,0.5,0.3,1,0.9,1.5
				c1.3,1,3.6,1.6,4.3,0c1-2.3-0.7-9.5-0.6-8.4C600.1,22,600.3,19.5,597.2,20z"/>
		</g>
	</g>
	<g id="frame-5_1_">
		<path id="kepala_11_" class="st2" d="M643.9,6.6c0,0-0.7,4.4-1.3,5.1c-0.7,0.6,0.6,0.3,0.7,0.6c0.1,0.3,0,4.2,0.6,4.3
			c0.6,0.1,1.7,0.3,2.7-0.6l-0.4,1.6c0,0,1.9,1.8,4.1-0.2c0,0-0.5-1.8-0.5-3s1.6-1.7,1.6-4.9c0-3.2-2.1-4.4-4.1-4.4
			C645.2,5,643.9,6.6,643.9,6.6z"/>
		<path id="XMLID_301_" class="st3" d="M647.3,5c-2.1,0-3.4,1.6-3.4,1.6s0,0.1,0,0.3c0.1,0,0.1,0,0.2,0c1.3,0,2.6,0.9,2.6,0.9
			s0.9,1,0.7,2.2c-0.2,1,2,3,2.7,3.6c0.4-0.9,1.5-1.6,1.5-4.2C651.5,6.2,649.3,5,647.3,5z"/>
		<g id="tangan-2_24_" class="st0">
			<path id="XMLID_300_" class="st4" d="M649.1,26.9c0,0,2.1,6.5,2.3,9c0.2,2.5,1,8.5,0.6,9.2c-0.4,0.7-1.5,0.6-1.1,1.7
				c0.4,1.2,3.2,4.4,4.1,1.8c0,0-0.4-1-0.2-1.7c0.2-0.7-0.5-1.9-0.5-1.9s1.1-11.8,0.3-14.4s-2-5.3-2-5.3S651.9,26.5,649.1,26.9z"/>
			<path id="XMLID_299_" class="st5" d="M646.7,20.3c0,0-1.3,1.6-0.5,2.6c0.9,1,2.3,4.2,2.7,5.6c0.1,0.4,0.7,0.8,1.4,0.9
				c1.6,0.3,3.9-0.2,3.8-1.9c-0.1-2.6-4.9-8.2-4.3-7.3C650.2,20.7,649.3,18.4,646.7,20.3z"/>
		</g>
		<g id="kaki-kanan_22_">
			<path id="kaki-kanan_23_" class="st6" d="M645.8,42.7c0,0-2.6,9.5-2.9,11.7L642.6,79c0,0-1.1,2.6,3.1,0.7c0,0,0.4-18.8,2.1-23.9
				c1.6-4.8,3.3-5.6,4.3-11.5C652.1,44.3,650.5,37.7,645.8,42.7z"/>
			<g id="sepatu-1_11_">
				<path id="XMLID_298_" class="st7" d="M642.2,79.9c0,0-5,1.9-6,1.6c0,0-2.5,0.7-0.6,1.4c0,0,4.2,1.7,9.7-0.3c0,0,0.8-1.5,0.5-2.8
					C645.9,79.9,644.4,80.5,642.2,79.9z"/>
				<path id="XMLID_297_" class="st8" d="M644.8,82.8c-5,1.3-8.5,0.3-9.9-0.3c0,0.2,0.2,0.3,0.7,0.5C635.6,83,639.6,84.5,644.8,82.8
					z"/>
			</g>
		</g>
		<g id="kaki-kiri_22_">
			<path id="kaki-kiri_23_" class="st6" d="M644.9,44.2c0,0-0.3,9.8-0.1,12l5.3,24c0,0-0.4,2.8,3.2,0c0,0-3.9-18.4-3.4-23.7
				c0.5-5.1,2-6.2,1.5-12.2C651.4,44.2,648.3,38.2,644.9,44.2z"/>
			<g id="sepatu-2_11_">
				<path id="XMLID_296_" class="st7" d="M649.4,78.8c0,0-4.3,3.2-5.3,3.2c0,0-2.3,1.3-0.2,1.5c0,0,4.5,0.5,9.3-2.9
					c0,0,0.3-1.7-0.2-2.8C652.9,77.8,651.7,78.8,649.4,78.8z"/>
				<path id="XMLID_295_" class="st8" d="M652.7,80.9c-4.5,2.6-8.1,2.6-9.7,2.4c0.1,0.1,0.3,0.3,0.8,0.3
					C643.9,83.6,648.1,84,652.7,80.9z"/>
			</g>
		</g>
		<path id="XMLID_294_" class="st9" d="M645.8,18.1c0,0-2.2,3.6-2.1,6.5c0,0,0.5,7.1,0.5,9.2s-0.5,13-0.5,13s5.3,2.8,9.7-0.2
			c0,0-0.9-15-0.2-17.9c0.7-2.9-0.6-9.2-2-10.9C649.7,17.1,647.6,16.8,645.8,18.1z"/>
		<g id="tangan-2_23_">
			<path id="XMLID_293_" class="st10" d="M647.3,26.8c0,0,0.3,6.8-0.1,9.3c-0.4,2.4-1.2,8.5-1.8,9.1s-1.6,0.2-1.5,1.4
				c0.1,1.2,2,5,3.5,2.8c0,0-0.1-1.1,0.2-1.7c0.3-0.6,0-2,0-2s4-11.1,3.9-13.8c-0.1-2.7-0.6-5.6-0.6-5.6S650.1,27.2,647.3,26.8z"/>
			<path id="XMLID_292_" class="st9" d="M646.7,19.8c0,0-1.7,1.2-1.1,2.4c0.6,1.2,1.1,4.6,1.2,6.1c0,0.5,0.5,0.9,1.2,1.2
				c1.5,0.7,3.8,0.8,4.2-0.9c0.5-2.5-2.7-9.2-2.3-8.1C650,21.1,649.6,18.7,646.7,19.8z"/>
		</g>
	</g>
	<g id="frame-6_2_">
		<path id="kepala_10_" class="st2" d="M695.2,6.6c0,0-0.7,4.4-1.3,5.1c-0.7,0.6,0.6,0.3,0.7,0.6c0.1,0.3,0,4.2,0.6,4.3
			s1.7,0.3,2.7-0.6l-0.4,1.6c0,0,1.9,1.8,4.1-0.2c0,0-0.5-1.8-0.5-3s1.6-1.7,1.6-4.9c0-3.2-2.1-4.4-4.1-4.4
			C696.6,5,695.2,6.6,695.2,6.6z"/>
		<path id="XMLID_291_" class="st3" d="M698.6,5c-2.1,0-3.4,1.6-3.4,1.6s0,0.1,0,0.3c0.1,0,0.1,0,0.2,0c1.3,0,2.6,0.9,2.6,0.9
			s0.9,1,0.7,2.2c-0.2,1,2,3,2.7,3.6c0.4-0.9,1.5-1.6,1.5-4.2C702.8,6.2,700.7,5,698.6,5z"/>
		<g id="kaki-kiri_20_">
			<path id="kaki-kiri_21_" class="st6" d="M695.7,45.3c0,0,1.1,9.8,1.6,11.9l8.7,23c0,0,0,2.8,3.1-0.5c0,0-6.5-17.7-6.8-23
				c-0.3-5.1,1.1-6.4-0.2-12.3C702.2,44.5,698.2,39,695.7,45.3z"/>
			<g id="sepatu-2_10_">
				<path id="XMLID_290_" class="st7" d="M705.2,79c0,0-3.8,3.8-4.8,3.9c0,0-2.1,1.7,0,1.5c0,0,4.5-0.2,8.7-4.3c0,0,0.1-1.7-0.6-2.8
					C708.5,77.5,707.5,78.6,705.2,79z"/>
				<path id="XMLID_289_" class="st8" d="M708.8,80.5c-4.1,3.2-7.6,3.7-9.2,3.7c0.1,0.1,0.4,0.2,0.9,0.2
					C700.4,84.5,704.7,84.3,708.8,80.5z"/>
			</g>
		</g>
		<g id="kaki-kanan_20_">
			<path id="kaki-kanan_21_" class="st6" d="M698.1,43.3c0,0-4,9-4.6,11.1l-4,24.2c0,0-1.4,2.4,2.9,1.2c0,0,3.3-18.5,5.8-23.3
				c2.3-4.5,4.2-5,6-10.7C704.1,45.8,703.5,39.1,698.1,43.3z"/>
			<g id="sepatu-1_10_">
				<path id="XMLID_288_" class="st7" d="M688.8,79.5c0,0-5.2,1.1-6.2,0.7c0,0-2.6,0.3-0.8,1.3c0,0,3.9,2.3,9.6,1.2c0,0,1-1.4,1-2.7
					C692.4,80,691,80.4,688.8,79.5z"/>
				<path id="XMLID_287_" class="st8" d="M691,82.8c-5.2,0.5-8.4-1-9.8-1.9c0,0.2,0.2,0.4,0.6,0.6C681.8,81.5,685.5,83.7,691,82.8z"
					/>
			</g>
		</g>
		<g id="tangan-2_22_">
			<path id="XMLID_286_" class="st10" d="M696.6,27c0,0-1.1,6.7-2,9s-3,8-3.6,8.5s-1.6-0.2-1.8,1c-0.2,1.2,0.9,5.3,2.8,3.4
				c0,0,0.1-1.1,0.5-1.6c0.5-0.5,0.4-1.9,0.4-1.9s6.2-10.1,6.7-12.7s0.6-5.6,0.6-5.6S699.2,27.9,696.6,27z"/>
			<path id="XMLID_285_" class="st9" d="M697.4,20c0,0-1.9,0.8-1.6,2.1c0.3,1.3,0.2,4.7-0.1,6.2c-0.1,0.5,0.3,1,0.9,1.5
				c1.3,1,3.6,1.6,4.3,0c1-2.3-0.7-9.5-0.6-8.4C700.4,22,700.5,19.5,697.4,20z"/>
		</g>
		<path id="XMLID_284_" class="st9" d="M697.1,18.1c0,0-2.2,3.6-2.1,6.5c0,0,0.5,7.1,0.5,9.2s-0.5,13-0.5,13s5.3,2.8,9.7-0.2
			c0,0-0.9-15-0.2-17.9c0.7-2.9-0.6-9.2-2-10.9C701,17.1,699,16.8,697.1,18.1z"/>
		<g id="tangan-2_21_">
			<path id="XMLID_283_" class="st10" d="M699.6,26.9c0,0,2.1,6.5,2.3,9c0.2,2.5,1,8.5,0.6,9.2c-0.4,0.7-1.5,0.6-1.1,1.7
				s3.2,4.4,4.1,1.8c0,0-0.4-1-0.2-1.7c0.2-0.7-0.5-1.9-0.5-1.9s1.1-11.8,0.3-14.4c-0.8-2.6-2-5.3-2-5.3S702.4,26.5,699.6,26.9z"/>
			<path id="XMLID_282_" class="st9" d="M697.2,20.3c0,0-1.3,1.6-0.5,2.6c0.9,1,2.3,4.2,2.7,5.6c0.1,0.4,0.7,0.8,1.4,0.9
				c1.6,0.3,3.9-0.2,3.8-1.9c-0.1-2.6-4.9-8.2-4.3-7.3C700.7,20.7,699.8,18.4,697.2,20.3z"/>
		</g>
	</g>
	<g id="frame-7_1_">
		<path id="kepala_9_" class="st2" d="M744.9,6.6c0,0-0.7,4.4-1.3,5.1c-0.7,0.6,0.6,0.3,0.7,0.6c0.1,0.3,0,4.2,0.6,4.3
			c0.6,0.1,1.7,0.3,2.7-0.6l-0.4,1.6c0,0,1.9,1.8,4.1-0.2c0,0-0.5-1.8-0.5-3s1.6-1.7,1.6-4.9c0-3.2-2.1-4.4-4.1-4.4
			C746.2,5,744.9,6.6,744.9,6.6z"/>
		<path id="XMLID_281_" class="st3" d="M748.3,5c-2.1,0-3.4,1.6-3.4,1.6s0,0.1,0,0.3c0.1,0,0.1,0,0.2,0c1.3,0,2.6,0.9,2.6,0.9
			s0.9,1,0.7,2.2c-0.2,1,2,3,2.7,3.6c0.4-0.9,1.5-1.6,1.5-4.2C752.4,6.2,750.3,5,748.3,5z"/>
		<g id="kaki-kiri_18_">
			<path id="kaki-kiri_19_" class="st6" d="M745.3,46c0,0,2.4,9.5,3.3,11.6l11.9,21.5c0,0,0.4,2.8,3.1-0.9c0,0-8.9-16.6-9.9-21.8
				c-1-5,0.2-6.5-1.9-12.1C751.6,44.3,746.9,39.4,745.3,46z"/>
			<g id="sepatu-2_9_">
				<path id="XMLID_280_" class="st7" d="M759.5,78c0,0-3.2,4.3-4.2,4.6c0,0-1.8,1.9,0.2,1.5c0,0,4.4-0.8,8-5.4c0,0-0.2-1.7-1-2.6
					C762.5,76,761.6,77.3,759.5,78z"/>
				<path id="XMLID_279_" class="st8" d="M763.2,79.1c-3.6,3.8-7,4.7-8.6,5c0.1,0.1,0.4,0.2,0.9,0.1
					C755.5,84.1,759.6,83.3,763.2,79.1z"/>
			</g>
		</g>
		<g id="kaki-kanan_18_">
			<path id="kaki-kanan_19_" class="st6" d="M747.1,44.1c0,0-5,8.5-5.9,10.5l-6.8,23.6c0,0-1.7,2.2,2.8,1.5c0,0,5.4-18,8.4-22.5
				c2.8-4.2,4.7-4.5,7.2-10C752.8,47.3,752.9,40.5,747.1,44.1z"/>
			<g id="sepatu-1_9_">
				<path id="XMLID_278_" class="st7" d="M733.8,79c0,0-5.3,0.5-6.2,0c0,0-2.6,0-1,1.2c0,0,3.6,2.7,9.4,2.3c0,0,1.1-1.3,1.3-2.5
					C737.3,79.9,735.8,80.2,733.8,79z"/>
				<path id="XMLID_277_" class="st8" d="M735.5,82.5c-5.2-0.1-8.2-2-9.5-3c0,0.2,0.1,0.4,0.5,0.7C726.6,80.2,730,82.7,735.5,82.5z"
					/>
			</g>
		</g>
		<g id="tangan-2_20_">
			<path id="XMLID_276_" class="st10" d="M747.2,27.2c0,0-1.9,6.5-3.1,8.7c-1.2,2.2-3.9,7.6-4.7,8c-0.7,0.4-1.6-0.4-1.9,0.8
				c-0.3,1.2,0.2,5.4,2.4,3.8c0,0,0.2-1.1,0.7-1.5c0.5-0.5,0.7-1.8,0.7-1.8s7.5-9.2,8.3-11.8c0.8-2.6,1.3-5.5,1.3-5.5
				S749.7,28.5,747.2,27.2z"/>
			<path id="XMLID_275_" class="st9" d="M748.9,20.4c0,0-2,0.6-1.8,1.9c0.2,1.3-0.4,4.7-0.9,6.1c-0.1,0.4,0.2,1,0.7,1.6
				c1.1,1.1,3.3,2,4.2,0.5c1.3-2.2,0.5-9.6,0.5-8.4C751.5,22.8,752,20.3,748.9,20.4z"/>
		</g>
		<path id="XMLID_274_" class="st9" d="M746.8,18.1c0,0-2.2,3.6-2.1,6.5c0,0,0.5,7.1,0.5,9.2s-0.5,13-0.5,13s5.3,2.8,9.7-0.2
			c0,0-0.9-15-0.2-17.9c0.7-2.9-0.6-9.2-2-10.9C750.7,17.1,748.6,16.8,746.8,18.1z"/>
		<g id="tangan-2_19_">
			<path id="XMLID_273_" class="st10" d="M749.6,27c0,0,2.5,6.4,2.9,8.8c0.4,2.4,1.5,8.4,1.2,9.2c-0.3,0.8-1.5,0.7-1,1.8
				c0.4,1.1,3.5,4.1,4.2,1.5c0,0-0.5-1-0.3-1.7s-0.6-1.9-0.6-1.9s0.3-11.9-0.6-14.4s-2.3-5.1-2.3-5.1S752.3,26.5,749.6,27z"/>
			<path id="XMLID_272_" class="st9" d="M746.7,20.5c0,0-1.2,1.7-0.3,2.6c0.9,0.9,2.5,4,3.1,5.4c0.2,0.4,0.8,0.7,1.5,0.8
				c1.6,0.2,3.9-0.4,3.7-2.2c-0.3-2.6-5.4-7.9-4.8-7C750.3,20.8,749.2,18.5,746.7,20.5z"/>
		</g>
	</g>
	<g id="frame-8_1_">
		<path id="kepala_4_" class="st2" d="M794.9,6.6c0,0-0.7,4.4-1.3,5.1c-0.7,0.6,0.6,0.3,0.7,0.6c0.1,0.3,0,4.2,0.6,4.3
			c0.6,0.1,1.7,0.3,2.7-0.6l-0.4,1.6c0,0,1.9,1.8,4.1-0.2c0,0-0.5-1.8-0.5-3s1.6-1.7,1.6-4.9c0-3.2-2.1-4.4-4.1-4.4
			C796.2,5,794.9,6.6,794.9,6.6z"/>
		<path id="XMLID_271_" class="st3" d="M798.3,5c-2.1,0-3.4,1.6-3.4,1.6s0,0.1,0,0.3c0.1,0,0.1,0,0.2,0c1.3,0,2.6,0.9,2.6,0.9
			s0.9,1,0.7,2.2c-0.2,1,2,3,2.7,3.6c0.4-0.9,1.5-1.6,1.5-4.2C802.5,6.2,800.3,5,798.3,5z"/>
		<g id="kaki-kiri_8_">
			<path id="kaki-kiri_9_" class="st6" d="M795.4,45.3c0,0,1.1,9.8,1.6,11.9l8.7,23c0,0,0,2.8,3.1-0.5c0,0-6.5-17.7-6.8-23
				c-0.3-5.1,1.1-6.4-0.2-12.3C801.9,44.5,797.9,39,795.4,45.3z"/>
			<g id="sepatu-2_4_">
				<path id="XMLID_270_" class="st7" d="M804.9,79c0,0-3.8,3.8-4.8,3.9c0,0-2.1,1.7,0,1.5c0,0,4.5-0.2,8.7-4.3c0,0,0.1-1.7-0.6-2.8
					C808.2,77.5,807.2,78.6,804.9,79z"/>
				<path id="XMLID_269_" class="st8" d="M808.5,80.5c-4.1,3.2-7.6,3.7-9.2,3.7c0.1,0.1,0.4,0.2,0.9,0.2
					C800.1,84.5,804.4,84.3,808.5,80.5z"/>
			</g>
		</g>
		<g id="kaki-kanan_8_">
			<path id="kaki-kanan_9_" class="st6" d="M797.7,43.3c0,0-4,9-4.6,11.1l-4,24.2c0,0-1.4,2.4,2.9,1.2c0,0,3.3-18.5,5.8-23.3
				c2.3-4.5,4.2-5,6-10.7C803.8,45.8,803.1,39.1,797.7,43.3z"/>
			<g id="sepatu-1_4_">
				<path id="XMLID_268_" class="st7" d="M788.5,79.5c0,0-5.2,1.1-6.2,0.7c0,0-2.6,0.3-0.8,1.3c0,0,3.9,2.3,9.6,1.2c0,0,1-1.4,1-2.7
					C792.1,80,790.6,80.4,788.5,79.5z"/>
				<path id="XMLID_267_" class="st8" d="M790.7,82.8c-5.2,0.5-8.4-1-9.8-1.9c0,0.2,0.2,0.4,0.6,0.6
					C781.5,81.5,785.2,83.7,790.7,82.8z"/>
			</g>
		</g>
		<g id="tangan-2_10_">
			<path id="XMLID_266_" class="st10" d="M796.2,27c0,0-1.1,6.7-2,9c-0.9,2.3-3,8-3.6,8.5c-0.7,0.5-1.6-0.2-1.8,1
				c-0.2,1.2,0.9,5.3,2.8,3.4c0,0,0.1-1.1,0.5-1.6c0.5-0.5,0.4-1.9,0.4-1.9s6.2-10.1,6.7-12.7c0.5-2.7,0.6-5.6,0.6-5.6
				S798.9,27.9,796.2,27z"/>
			<path id="XMLID_265_" class="st9" d="M797.1,20c0,0-1.9,0.8-1.6,2.1s0.2,4.7-0.1,6.2c-0.1,0.5,0.3,1,0.9,1.5c1.3,1,3.6,1.6,4.3,0
				c1-2.3-0.7-9.5-0.6-8.4C800,22,800.2,19.5,797.1,20z"/>
		</g>
		<path id="XMLID_264_" class="st9" d="M796.8,18.1c0,0-2.2,3.6-2.1,6.5c0,0,0.5,7.1,0.5,9.2s-0.5,13-0.5,13s5.3,2.8,9.7-0.2
			c0,0-0.9-15-0.2-17.9s-0.6-9.2-2-10.9C800.7,17.1,798.6,16.8,796.8,18.1z"/>
		<g id="tangan-2_9_">
			<path id="XMLID_263_" class="st10" d="M799.2,26.9c0,0,2.1,6.5,2.3,9c0.2,2.5,1,8.5,0.6,9.2c-0.4,0.7-1.5,0.6-1.1,1.7
				c0.4,1.2,3.2,4.4,4.1,1.8c0,0-0.4-1-0.2-1.7c0.2-0.7-0.5-1.9-0.5-1.9s1.1-11.8,0.3-14.4s-2-5.3-2-5.3S802,26.5,799.2,26.9z"/>
			<path id="XMLID_262_" class="st9" d="M796.8,20.3c0,0-1.3,1.6-0.5,2.6c0.9,1,2.3,4.2,2.7,5.6c0.1,0.4,0.7,0.8,1.4,0.9
				c1.6,0.3,3.9-0.2,3.8-1.9c-0.1-2.6-4.9-8.2-4.3-7.3C800.4,20.7,799.4,18.4,796.8,20.3z"/>
		</g>
	</g>
</g>
<g id="orang-2">
	<g id="frame-1_2_">
		<path id="kepala_23_" class="st2" d="M23.9,6.6c0,0-0.7,4.4-1.3,5.1c-0.7,0.6,0.6,0.3,0.7,0.6s0,4.2,0.6,4.3s1.7,0.3,2.7-0.6
			l-0.4,1.6c0,0,1.9,1.8,4.1-0.2c0,0-0.5-1.8-0.5-3s1.6-1.7,1.6-4.9s-2.1-4.4-4.1-4.4S23.9,6.6,23.9,6.6z"/>
		<path id="XMLID_161_" class="st3" d="M27.3,5c-2.1,0-3.4,1.6-3.4,1.6s0,0.1,0,0.3c0.1,0,0.1,0,0.2,0c1.3,0,2.6,0.9,2.6,0.9
			s0.9,1,0.7,2.2c-0.2,1,2,3,2.7,3.6c0.4-0.9,1.5-1.6,1.5-4.2C31.5,6.2,29.3,5,27.3,5z"/>
		<g id="tangan-2_48_" class="st0">
			<path id="XMLID_160_" class="st4" d="M29.1,26.9c0,0,2.1,6.5,2.3,9c0.2,2.5,1,8.5,0.6,9.2c-0.4,0.7-1.5,0.6-1.1,1.7
				s3.2,4.4,4.1,1.8c0,0-0.4-1-0.2-1.7S34.3,45,34.3,45s1.1-11.8,0.3-14.4s-2-5.3-2-5.3S31.9,26.5,29.1,26.9z"/>
			<path id="XMLID_159_" class="st11" d="M26.7,20.3c0,0-1.3,1.6-0.5,2.6c0.9,1,2.3,4.2,2.7,5.6c0.1,0.4,0.7,0.8,1.4,0.9
				c1.6,0.3,3.9-0.2,3.8-1.9c-0.1-2.6-4.9-8.2-4.3-7.3C30.2,20.7,29.3,18.4,26.7,20.3z"/>
		</g>
		<g id="kaki-kanan_46_">
			<path id="kaki-kanan_47_" class="st6" d="M25.8,42.7c0,0-2.6,9.5-2.9,11.7L22.6,79c0,0-1.1,2.6,3.1,0.7c0,0,0.4-18.8,2.1-23.9
				c1.6-4.8,3.3-5.6,4.3-11.5C32.1,44.3,30.5,37.7,25.8,42.7z"/>
			<g id="sepatu-1_23_">
				<path id="XMLID_158_" class="st7" d="M22.2,79.9c0,0-5,1.9-6,1.6c0,0-2.5,0.7-0.6,1.4c0,0,4.2,1.7,9.7-0.3c0,0,0.8-1.5,0.5-2.8
					C25.9,79.9,24.4,80.5,22.2,79.9z"/>
				<path id="XMLID_157_" class="st8" d="M24.8,82.8c-5,1.3-8.5,0.3-9.9-0.3c0,0.2,0.2,0.3,0.7,0.5C15.6,83,19.6,84.5,24.8,82.8z"/>
			</g>
		</g>
		<g id="kaki-kiri_46_">
			<path id="kaki-kiri_47_" class="st6" d="M24.9,44.2c0,0-0.3,9.8-0.1,12l5.3,24c0,0-0.4,2.8,3.2,0c0,0-3.9-18.4-3.4-23.7
				c0.5-5.1,2-6.2,1.5-12.2C31.4,44.2,28.3,38.2,24.9,44.2z"/>
			<g id="sepatu-2_23_">
				<path id="XMLID_156_" class="st7" d="M29.4,78.8c0,0-4.3,3.2-5.3,3.2c0,0-2.3,1.3-0.2,1.5c0,0,4.5,0.5,9.3-2.9
					c0,0,0.3-1.7-0.2-2.8C32.9,77.8,31.7,78.8,29.4,78.8z"/>
				<path id="XMLID_155_" class="st8" d="M32.7,80.9c-4.5,2.6-8.1,2.6-9.7,2.4c0.1,0.1,0.3,0.3,0.8,0.3C23.9,83.6,28.1,84,32.7,80.9
					z"/>
			</g>
		</g>
		<path id="XMLID_154_" class="st12" d="M25.8,18.1c0,0-2.2,3.6-2.1,6.5c0,0,0.5,7.1,0.5,9.2s-0.5,13-0.5,13s5.3,2.8,9.7-0.2
			c0,0-0.9-15-0.2-17.9s-0.6-9.2-2-10.9C29.7,17.1,27.6,16.8,25.8,18.1z"/>
		<g id="tangan-2_47_">
			<path id="XMLID_153_" class="st10" d="M27.3,26.8c0,0,0.3,6.8-0.1,9.3c-0.4,2.4-1.2,8.5-1.8,9.1s-1.6,0.2-1.5,1.4s2,5,3.5,2.8
				c0,0-0.1-1.1,0.2-1.7c0.3-0.6,0-2,0-2s4-11.1,3.9-13.8s-0.6-5.6-0.6-5.6S30.1,27.2,27.3,26.8z"/>
			<path id="XMLID_152_" class="st12" d="M26.7,19.8c0,0-1.7,1.2-1.1,2.4c0.6,1.2,1.1,4.6,1.2,6.1c0,0.5,0.5,0.9,1.2,1.2
				c1.5,0.7,3.8,0.8,4.2-0.9c0.5-2.5-2.7-9.2-2.3-8.1C30,21.1,29.6,18.7,26.7,19.8z"/>
		</g>
	</g>
	<g id="frame-2_3_">
		<path id="kepala_22_" class="st2" d="M74.8,6.6c0,0-0.7,4.4-1.3,5.1c-0.7,0.6,0.6,0.3,0.7,0.6s0,4.2,0.6,4.3s1.7,0.3,2.7-0.6
			l-0.4,1.6c0,0,1.9,1.8,4.1-0.2c0,0-0.5-1.8-0.5-3s1.6-1.7,1.6-4.9S80.2,5,78.2,5C76.1,5,74.8,6.6,74.8,6.6z"/>
		<path id="XMLID_151_" class="st3" d="M78.2,5c-2.1,0-3.4,1.6-3.4,1.6s0,0.1,0,0.3c0.1,0,0.1,0,0.2,0c1.3,0,2.6,0.9,2.6,0.9
			s0.9,1,0.7,2.2c-0.2,1,2,3,2.7,3.6c0.4-0.9,1.5-1.6,1.5-4.2C82.4,6.2,80.2,5,78.2,5z"/>
		<g id="tangan-2_46_">
			<path id="XMLID_150_" class="st10" d="M79.2,26.9c0,0,2.1,6.5,2.3,9c0.2,2.5,1,8.5,0.6,9.2s-1.5,0.6-1.1,1.7
				c0.4,1.2,3.2,4.4,4.1,1.8c0,0-0.4-1-0.2-1.7c0.2-0.7-0.5-1.9-0.5-1.9s1.1-11.8,0.3-14.4c-0.8-2.6-2-5.3-2-5.3S82,26.5,79.2,26.9z
				"/>
			<path id="XMLID_149_" class="st12" d="M76.8,20.3c0,0-1.3,1.6-0.5,2.6c0.9,1,2.3,4.2,2.7,5.6c0.1,0.4,0.7,0.8,1.4,0.9
				c1.6,0.3,3.9-0.2,3.8-1.9c-0.1-2.6-4.9-8.2-4.3-7.3C80.3,20.7,79.3,18.4,76.8,20.3z"/>
		</g>
		<g id="kaki-kanan_44_">
			<path id="kaki-kanan_45_" class="st6" d="M77.6,43.3c0,0-4,9-4.6,11.1l-4,24.2c0,0-1.4,2.4,2.9,1.2c0,0,3.3-18.5,5.8-23.3
				c2.3-4.5,4.2-5,6-10.7C83.7,45.8,83.1,39.1,77.6,43.3z"/>
			<g id="sepatu-1_22_">
				<path id="XMLID_148_" class="st7" d="M68.4,79.5c0,0-5.2,1.1-6.2,0.7c0,0-2.6,0.3-0.8,1.3c0,0,3.9,2.3,9.6,1.2c0,0,1-1.4,1-2.7
					C72,80,70.5,80.4,68.4,79.5z"/>
				<path id="XMLID_147_" class="st8" d="M70.6,82.8c-5.2,0.5-8.4-1-9.8-1.9c0,0.2,0.2,0.4,0.6,0.6C61.4,81.5,65.1,83.7,70.6,82.8z"
					/>
			</g>
		</g>
		<g id="kaki-kiri_44_">
			<path id="kaki-kiri_45_" class="st6" d="M75.3,45.3c0,0,1.1,9.8,1.6,11.9l8.7,23c0,0,0,2.8,3.1-0.5c0,0-6.5-17.7-6.8-23
				c-0.3-5.1,1.1-6.4-0.2-12.3C81.8,44.5,77.8,39,75.3,45.3z"/>
			<g id="sepatu-2_22_">
				<path id="XMLID_146_" class="st7" d="M84.8,79c0,0-3.8,3.8-4.8,3.9c0,0-2.1,1.7,0,1.5c0,0,4.5-0.2,8.7-4.3c0,0,0.1-1.7-0.6-2.8
					C88.1,77.5,87.1,78.6,84.8,79z"/>
				<path id="XMLID_145_" class="st8" d="M88.4,80.5c-4.1,3.2-7.6,3.7-9.2,3.7c0.1,0.1,0.4,0.2,0.9,0.2C80,84.5,84.3,84.3,88.4,80.5
					z"/>
			</g>
		</g>
		<path id="XMLID_144_" class="st12" d="M76.7,18.1c0,0-2.2,3.6-2.1,6.5c0,0,0.5,7.1,0.5,9.2s-0.5,13-0.5,13s5.3,2.8,9.7-0.2
			c0,0-0.9-15-0.2-17.9s-0.6-9.2-2-10.9C80.6,17.1,78.6,16.8,76.7,18.1z"/>
		<g id="tangan-2_45_">
			<path id="XMLID_143_" class="st10" d="M76.2,27c0,0-1.1,6.7-2,9s-3,8-3.6,8.5c-0.7,0.5-1.6-0.2-1.8,1c-0.2,1.2,0.9,5.3,2.8,3.4
				c0,0,0.1-1.1,0.5-1.6c0.5-0.5,0.4-1.9,0.4-1.9s6.2-10.1,6.7-12.7s0.6-5.6,0.6-5.6S78.8,27.9,76.2,27z"/>
			<path id="XMLID_142_" class="st12" d="M77,20c0,0-1.9,0.8-1.6,2.1s0.2,4.7-0.1,6.2c-0.1,0.5,0.3,1,0.9,1.5c1.3,1,3.6,1.6,4.3,0
				c1-2.3-0.7-9.5-0.6-8.4C79.9,22,80.1,19.5,77,20z"/>
		</g>
	</g>
	<g id="frame-3_3_">
		<path id="kepala_21_" class="st2" d="M125,6.6c0,0-0.7,4.4-1.3,5.1c-0.7,0.6,0.6,0.3,0.7,0.6s0,4.2,0.6,4.3s1.7,0.3,2.7-0.6
			l-0.4,1.6c0,0,1.9,1.8,4.1-0.2c0,0-0.5-1.8-0.5-3s1.6-1.7,1.6-4.9S130.4,5,128.4,5C126.3,5,125,6.6,125,6.6z"/>
		<path id="XMLID_141_" class="st3" d="M128.4,5c-2.1,0-3.4,1.6-3.4,1.6s0,0.1,0,0.3c0.1,0,0.1,0,0.2,0c1.3,0,2.6,0.9,2.6,0.9
			s0.9,1,0.7,2.2c-0.2,1,2,3,2.7,3.6c0.4-0.9,1.5-1.6,1.5-4.2C132.6,6.2,130.4,5,128.4,5z"/>
		<g id="tangan-2_44_">
			<path id="XMLID_140_" class="st10" d="M129.7,27c0,0,2.5,6.4,2.9,8.8c0.4,2.4,1.5,8.4,1.2,9.2s-1.5,0.7-1,1.8
				c0.4,1.1,3.5,4.1,4.2,1.5c0,0-0.5-1-0.3-1.7s-0.6-1.9-0.6-1.9s0.3-11.9-0.6-14.4s-2.3-5.1-2.3-5.1S132.4,26.5,129.7,27z"/>
			<path id="XMLID_139_" class="st12" d="M126.9,20.5c0,0-1.2,1.7-0.3,2.6c0.9,0.9,2.5,4,3.1,5.4c0.2,0.4,0.8,0.7,1.5,0.8
				c1.6,0.2,3.9-0.4,3.7-2.2c-0.3-2.6-5.4-7.9-4.8-7C130.4,20.8,129.3,18.5,126.9,20.5z"/>
		</g>
		<g id="kaki-kanan_42_">
			<path id="kaki-kanan_43_" class="st6" d="M127.2,44.1c0,0-5,8.5-5.9,10.5l-6.8,23.6c0,0-1.7,2.2,2.8,1.5c0,0,5.4-18,8.4-22.5
				c2.8-4.2,4.7-4.5,7.2-10C132.9,47.3,133,40.5,127.2,44.1z"/>
			<g id="sepatu-1_21_">
				<path id="XMLID_138_" class="st7" d="M113.9,79c0,0-5.3,0.5-6.2,0c0,0-2.6,0-1,1.2c0,0,3.6,2.7,9.4,2.3c0,0,1.1-1.3,1.3-2.5
					C117.4,79.9,115.9,80.2,113.9,79z"/>
				<path id="XMLID_137_" class="st8" d="M115.7,82.5c-5.2-0.1-8.2-2-9.5-3c0,0.2,0.1,0.4,0.5,0.7C106.7,80.2,110.1,82.7,115.7,82.5
					z"/>
			</g>
		</g>
		<g id="kaki-kiri_42_">
			<path id="kaki-kiri_43_" class="st6" d="M125.4,46c0,0,2.4,9.5,3.3,11.6l11.9,21.5c0,0,0.4,2.8,3.1-0.9c0,0-8.9-16.6-9.9-21.8
				c-1-5,0.2-6.5-1.9-12.1C131.7,44.3,127.1,39.4,125.4,46z"/>
			<g id="sepatu-2_21_">
				<path id="XMLID_136_" class="st7" d="M139.6,78c0,0-3.2,4.3-4.2,4.6c0,0-1.8,1.9,0.2,1.5c0,0,4.4-0.8,8-5.4c0,0-0.2-1.7-1-2.6
					C142.6,76,141.8,77.3,139.6,78z"/>
				<path id="XMLID_135_" class="st8" d="M143.3,79.1c-3.6,3.8-7,4.7-8.6,5c0.1,0.1,0.4,0.2,0.9,0.1
					C135.6,84.1,139.8,83.3,143.3,79.1z"/>
			</g>
		</g>
		<path id="XMLID_134_" class="st12" d="M126.9,18.1c0,0-2.2,3.6-2.1,6.5c0,0,0.5,7.1,0.5,9.2s-0.5,13-0.5,13s5.3,2.8,9.7-0.2
			c0,0-0.9-15-0.2-17.9s-0.6-9.2-2-10.9C130.8,17.1,128.7,16.8,126.9,18.1z"/>
		<g id="tangan-2_43_">
			<path id="XMLID_133_" class="st10" d="M127.3,27.2c0,0-1.9,6.5-3.1,8.7s-3.9,7.6-4.7,8c-0.7,0.4-1.6-0.4-1.9,0.8s0.2,5.4,2.4,3.8
				c0,0,0.2-1.1,0.7-1.5c0.5-0.5,0.7-1.8,0.7-1.8s7.5-9.2,8.3-11.8s1.3-5.5,1.3-5.5S129.8,28.5,127.3,27.2z"/>
			<path id="XMLID_132_" class="st12" d="M129,20.4c0,0-2,0.6-1.8,1.9s-0.4,4.7-0.9,6.1c-0.1,0.4,0.2,1,0.7,1.6
				c1.1,1.1,3.3,2,4.2,0.5c1.3-2.2,0.5-9.6,0.5-8.4C131.7,22.8,132.2,20.3,129,20.4z"/>
		</g>
	</g>
	<g id="frame-4_2_">
		<path id="kepala_20_" class="st2" d="M175,6.6c0,0-0.7,4.4-1.3,5.1c-0.7,0.6,0.6,0.3,0.7,0.6c0.1,0.3,0,4.2,0.6,4.3
			s1.7,0.3,2.7-0.6l-0.4,1.6c0,0,1.9,1.8,4.1-0.2c0,0-0.5-1.8-0.5-3s1.6-1.7,1.6-4.9s-2-4.5-4.1-4.5C176.3,5,175,6.6,175,6.6z"/>
		<path id="XMLID_131_" class="st3" d="M178.4,5c-2.1,0-3.4,1.6-3.4,1.6s0,0.1,0,0.3c0.1,0,0.1,0,0.2,0c1.3,0,2.6,0.9,2.6,0.9
			s0.9,1,0.7,2.2c-0.2,1,2,3,2.7,3.6c0.4-0.9,1.5-1.6,1.5-4.2C182.6,6.2,180.5,5,178.4,5z"/>
		<g id="tangan-2_42_">
			<path id="XMLID_130_" class="st10" d="M179.4,26.9c0,0,2.1,6.5,2.3,9s1,8.5,0.6,9.2s-1.5,0.6-1.1,1.7s3.2,4.4,4.1,1.8
				c0,0-0.4-1-0.2-1.7s-0.5-1.9-0.5-1.9s1.1-11.8,0.3-14.4s-2-5.3-2-5.3S182.2,26.5,179.4,26.9z"/>
			<path id="XMLID_129_" class="st12" d="M177,20.3c0,0-1.3,1.6-0.5,2.6c0.9,1,2.3,4.2,2.7,5.6c0.1,0.4,0.7,0.8,1.4,0.9
				c1.6,0.3,3.9-0.2,3.8-1.9c-0.1-2.6-4.9-8.2-4.3-7.3C180.5,20.7,179.5,18.4,177,20.3z"/>
		</g>
		<g id="kaki-kanan_40_">
			<path id="kaki-kanan_41_" class="st6" d="M177.9,43.3c0,0-4,9-4.6,11.1l-4,24.2c0,0-1.4,2.4,2.9,1.2c0,0,3.3-18.5,5.8-23.3
				c2.3-4.5,4.2-5,6-10.7C183.9,45.8,183.3,39.1,177.9,43.3z"/>
			<g id="sepatu-1_20_">
				<path id="XMLID_128_" class="st7" d="M168.6,79.5c0,0-5.2,1.1-6.2,0.7c0,0-2.6,0.3-0.8,1.3c0,0,3.9,2.3,9.6,1.2c0,0,1-1.4,1-2.7
					C172.2,80,170.7,80.4,168.6,79.5z"/>
				<path id="XMLID_127_" class="st8" d="M170.8,82.8c-5.2,0.5-8.4-1-9.8-1.9c0,0.2,0.2,0.4,0.6,0.6
					C161.6,81.5,165.3,83.7,170.8,82.8z"/>
			</g>
		</g>
		<g id="kaki-kiri_40_">
			<path id="kaki-kiri_41_" class="st6" d="M175.5,45.3c0,0,1.1,9.8,1.6,11.9l8.7,23c0,0,0,2.8,3.1-0.5c0,0-6.5-17.7-6.8-23
				c-0.3-5.1,1.1-6.4-0.2-12.3C182,44.5,178,39,175.5,45.3z"/>
			<g id="sepatu-2_20_">
				<path id="XMLID_126_" class="st7" d="M185,79c0,0-3.8,3.8-4.8,3.9c0,0-2.1,1.7,0,1.5c0,0,4.5-0.2,8.7-4.3c0,0,0.1-1.7-0.6-2.8
					C188.3,77.5,187.3,78.6,185,79z"/>
				<path id="XMLID_125_" class="st8" d="M188.6,80.5c-4.1,3.2-7.6,3.7-9.2,3.7c0.1,0.1,0.4,0.2,0.9,0.2
					C180.2,84.5,184.5,84.3,188.6,80.5z"/>
			</g>
		</g>
		<path id="XMLID_124_" class="st12" d="M176.9,18.1c0,0-2.2,3.6-2.1,6.5c0,0,0.5,7.1,0.5,9.2s-0.5,13-0.5,13s5.3,2.8,9.7-0.2
			c0,0-0.9-15-0.2-17.9s-0.6-9.2-2-10.9C180.8,17.1,178.8,16.8,176.9,18.1z"/>
		<g id="tangan-2_41_">
			<path id="XMLID_123_" class="st10" d="M176.4,27c0,0-1.1,6.7-2,9s-3,8-3.6,8.5s-1.6-0.2-1.8,1s0.9,5.3,2.8,3.4
				c0,0,0.1-1.1,0.5-1.6c0.5-0.5,0.4-1.9,0.4-1.9s6.2-10.1,6.7-12.7c0.5-2.7,0.6-5.6,0.6-5.6S179,27.9,176.4,27z"/>
			<path id="XMLID_122_" class="st12" d="M177.2,20c0,0-1.9,0.8-1.6,2.1s0.2,4.7-0.1,6.2c-0.1,0.5,0.3,1,0.9,1.5
				c1.3,1,3.6,1.6,4.3,0c1-2.3-0.7-9.5-0.6-8.4C180.1,22,180.3,19.5,177.2,20z"/>
		</g>
	</g>
	<g id="frame-5_2_">
		<path id="kepala_19_" class="st2" d="M223.9,6.6c0,0-0.7,4.4-1.3,5.1c-0.7,0.6,0.6,0.3,0.7,0.6c0.1,0.3,0,4.2,0.6,4.3
			s1.7,0.3,2.7-0.6l-0.4,1.6c0,0,1.9,1.8,4.1-0.2c0,0-0.5-1.8-0.5-3s1.6-1.7,1.6-4.9S229.3,5,227.3,5S223.9,6.6,223.9,6.6z"/>
		<path id="XMLID_121_" class="st3" d="M227.3,5c-2.1,0-3.4,1.6-3.4,1.6s0,0.1,0,0.3c0.1,0,0.1,0,0.2,0c1.3,0,2.6,0.9,2.6,0.9
			s0.9,1,0.7,2.2c-0.2,1,2,3,2.7,3.6c0.4-0.9,1.5-1.6,1.5-4.2C231.5,6.2,229.3,5,227.3,5z"/>
		<g id="tangan-2_40_" class="st0">
			<path id="XMLID_120_" class="st4" d="M229.1,26.9c0,0,2.1,6.5,2.3,9s1,8.5,0.6,9.2s-1.5,0.6-1.1,1.7s3.2,4.4,4.1,1.8
				c0,0-0.4-1-0.2-1.7s-0.5-1.9-0.5-1.9s1.1-11.8,0.3-14.4s-2-5.3-2-5.3S231.9,26.5,229.1,26.9z"/>
			<path id="XMLID_119_" class="st13" d="M226.7,20.3c0,0-1.3,1.6-0.5,2.6c0.9,1,2.3,4.2,2.7,5.6c0.1,0.4,0.7,0.8,1.4,0.9
				c1.6,0.3,3.9-0.2,3.8-1.9c-0.1-2.6-4.9-8.2-4.3-7.3C230.2,20.7,229.3,18.4,226.7,20.3z"/>
		</g>
		<g id="kaki-kanan_38_">
			<path id="kaki-kanan_39_" class="st6" d="M225.8,42.7c0,0-2.6,9.5-2.9,11.7L222.6,79c0,0-1.1,2.6,3.1,0.7c0,0,0.4-18.8,2.1-23.9
				c1.6-4.8,3.3-5.6,4.3-11.5C232.1,44.3,230.5,37.7,225.8,42.7z"/>
			<g id="sepatu-1_19_">
				<path id="XMLID_118_" class="st7" d="M222.2,79.9c0,0-5,1.9-6,1.6c0,0-2.5,0.7-0.6,1.4c0,0,4.2,1.7,9.7-0.3c0,0,0.8-1.5,0.5-2.8
					C225.9,79.9,224.4,80.5,222.2,79.9z"/>
				<path id="XMLID_117_" class="st8" d="M224.8,82.8c-5,1.3-8.5,0.3-9.9-0.3c0,0.2,0.2,0.3,0.7,0.5C215.6,83,219.6,84.5,224.8,82.8
					z"/>
			</g>
		</g>
		<g id="kaki-kiri_38_">
			<path id="kaki-kiri_39_" class="st6" d="M224.9,44.2c0,0-0.3,9.8-0.1,12l5.3,24c0,0-0.4,2.8,3.2,0c0,0-3.9-18.4-3.4-23.7
				c0.5-5.1,2-6.2,1.5-12.2C231.4,44.2,228.3,38.2,224.9,44.2z"/>
			<g id="sepatu-2_19_">
				<path id="XMLID_116_" class="st7" d="M229.4,78.8c0,0-4.3,3.2-5.3,3.2c0,0-2.3,1.3-0.2,1.5c0,0,4.5,0.5,9.3-2.9
					c0,0,0.3-1.7-0.2-2.8C232.9,77.8,231.7,78.8,229.4,78.8z"/>
				<path id="XMLID_115_" class="st8" d="M232.7,80.9c-4.5,2.6-8.1,2.6-9.7,2.4c0.1,0.1,0.3,0.3,0.8,0.3
					C223.9,83.6,228.1,84,232.7,80.9z"/>
			</g>
		</g>
		<path id="XMLID_114_" class="st14" d="M225.8,18.1c0,0-2.2,3.6-2.1,6.5c0,0,0.5,7.1,0.5,9.2s-0.5,13-0.5,13s5.3,2.8,9.7-0.2
			c0,0-0.9-15-0.2-17.9s-0.6-9.2-2-10.9C229.7,17.1,227.6,16.8,225.8,18.1z"/>
		<g id="tangan-2_39_">
			<path id="XMLID_113_" class="st10" d="M227.3,26.8c0,0,0.3,6.8-0.1,9.3c-0.4,2.4-1.2,8.5-1.8,9.1s-1.6,0.2-1.5,1.4s2,5,3.5,2.8
				c0,0-0.1-1.1,0.2-1.7c0.3-0.6,0-2,0-2s4-11.1,3.9-13.8s-0.6-5.6-0.6-5.6S230.1,27.2,227.3,26.8z"/>
			<path id="XMLID_112_" class="st14" d="M226.7,19.8c0,0-1.7,1.2-1.1,2.4c0.6,1.2,1.1,4.6,1.2,6.1c0,0.5,0.5,0.9,1.2,1.2
				c1.5,0.7,3.8,0.8,4.2-0.9c0.5-2.5-2.7-9.2-2.3-8.1C230,21.1,229.6,18.7,226.7,19.8z"/>
		</g>
	</g>
	<g id="frame-6_3_">
		<path id="kepala_18_" class="st2" d="M275.2,6.6c0,0-0.7,4.4-1.3,5.1c-0.7,0.6,0.6,0.3,0.7,0.6s0,4.2,0.6,4.3s1.7,0.3,2.7-0.6
			l-0.4,1.6c0,0,1.9,1.8,4.1-0.2c0,0-0.5-1.8-0.5-3s1.6-1.7,1.6-4.9s-2-4.5-4.1-4.5S275.2,6.6,275.2,6.6z"/>
		<path id="XMLID_111_" class="st3" d="M278.6,5c-2.1,0-3.4,1.6-3.4,1.6s0,0.1,0,0.3c0.1,0,0.1,0,0.2,0c1.3,0,2.6,0.9,2.6,0.9
			s0.9,1,0.7,2.2c-0.2,1,2,3,2.7,3.6c0.4-0.9,1.5-1.6,1.5-4.2C282.8,6.2,280.7,5,278.6,5z"/>
		<g id="kaki-kiri_36_">
			<path id="kaki-kiri_37_" class="st6" d="M275.7,45.3c0,0,1.1,9.8,1.6,11.9l8.7,23c0,0,0,2.8,3.1-0.5c0,0-6.5-17.7-6.8-23
				c-0.3-5.1,1.1-6.4-0.2-12.3C282.2,44.5,278.2,39,275.7,45.3z"/>
			<g id="sepatu-2_18_">
				<path id="XMLID_110_" class="st7" d="M285.2,79c0,0-3.8,3.8-4.8,3.9c0,0-2.1,1.7,0,1.5c0,0,4.5-0.2,8.7-4.3c0,0,0.1-1.7-0.6-2.8
					C288.5,77.5,287.5,78.6,285.2,79z"/>
				<path id="XMLID_109_" class="st8" d="M288.8,80.5c-4.1,3.2-7.6,3.7-9.2,3.7c0.1,0.1,0.4,0.2,0.9,0.2
					C280.4,84.5,284.7,84.3,288.8,80.5z"/>
			</g>
		</g>
		<g id="kaki-kanan_36_">
			<path id="kaki-kanan_37_" class="st6" d="M278.1,43.3c0,0-4,9-4.6,11.1l-4,24.2c0,0-1.4,2.4,2.9,1.2c0,0,3.3-18.5,5.8-23.3
				c2.3-4.5,4.2-5,6-10.7C284.1,45.8,283.5,39.1,278.1,43.3z"/>
			<g id="sepatu-1_18_">
				<path id="XMLID_108_" class="st7" d="M268.8,79.5c0,0-5.2,1.1-6.2,0.7c0,0-2.6,0.3-0.8,1.3c0,0,3.9,2.3,9.6,1.2c0,0,1-1.4,1-2.7
					C272.5,80,271,80.4,268.8,79.5z"/>
				<path id="XMLID_107_" class="st8" d="M271,82.8c-5.2,0.5-8.4-1-9.8-1.9c0,0.2,0.2,0.4,0.6,0.6C261.8,81.5,265.5,83.7,271,82.8z"
					/>
			</g>
		</g>
		<g id="tangan-2_38_">
			<path id="XMLID_106_" class="st10" d="M276.6,27c0,0-1.1,6.7-2,9s-3,8-3.6,8.5c-0.7,0.5-1.6-0.2-1.8,1s0.9,5.3,2.8,3.4
				c0,0,0.1-1.1,0.5-1.6c0.5-0.5,0.4-1.9,0.4-1.9s6.2-10.1,6.7-12.7c0.5-2.7,0.6-5.6,0.6-5.6S279.2,27.9,276.6,27z"/>
			<path id="XMLID_105_" class="st12" d="M277.4,20c0,0-1.9,0.8-1.6,2.1c0.3,1.3,0.2,4.7-0.1,6.2c-0.1,0.5,0.3,1,0.9,1.5
				c1.3,1,3.6,1.6,4.3,0c1-2.3-0.7-9.5-0.6-8.4C280.4,22,280.5,19.5,277.4,20z"/>
		</g>
		<path id="XMLID_64_" class="st12" d="M277.1,18.1c0,0-2.2,3.6-2.1,6.5c0,0,0.5,7.1,0.5,9.2s-0.5,13-0.5,13s5.3,2.8,9.7-0.2
			c0,0-0.9-15-0.2-17.9c0.7-2.9-0.6-9.2-2-10.9C281,17.1,279,16.8,277.1,18.1z"/>
		<g id="tangan-2_37_">
			<path id="XMLID_63_" class="st10" d="M279.6,26.9c0,0,2.1,6.5,2.3,9c0.2,2.5,1,8.5,0.6,9.2s-1.5,0.6-1.1,1.7
				c0.4,1.2,3.2,4.4,4.1,1.8c0,0-0.4-1-0.2-1.7c0.2-0.7-0.5-1.9-0.5-1.9s1.1-11.8,0.3-14.4c-0.8-2.6-2-5.3-2-5.3
				S282.4,26.5,279.6,26.9z"/>
			<path id="XMLID_62_" class="st12" d="M277.2,20.3c0,0-1.3,1.6-0.5,2.6c0.9,1,2.3,4.2,2.7,5.6c0.1,0.4,0.7,0.8,1.4,0.9
				c1.6,0.3,3.9-0.2,3.8-1.9c-0.1-2.6-4.9-8.2-4.3-7.3C280.7,20.7,279.8,18.4,277.2,20.3z"/>
		</g>
	</g>
	<g id="frame-7_2_">
		<path id="kepala_17_" class="st2" d="M324.9,6.6c0,0-0.7,4.4-1.3,5.1c-0.7,0.6,0.6,0.3,0.7,0.6s0,4.2,0.6,4.3s1.7,0.3,2.7-0.6
			l-0.4,1.6c0,0,1.9,1.8,4.1-0.2c0,0-0.5-1.8-0.5-3s1.6-1.7,1.6-4.9S330.3,5,328.3,5S324.9,6.6,324.9,6.6z"/>
		<path id="XMLID_61_" class="st3" d="M328.3,5c-2.1,0-3.4,1.6-3.4,1.6s0,0.1,0,0.3c0.1,0,0.1,0,0.2,0c1.3,0,2.6,0.9,2.6,0.9
			s0.9,1,0.7,2.2c-0.2,1,2,3,2.7,3.6c0.4-0.9,1.5-1.6,1.5-4.2C332.4,6.2,330.3,5,328.3,5z"/>
		<g id="kaki-kiri_34_">
			<path id="kaki-kiri_35_" class="st6" d="M325.3,46c0,0,2.4,9.5,3.3,11.6l11.9,21.5c0,0,0.4,2.8,3.1-0.9c0,0-8.9-16.6-9.9-21.8
				c-1-5,0.2-6.5-1.9-12.1C331.6,44.3,326.9,39.4,325.3,46z"/>
			<g id="sepatu-2_17_">
				<path id="XMLID_60_" class="st7" d="M339.5,78c0,0-3.2,4.3-4.2,4.6c0,0-1.8,1.9,0.2,1.5c0,0,4.4-0.8,8-5.4c0,0-0.2-1.7-1-2.6
					C342.5,76,341.7,77.3,339.5,78z"/>
				<path id="XMLID_59_" class="st8" d="M343.2,79.1c-3.6,3.8-7,4.7-8.6,5c0.1,0.1,0.4,0.2,0.9,0.1
					C335.5,84.1,339.6,83.3,343.2,79.1z"/>
			</g>
		</g>
		<g id="kaki-kanan_34_">
			<path id="kaki-kanan_35_" class="st6" d="M327.1,44.1c0,0-5,8.5-5.9,10.5l-6.8,23.6c0,0-1.7,2.2,2.8,1.5c0,0,5.4-18,8.4-22.5
				c2.8-4.2,4.7-4.5,7.2-10C332.8,47.3,332.9,40.5,327.1,44.1z"/>
			<g id="sepatu-1_17_">
				<path id="XMLID_58_" class="st7" d="M313.8,79c0,0-5.3,0.5-6.2,0c0,0-2.6,0-1,1.2c0,0,3.6,2.7,9.4,2.3c0,0,1.1-1.3,1.3-2.5
					C317.3,79.9,315.8,80.2,313.8,79z"/>
				<path id="XMLID_57_" class="st8" d="M315.5,82.5c-5.2-0.1-8.2-2-9.5-3c0,0.2,0.1,0.4,0.5,0.7C306.6,80.2,310,82.7,315.5,82.5z"
					/>
			</g>
		</g>
		<g id="tangan-2_36_">
			<path id="XMLID_56_" class="st10" d="M327.2,27.2c0,0-1.9,6.5-3.1,8.7s-3.9,7.6-4.7,8c-0.7,0.4-1.6-0.4-1.9,0.8s0.2,5.4,2.4,3.8
				c0,0,0.2-1.1,0.7-1.5c0.5-0.5,0.7-1.8,0.7-1.8s7.5-9.2,8.3-11.8s1.3-5.5,1.3-5.5S329.7,28.5,327.2,27.2z"/>
			<path id="XMLID_55_" class="st12" d="M328.9,20.4c0,0-2,0.6-1.8,1.9s-0.4,4.7-0.9,6.1c-0.1,0.4,0.2,1,0.7,1.6
				c1.1,1.1,3.3,2,4.2,0.5c1.3-2.2,0.5-9.6,0.5-8.4C331.5,22.8,332,20.3,328.9,20.4z"/>
		</g>
		<path id="XMLID_53_" class="st12" d="M326.8,18.1c0,0-2.2,3.6-2.1,6.5c0,0,0.5,7.1,0.5,9.2s-0.5,13-0.5,13s5.3,2.8,9.7-0.2
			c0,0-0.9-15-0.2-17.9c0.7-2.9-0.6-9.2-2-10.9C330.7,17.1,328.6,16.8,326.8,18.1z"/>
		<g id="tangan-2_35_">
			<path id="XMLID_52_" class="st10" d="M329.6,27c0,0,2.5,6.4,2.9,8.8c0.4,2.4,1.5,8.4,1.2,9.2s-1.5,0.7-1,1.8
				c0.4,1.1,3.5,4.1,4.2,1.5c0,0-0.5-1-0.3-1.7s-0.6-1.9-0.6-1.9s0.3-11.9-0.6-14.4s-2.3-5.1-2.3-5.1S332.3,26.5,329.6,27z"/>
			<path id="XMLID_51_" class="st12" d="M326.7,20.5c0,0-1.2,1.7-0.3,2.6s2.5,4,3.1,5.4c0.2,0.4,0.8,0.7,1.5,0.8
				c1.6,0.2,3.9-0.4,3.7-2.2c-0.3-2.6-5.4-7.9-4.8-7C330.3,20.8,329.2,18.5,326.7,20.5z"/>
		</g>
	</g>
	<g id="frame-8_2_">
		<path id="kepala_16_" class="st2" d="M374.9,6.6c0,0-0.7,4.4-1.3,5.1c-0.7,0.6,0.6,0.3,0.7,0.6s0,4.2,0.6,4.3s1.7,0.3,2.7-0.6
			l-0.4,1.6c0,0,1.9,1.8,4.1-0.2c0,0-0.5-1.8-0.5-3s1.6-1.7,1.6-4.9S380.3,5,378.3,5S374.9,6.6,374.9,6.6z"/>
		<path id="XMLID_50_" class="st3" d="M378.3,5c-2.1,0-3.4,1.6-3.4,1.6s0,0.1,0,0.3c0.1,0,0.1,0,0.2,0c1.3,0,2.6,0.9,2.6,0.9
			s0.9,1,0.7,2.2c-0.2,1,2,3,2.7,3.6c0.4-0.9,1.5-1.6,1.5-4.2C382.5,6.2,380.3,5,378.3,5z"/>
		<g id="kaki-kiri_32_">
			<path id="kaki-kiri_33_" class="st6" d="M375.4,45.3c0,0,1.1,9.8,1.6,11.9l8.7,23c0,0,0,2.8,3.1-0.5c0,0-6.5-17.7-6.8-23
				c-0.3-5.1,1.1-6.4-0.2-12.3C381.9,44.5,377.9,39,375.4,45.3z"/>
			<g id="sepatu-2_16_">
				<path id="XMLID_49_" class="st7" d="M384.9,79c0,0-3.8,3.8-4.8,3.9c0,0-2.1,1.7,0,1.5c0,0,4.5-0.2,8.7-4.3c0,0,0.1-1.7-0.6-2.8
					C388.2,77.5,387.2,78.6,384.9,79z"/>
				<path id="XMLID_48_" class="st8" d="M388.5,80.5c-4.1,3.2-7.6,3.7-9.2,3.7c0.1,0.1,0.4,0.2,0.9,0.2
					C380.1,84.5,384.4,84.3,388.5,80.5z"/>
			</g>
		</g>
		<g id="kaki-kanan_32_">
			<path id="kaki-kanan_33_" class="st6" d="M377.7,43.3c0,0-4,9-4.6,11.1l-4,24.2c0,0-1.4,2.4,2.9,1.2c0,0,3.3-18.5,5.8-23.3
				c2.3-4.5,4.2-5,6-10.7C383.8,45.8,383.1,39.1,377.7,43.3z"/>
			<g id="sepatu-1_16_">
				<path id="XMLID_47_" class="st7" d="M368.5,79.5c0,0-5.2,1.1-6.2,0.7c0,0-2.6,0.3-0.8,1.3c0,0,3.9,2.3,9.6,1.2c0,0,1-1.4,1-2.7
					C372.1,80,370.6,80.4,368.5,79.5z"/>
				<path id="XMLID_46_" class="st8" d="M370.7,82.8c-5.2,0.5-8.4-1-9.8-1.9c0,0.2,0.2,0.4,0.6,0.6
					C361.5,81.5,365.2,83.7,370.7,82.8z"/>
			</g>
		</g>
		<g id="tangan-2_34_">
			<path id="XMLID_45_" class="st10" d="M376.2,27c0,0-1.1,6.7-2,9s-3,8-3.6,8.5c-0.7,0.5-1.6-0.2-1.8,1c-0.2,1.2,0.9,5.3,2.8,3.4
				c0,0,0.1-1.1,0.5-1.6c0.5-0.5,0.4-1.9,0.4-1.9s6.2-10.1,6.7-12.7c0.5-2.7,0.6-5.6,0.6-5.6S378.9,27.9,376.2,27z"/>
			<path id="XMLID_44_" class="st12" d="M377.1,20c0,0-1.9,0.8-1.6,2.1c0.3,1.3,0.2,4.7-0.1,6.2c-0.1,0.5,0.3,1,0.9,1.5
				c1.3,1,3.6,1.6,4.3,0c1-2.3-0.7-9.5-0.6-8.4C380,22,380.2,19.5,377.1,20z"/>
		</g>
		<path id="XMLID_43_" class="st12" d="M376.8,18.1c0,0-2.2,3.6-2.1,6.5c0,0,0.5,7.1,0.5,9.2s-0.5,13-0.5,13s5.3,2.8,9.7-0.2
			c0,0-0.9-15-0.2-17.9c0.7-2.9-0.6-9.2-2-10.9C380.7,17.1,378.6,16.8,376.8,18.1z"/>
		<g id="tangan-2_33_">
			<path id="XMLID_5_" class="st10" d="M379.2,26.9c0,0,2.1,6.5,2.3,9c0.2,2.5,1,8.5,0.6,9.2s-1.5,0.6-1.1,1.7
				c0.4,1.2,3.2,4.4,4.1,1.8c0,0-0.4-1-0.2-1.7c0.2-0.7-0.5-1.9-0.5-1.9s1.1-11.8,0.3-14.4c-0.8-2.6-2-5.3-2-5.3
				S382,26.5,379.2,26.9z"/>
			<path id="XMLID_2_" class="st12" d="M376.9,20.3c0,0-1.3,1.6-0.5,2.6c0.9,1,2.3,4.2,2.7,5.6c0.1,0.4,0.7,0.8,1.4,0.9
				c1.6,0.3,3.9-0.2,3.8-1.9c-0.1-2.6-4.9-8.2-4.3-7.3C380.4,20.7,379.4,18.4,376.9,20.3z"/>
		</g>
	</g>
</g>
</svg>
