<?xml version="1.0" encoding="utf-8"?>
<!-- Generator: Adobe Illustrator 19.0.0, SVG Export Plug-In . SVG Version: 6.00 Build 0)  -->
<svg version="1.1" id="Layer_1" xmlns="http://www.w3.org/2000/svg" xmlns:xlink="http://www.w3.org/1999/xlink" x="0px" y="0px"
	 viewBox="0 0 400 90" style="enable-background:new 0 0 400 90;" xml:space="preserve">
<style type="text/css">
	.st0{fill:#F6E0CD;}
	.st1{fill:#8E4610;}
	.st2{display:none;}
	.st3{display:inline;fill:#F6E0CD;stroke:#F6E0CD;stroke-miterlimit:10;}
	.st4{display:inline;fill:#1A237E;stroke:#1A237E;stroke-miterlimit:10;}
	.st5{fill:#263238;stroke:#37474F;stroke-miterlimit:10;}
	.st6{fill:#424242;stroke:#424242;stroke-miterlimit:10;}
	.st7{fill:#FAFAFA;}
	.st8{fill:#1A237E;stroke:#1A237E;stroke-miterlimit:10;}
	.st9{fill:#F6E0CD;stroke:#F6E0CD;stroke-miterlimit:10;}
</style>
<g id="orang-3">
	<g id="frame-1_2_">
		<path id="kepala_23_" class="st0" d="M26,6.6c0,0,0.7,4.4,1.3,5.1c0.7,0.6-0.6,0.3-0.7,0.6s0,4.2-0.6,4.3s-1.7,0.3-2.7-0.6
			l0.4,1.6c0,0-1.9,1.8-4.1-0.2c0,0,0.5-1.8,0.5-3s-1.6-1.7-1.6-4.9s2.1-4.4,4.1-4.4S26,6.6,26,6.6z"/>
		<path id="XMLID_161_" class="st1" d="M22.6,5C24.7,5,26,6.6,26,6.6s0,0.1,0,0.3c-0.1,0-0.1,0-0.2,0c-1.3,0-2.6,0.9-2.6,0.9
			s-0.9,1-0.7,2.2c0.2,1-2,3-2.7,3.6c-0.4-0.9-1.5-1.6-1.5-4.2C18.4,6.2,20.6,5,22.6,5z"/>
		<g id="tangan-2_48_" class="st2">
			<path id="XMLID_160_" class="st3" d="M20.8,26.9c0,0-2.1,6.5-2.3,9c-0.2,2.5-1,8.5-0.6,9.2c0.4,0.7,1.5,0.6,1.1,1.7
				s-3.2,4.4-4.1,1.8c0,0,0.4-1,0.2-1.7s0.5-1.9,0.5-1.9s-1.1-11.8-0.3-14.4s2-5.3,2-5.3S18,26.5,20.8,26.9z"/>
			<path id="XMLID_159_" class="st4" d="M23.2,20.3c0,0,1.3,1.6,0.5,2.6c-0.9,1-2.3,4.2-2.7,5.6c-0.1,0.4-0.7,0.8-1.4,0.9
				c-1.6,0.3-3.9-0.2-3.8-1.9c0.1-2.6,4.9-8.2,4.3-7.3C19.7,20.7,20.6,18.4,23.2,20.3z"/>
		</g>
		<g id="kaki-kanan_46_">
			<path id="kaki-kanan_47_" class="st5" d="M24.1,42.7c0,0,2.6,9.5,2.9,11.7L27.3,79c0,0,1.1,2.6-3.1,0.7c0,0-0.4-18.8-2.1-23.9
				c-1.6-4.8-3.3-5.6-4.3-11.5C17.8,44.3,19.4,37.7,24.1,42.7z"/>
			<g id="sepatu-1_23_">
				<path id="XMLID_158_" class="st6" d="M27.7,79.9c0,0,5,1.9,6,1.6c0,0,2.5,0.7,0.6,1.4c0,0-4.2,1.7-9.7-0.3c0,0-0.8-1.5-0.5-2.8
					C24,79.9,25.5,80.5,27.7,79.9z"/>
				<path id="XMLID_157_" class="st7" d="M25.1,82.8c5,1.3,8.5,0.3,9.9-0.3c0,0.2-0.2,0.3-0.7,0.5C34.3,83,30.3,84.5,25.1,82.8z"/>
			</g>
		</g>
		<g id="kaki-kiri_46_">
			<path id="kaki-kiri_47_" class="st5" d="M25,44.2c0,0,0.3,9.8,0.1,12l-5.3,24c0,0,0.4,2.8-3.2,0c0,0,3.9-18.4,3.4-23.7
				c-0.5-5.1-2-6.2-1.5-12.2C18.5,44.2,21.6,38.2,25,44.2z"/>
			<g id="sepatu-2_23_">
				<path id="XMLID_156_" class="st6" d="M20.5,78.8c0,0,4.3,3.2,5.3,3.2c0,0,2.3,1.3,0.2,1.5c0,0-4.5,0.5-9.3-2.9
					c0,0-0.3-1.7,0.2-2.8C17,77.8,18.2,78.8,20.5,78.8z"/>
				<path id="XMLID_155_" class="st7" d="M17.2,80.9c4.5,2.6,8.1,2.6,9.7,2.4c-0.1,0.1-0.3,0.3-0.8,0.3C26,83.6,21.8,84,17.2,80.9z"
					/>
			</g>
		</g>
		<path id="XMLID_154_" class="st8" d="M24.1,18.1c0,0,2.2,3.6,2.1,6.5c0,0-0.5,7.1-0.5,9.2s0.5,13,0.5,13s-5.3,2.8-9.7-0.2
			c0,0,0.9-15,0.2-17.9s0.6-9.2,2-10.9C20.2,17.1,22.3,16.8,24.1,18.1z"/>
		<g id="tangan-2_47_">
			<path id="XMLID_153_" class="st9" d="M22.6,26.8c0,0-0.3,6.8,0.1,9.3c0.4,2.4,1.2,8.5,1.8,9.1s1.6,0.2,1.5,1.4s-2,5-3.5,2.8
				c0,0,0.1-1.1-0.2-1.7c-0.3-0.6,0-2,0-2s-4-11.1-3.9-13.8s0.6-5.6,0.6-5.6S19.8,27.2,22.6,26.8z"/>
			<path id="XMLID_152_" class="st8" d="M23.2,19.8c0,0,1.7,1.2,1.1,2.4c-0.6,1.2-1.1,4.6-1.2,6.1c0,0.5-0.5,0.9-1.2,1.2
				c-1.5,0.7-3.8,0.8-4.2-0.9c-0.5-2.5,2.7-9.2,2.3-8.1C19.9,21.1,20.3,18.7,23.2,19.8z"/>
		</g>
	</g>
	<g id="frame-2_3_">
		<path id="kepala_22_" class="st0" d="M74.7,6.6c0,0,0.7,4.4,1.3,5.1c0.7,0.6-0.6,0.3-0.7,0.6s0,4.2-0.6,4.3S73,16.9,72,16l0.4,1.6
			c0,0-1.9,1.8-4.1-0.2c0,0,0.5-1.8,0.5-3s-1.6-1.7-1.6-4.9S69.3,5,71.3,5C73.4,5,74.7,6.6,74.7,6.6z"/>
		<path id="XMLID_151_" class="st1" d="M71.3,5c2.1,0,3.4,1.6,3.4,1.6s0,0.1,0,0.3c-0.1,0-0.1,0-0.2,0c-1.3,0-2.6,0.9-2.6,0.9
			s-0.9,1-0.7,2.2c0.2,1-2,3-2.7,3.6C68.1,12.7,67,12,67,9.4C67.1,6.2,69.3,5,71.3,5z"/>
		<g id="tangan-2_46_">
			<path id="XMLID_150_" class="st9" d="M70.3,26.9c0,0-2.1,6.5-2.3,9c-0.2,2.5-1,8.5-0.6,9.2s1.5,0.6,1.1,1.7
				c-0.4,1.2-3.2,4.4-4.1,1.8c0,0,0.4-1,0.2-1.7c-0.2-0.7,0.5-1.9,0.5-1.9S64,33.2,64.8,30.6c0.8-2.6,2-5.3,2-5.3
				S67.5,26.5,70.3,26.9z"/>
			<path id="XMLID_149_" class="st8" d="M72.7,20.3c0,0,1.3,1.6,0.5,2.6c-0.9,1-2.3,4.2-2.7,5.6c-0.1,0.4-0.7,0.8-1.4,0.9
				c-1.6,0.3-3.9-0.2-3.8-1.9c0.1-2.6,4.9-8.2,4.3-7.3C69.2,20.7,70.2,18.4,72.7,20.3z"/>
		</g>
		<g id="kaki-kanan_44_">
			<path id="kaki-kanan_45_" class="st5" d="M71.9,43.3c0,0,4,9,4.6,11.1l4,24.2c0,0,1.4,2.4-2.9,1.2c0,0-3.3-18.5-5.8-23.3
				c-2.3-4.5-4.2-5-6-10.7C65.8,45.8,66.4,39.1,71.9,43.3z"/>
			<g id="sepatu-1_22_">
				<path id="XMLID_148_" class="st6" d="M81.1,79.5c0,0,5.2,1.1,6.2,0.7c0,0,2.6,0.3,0.8,1.3c0,0-3.9,2.3-9.6,1.2c0,0-1-1.4-1-2.7
					C77.5,80,79,80.4,81.1,79.5z"/>
				<path id="XMLID_147_" class="st7" d="M78.9,82.8c5.2,0.5,8.4-1,9.8-1.9c0,0.2-0.2,0.4-0.6,0.6C88.1,81.5,84.4,83.7,78.9,82.8z"
					/>
			</g>
		</g>
		<g id="kaki-kiri_44_">
			<path id="kaki-kiri_45_" class="st5" d="M74.2,45.3c0,0-1.1,9.8-1.6,11.9l-8.7,23c0,0,0,2.8-3.1-0.5c0,0,6.5-17.7,6.8-23
				c0.3-5.1-1.1-6.4,0.2-12.3C67.7,44.5,71.7,39,74.2,45.3z"/>
			<g id="sepatu-2_22_">
				<path id="XMLID_146_" class="st6" d="M64.7,79c0,0,3.8,3.8,4.8,3.9c0,0,2.1,1.7,0,1.5c0,0-4.5-0.2-8.7-4.3c0,0-0.1-1.7,0.6-2.8
					C61.4,77.5,62.4,78.6,64.7,79z"/>
				<path id="XMLID_145_" class="st7" d="M61.1,80.5c4.1,3.2,7.6,3.7,9.2,3.7c-0.1,0.1-0.4,0.2-0.9,0.2
					C69.5,84.5,65.2,84.3,61.1,80.5z"/>
			</g>
		</g>
		<path id="XMLID_144_" class="st8" d="M72.8,18.1c0,0,2.2,3.6,2.1,6.5c0,0-0.5,7.1-0.5,9.2s0.5,13,0.5,13s-5.3,2.8-9.7-0.2
			c0,0,0.9-15,0.2-17.9s0.6-9.2,2-10.9C68.9,17.1,70.9,16.8,72.8,18.1z"/>
		<g id="tangan-2_45_">
			<path id="XMLID_143_" class="st9" d="M73.3,27c0,0,1.1,6.7,2,9s3,8,3.6,8.5c0.7,0.5,1.6-0.2,1.8,1c0.2,1.2-0.9,5.3-2.8,3.4
				c0,0-0.1-1.1-0.5-1.6c-0.5-0.5-0.4-1.9-0.4-1.9s-6.2-10.1-6.7-12.7s-0.6-5.6-0.6-5.6S70.7,27.9,73.3,27z"/>
			<path id="XMLID_142_" class="st8" d="M72.5,20c0,0,1.9,0.8,1.6,2.1s-0.2,4.7,0.1,6.2c0.1,0.5-0.3,1-0.9,1.5c-1.3,1-3.6,1.6-4.3,0
				c-1-2.3,0.7-9.5,0.6-8.4C69.6,22,69.4,19.5,72.5,20z"/>
		</g>
	</g>
	<g id="frame-3_3_">
		<path id="kepala_21_" class="st0" d="M124.9,6.6c0,0,0.7,4.4,1.3,5.1c0.7,0.6-0.6,0.3-0.7,0.6s0,4.2-0.6,4.3s-1.7,0.3-2.7-0.6
			l0.4,1.6c0,0-1.9,1.8-4.1-0.2c0,0,0.5-1.8,0.5-3s-1.6-1.7-1.6-4.9s2.1-4.5,4.1-4.5C123.6,5,124.9,6.6,124.9,6.6z"/>
		<path id="XMLID_141_" class="st1" d="M121.5,5c2.1,0,3.4,1.6,3.4,1.6s0,0.1,0,0.3c-0.1,0-0.1,0-0.2,0c-1.3,0-2.6,0.9-2.6,0.9
			s-0.9,1-0.7,2.2c0.2,1-2,3-2.7,3.6c-0.4-0.9-1.5-1.6-1.5-4.2C117.3,6.2,119.5,5,121.5,5z"/>
		<g id="tangan-2_44_">
			<path id="XMLID_140_" class="st9" d="M120.2,27c0,0-2.5,6.4-2.9,8.8c-0.4,2.4-1.5,8.4-1.2,9.2s1.5,0.7,1,1.8
				c-0.4,1.1-3.5,4.1-4.2,1.5c0,0,0.5-1,0.3-1.7s0.6-1.9,0.6-1.9s-0.3-11.9,0.6-14.4s2.3-5.1,2.3-5.1S117.5,26.5,120.2,27z"/>
			<path id="XMLID_139_" class="st8" d="M123,20.5c0,0,1.2,1.7,0.3,2.6c-0.9,0.9-2.5,4-3.1,5.4c-0.2,0.4-0.8,0.7-1.5,0.8
				c-1.6,0.2-3.9-0.4-3.7-2.2c0.3-2.6,5.4-7.9,4.8-7C119.5,20.8,120.6,18.5,123,20.5z"/>
		</g>
		<g id="kaki-kanan_42_">
			<path id="kaki-kanan_43_" class="st5" d="M122.7,44.1c0,0,5,8.5,5.9,10.5l6.8,23.6c0,0,1.7,2.2-2.8,1.5c0,0-5.4-18-8.4-22.5
				c-2.8-4.2-4.7-4.5-7.2-10C117,47.3,116.9,40.5,122.7,44.1z"/>
			<g id="sepatu-1_21_">
				<path id="XMLID_138_" class="st6" d="M136,79c0,0,5.3,0.5,6.2,0c0,0,2.6,0,1,1.2c0,0-3.6,2.7-9.4,2.3c0,0-1.1-1.3-1.3-2.5
					C132.5,79.9,134,80.2,136,79z"/>
				<path id="XMLID_137_" class="st7" d="M134.2,82.5c5.2-0.1,8.2-2,9.5-3c0,0.2-0.1,0.4-0.5,0.7C143.2,80.2,139.8,82.7,134.2,82.5z
					"/>
			</g>
		</g>
		<g id="kaki-kiri_42_">
			<path id="kaki-kiri_43_" class="st5" d="M124.5,46c0,0-2.4,9.5-3.3,11.6l-11.9,21.5c0,0-0.4,2.8-3.1-0.9c0,0,8.9-16.6,9.9-21.8
				c1-5-0.2-6.5,1.9-12.1C118.2,44.3,122.8,39.4,124.5,46z"/>
			<g id="sepatu-2_21_">
				<path id="XMLID_136_" class="st6" d="M110.3,78c0,0,3.2,4.3,4.2,4.6c0,0,1.8,1.9-0.2,1.5c0,0-4.4-0.8-8-5.4c0,0,0.2-1.7,1-2.6
					C107.3,76,108.1,77.3,110.3,78z"/>
				<path id="XMLID_135_" class="st7" d="M106.6,79.1c3.6,3.8,7,4.7,8.6,5c-0.1,0.1-0.4,0.2-0.9,0.1
					C114.3,84.1,110.1,83.3,106.6,79.1z"/>
			</g>
		</g>
		<path id="XMLID_134_" class="st8" d="M123,18.1c0,0,2.2,3.6,2.1,6.5c0,0-0.5,7.1-0.5,9.2s0.5,13,0.5,13s-5.3,2.8-9.7-0.2
			c0,0,0.9-15,0.2-17.9s0.6-9.2,2-10.9C119.1,17.1,121.2,16.8,123,18.1z"/>
		<g id="tangan-2_43_">
			<path id="XMLID_133_" class="st9" d="M122.6,27.2c0,0,1.9,6.5,3.1,8.7s3.9,7.6,4.7,8c0.7,0.4,1.6-0.4,1.9,0.8s-0.2,5.4-2.4,3.8
				c0,0-0.2-1.1-0.7-1.5c-0.5-0.5-0.7-1.8-0.7-1.8s-7.5-9.2-8.3-11.8s-1.3-5.5-1.3-5.5S120.1,28.5,122.6,27.2z"/>
			<path id="XMLID_132_" class="st8" d="M120.9,20.4c0,0,2,0.6,1.8,1.9s0.4,4.7,0.9,6.1c0.1,0.4-0.2,1-0.7,1.6
				c-1.1,1.1-3.3,2-4.2,0.5c-1.3-2.2-0.5-9.6-0.5-8.4C118.2,22.8,117.7,20.3,120.9,20.4z"/>
		</g>
	</g>
	<g id="frame-4_2_">
		<path id="kepala_20_" class="st0" d="M174.9,6.6c0,0,0.7,4.4,1.3,5.1c0.7,0.6-0.6,0.3-0.7,0.6c-0.1,0.3,0,4.2-0.6,4.3
			s-1.7,0.3-2.7-0.6l0.4,1.6c0,0-1.9,1.8-4.1-0.2c0,0,0.5-1.8,0.5-3s-1.6-1.7-1.6-4.9s2-4.5,4.1-4.5C173.6,5,174.9,6.6,174.9,6.6z"
			/>
		<path id="XMLID_131_" class="st1" d="M171.5,5c2.1,0,3.4,1.6,3.4,1.6s0,0.1,0,0.3c-0.1,0-0.1,0-0.2,0c-1.3,0-2.6,0.9-2.6,0.9
			s-0.9,1-0.7,2.2c0.2,1-2,3-2.7,3.6c-0.4-0.9-1.5-1.6-1.5-4.2C167.3,6.2,169.4,5,171.5,5z"/>
		<g id="tangan-2_42_">
			<path id="XMLID_130_" class="st9" d="M170.5,26.9c0,0-2.1,6.5-2.3,9s-1,8.5-0.6,9.2s1.5,0.6,1.1,1.7s-3.2,4.4-4.1,1.8
				c0,0,0.4-1,0.2-1.7s0.5-1.9,0.5-1.9s-1.1-11.8-0.3-14.4s2-5.3,2-5.3S167.7,26.5,170.5,26.9z"/>
			<path id="XMLID_129_" class="st8" d="M172.9,20.3c0,0,1.3,1.6,0.5,2.6c-0.9,1-2.3,4.2-2.7,5.6c-0.1,0.4-0.7,0.8-1.4,0.9
				c-1.6,0.3-3.9-0.2-3.8-1.9c0.1-2.6,4.9-8.2,4.3-7.3C169.4,20.7,170.4,18.4,172.9,20.3z"/>
		</g>
		<g id="kaki-kanan_40_">
			<path id="kaki-kanan_41_" class="st5" d="M172,43.3c0,0,4,9,4.6,11.1l4,24.2c0,0,1.4,2.4-2.9,1.2c0,0-3.3-18.5-5.8-23.3
				c-2.3-4.5-4.2-5-6-10.7C166,45.8,166.6,39.1,172,43.3z"/>
			<g id="sepatu-1_20_">
				<path id="XMLID_128_" class="st6" d="M181.3,79.5c0,0,5.2,1.1,6.2,0.7c0,0,2.6,0.3,0.8,1.3c0,0-3.9,2.3-9.6,1.2c0,0-1-1.4-1-2.7
					C177.7,80,179.2,80.4,181.3,79.5z"/>
				<path id="XMLID_127_" class="st7" d="M179.1,82.8c5.2,0.5,8.4-1,9.8-1.9c0,0.2-0.2,0.4-0.6,0.6
					C188.3,81.5,184.6,83.7,179.1,82.8z"/>
			</g>
		</g>
		<g id="kaki-kiri_40_">
			<path id="kaki-kiri_41_" class="st5" d="M174.4,45.3c0,0-1.1,9.8-1.6,11.9l-8.7,23c0,0,0,2.8-3.1-0.5c0,0,6.5-17.7,6.8-23
				c0.3-5.1-1.1-6.4,0.2-12.3C167.9,44.5,171.9,39,174.4,45.3z"/>
			<g id="sepatu-2_20_">
				<path id="XMLID_126_" class="st6" d="M164.9,79c0,0,3.8,3.8,4.8,3.9c0,0,2.1,1.7,0,1.5c0,0-4.5-0.2-8.7-4.3c0,0-0.1-1.7,0.6-2.8
					C161.6,77.5,162.6,78.6,164.9,79z"/>
				<path id="XMLID_125_" class="st7" d="M161.3,80.5c4.1,3.2,7.6,3.7,9.2,3.7c-0.1,0.1-0.4,0.2-0.9,0.2
					C169.7,84.5,165.4,84.3,161.3,80.5z"/>
			</g>
		</g>
		<path id="XMLID_124_" class="st8" d="M173,18.1c0,0,2.2,3.6,2.1,6.5c0,0-0.5,7.1-0.5,9.2s0.5,13,0.5,13s-5.3,2.8-9.7-0.2
			c0,0,0.9-15,0.2-17.9s0.6-9.2,2-10.9C169.1,17.1,171.1,16.8,173,18.1z"/>
		<g id="tangan-2_41_">
			<path id="XMLID_123_" class="st9" d="M173.5,27c0,0,1.1,6.7,2,9s3,8,3.6,8.5s1.6-0.2,1.8,1s-0.9,5.3-2.8,3.4c0,0-0.1-1.1-0.5-1.6
				c-0.5-0.5-0.4-1.9-0.4-1.9s-6.2-10.1-6.7-12.7c-0.5-2.7-0.6-5.6-0.6-5.6S170.9,27.9,173.5,27z"/>
			<path id="XMLID_122_" class="st8" d="M172.7,20c0,0,1.9,0.8,1.6,2.1s-0.2,4.7,0.1,6.2c0.1,0.5-0.3,1-0.9,1.5
				c-1.3,1-3.6,1.6-4.3,0c-1-2.3,0.7-9.5,0.6-8.4C169.8,22,169.6,19.5,172.7,20z"/>
		</g>
	</g>
	<g id="frame-5_2_">
		<path id="kepala_19_" class="st0" d="M226,6.6c0,0,0.7,4.4,1.3,5.1c0.7,0.6-0.6,0.3-0.7,0.6c-0.1,0.3,0,4.2-0.6,4.3
			s-1.7,0.3-2.7-0.6l0.4,1.6c0,0-1.9,1.8-4.1-0.2c0,0,0.5-1.8,0.5-3s-1.6-1.7-1.6-4.9s2.1-4.5,4.1-4.5S226,6.6,226,6.6z"/>
		<path id="XMLID_121_" class="st1" d="M222.6,5c2.1,0,3.4,1.6,3.4,1.6s0,0.1,0,0.3c-0.1,0-0.1,0-0.2,0c-1.3,0-2.6,0.9-2.6,0.9
			s-0.9,1-0.7,2.2c0.2,1-2,3-2.7,3.6c-0.4-0.9-1.5-1.6-1.5-4.2C218.4,6.2,220.6,5,222.6,5z"/>
		<g id="tangan-2_40_" class="st2">
			<path id="XMLID_120_" class="st3" d="M220.8,26.9c0,0-2.1,6.5-2.3,9s-1,8.5-0.6,9.2s1.5,0.6,1.1,1.7s-3.2,4.4-4.1,1.8
				c0,0,0.4-1,0.2-1.7s0.5-1.9,0.5-1.9s-1.1-11.8-0.3-14.4s2-5.3,2-5.3S218,26.5,220.8,26.9z"/>
			<path id="XMLID_119_" class="st4" d="M223.2,20.3c0,0,1.3,1.6,0.5,2.6c-0.9,1-2.3,4.2-2.7,5.6c-0.1,0.4-0.7,0.8-1.4,0.9
				c-1.6,0.3-3.9-0.2-3.8-1.9c0.1-2.6,4.9-8.2,4.3-7.3C219.7,20.7,220.6,18.4,223.2,20.3z"/>
		</g>
		<g id="kaki-kanan_38_">
			<path id="kaki-kanan_39_" class="st5" d="M224.1,42.7c0,0,2.6,9.5,2.9,11.7l0.3,24.6c0,0,1.1,2.6-3.1,0.7c0,0-0.4-18.8-2.1-23.9
				c-1.6-4.8-3.3-5.6-4.3-11.5C217.8,44.3,219.4,37.7,224.1,42.7z"/>
			<g id="sepatu-1_19_">
				<path id="XMLID_118_" class="st6" d="M227.7,79.9c0,0,5,1.9,6,1.6c0,0,2.5,0.7,0.6,1.4c0,0-4.2,1.7-9.7-0.3c0,0-0.8-1.5-0.5-2.8
					C224,79.9,225.5,80.5,227.7,79.9z"/>
				<path id="XMLID_117_" class="st7" d="M225.1,82.8c5,1.3,8.5,0.3,9.9-0.3c0,0.2-0.2,0.3-0.7,0.5C234.3,83,230.3,84.5,225.1,82.8z
					"/>
			</g>
		</g>
		<g id="kaki-kiri_38_">
			<path id="kaki-kiri_39_" class="st5" d="M225,44.2c0,0,0.3,9.8,0.1,12l-5.3,24c0,0,0.4,2.8-3.2,0c0,0,3.9-18.4,3.4-23.7
				c-0.5-5.1-2-6.2-1.5-12.2C218.5,44.2,221.6,38.2,225,44.2z"/>
			<g id="sepatu-2_19_">
				<path id="XMLID_116_" class="st6" d="M220.5,78.8c0,0,4.3,3.2,5.3,3.2c0,0,2.3,1.3,0.2,1.5c0,0-4.5,0.5-9.3-2.9
					c0,0-0.3-1.7,0.2-2.8C217,77.8,218.2,78.8,220.5,78.8z"/>
				<path id="XMLID_115_" class="st7" d="M217.2,80.9c4.5,2.6,8.1,2.6,9.7,2.4c-0.1,0.1-0.3,0.3-0.8,0.3
					C226,83.6,221.8,84,217.2,80.9z"/>
			</g>
		</g>
		<path id="XMLID_114_" class="st8" d="M224.1,18.1c0,0,2.2,3.6,2.1,6.5c0,0-0.5,7.1-0.5,9.2s0.5,13,0.5,13s-5.3,2.8-9.7-0.2
			c0,0,0.9-15,0.2-17.9s0.6-9.2,2-10.9C220.2,17.1,222.3,16.8,224.1,18.1z"/>
		<g id="tangan-2_39_">
			<path id="XMLID_113_" class="st9" d="M222.6,26.8c0,0-0.3,6.8,0.1,9.3c0.4,2.4,1.2,8.5,1.8,9.1s1.6,0.2,1.5,1.4s-2,5-3.5,2.8
				c0,0,0.1-1.1-0.2-1.7c-0.3-0.6,0-2,0-2s-4-11.1-3.9-13.8s0.6-5.6,0.6-5.6S219.8,27.2,222.6,26.8z"/>
			<path id="XMLID_112_" class="st8" d="M223.2,19.8c0,0,1.7,1.2,1.1,2.4c-0.6,1.2-1.1,4.6-1.2,6.1c0,0.5-0.5,0.9-1.2,1.2
				c-1.5,0.7-3.8,0.8-4.2-0.9c-0.5-2.5,2.7-9.2,2.3-8.1C219.9,21.1,220.3,18.7,223.2,19.8z"/>
		</g>
	</g>
	<g id="frame-6_3_">
		<path id="kepala_18_" class="st0" d="M275.1,6.6c0,0,0.7,4.4,1.3,5.1c0.7,0.6-0.6,0.3-0.7,0.6s0,4.2-0.6,4.3s-1.7,0.3-2.7-0.6
			l0.4,1.6c0,0-1.9,1.8-4.1-0.2c0,0,0.5-1.8,0.5-3s-1.6-1.7-1.6-4.9s2-4.5,4.1-4.5S275.1,6.6,275.1,6.6z"/>
		<path id="XMLID_111_" class="st1" d="M271.7,5c2.1,0,3.4,1.6,3.4,1.6s0,0.1,0,0.3c-0.1,0-0.1,0-0.2,0c-1.3,0-2.6,0.9-2.6,0.9
			s-0.9,1-0.7,2.2c0.2,1-2,3-2.7,3.6c-0.4-0.9-1.5-1.6-1.5-4.2C267.5,6.2,269.6,5,271.7,5z"/>
		<g id="kaki-kiri_36_">
			<path id="kaki-kiri_37_" class="st5" d="M274.6,45.3c0,0-1.1,9.8-1.6,11.9l-8.7,23c0,0,0,2.8-3.1-0.5c0,0,6.5-17.7,6.8-23
				c0.3-5.1-1.1-6.4,0.2-12.3C268.1,44.5,272.1,39,274.6,45.3z"/>
			<g id="sepatu-2_18_">
				<path id="XMLID_110_" class="st6" d="M265.1,79c0,0,3.8,3.8,4.8,3.9c0,0,2.1,1.7,0,1.5c0,0-4.5-0.2-8.7-4.3c0,0-0.1-1.7,0.6-2.8
					C261.8,77.5,262.8,78.6,265.1,79z"/>
				<path id="XMLID_109_" class="st7" d="M261.5,80.5c4.1,3.2,7.6,3.7,9.2,3.7c-0.1,0.1-0.4,0.2-0.9,0.2
					C269.9,84.5,265.6,84.3,261.5,80.5z"/>
			</g>
		</g>
		<g id="kaki-kanan_36_">
			<path id="kaki-kanan_37_" class="st5" d="M272.2,43.3c0,0,4,9,4.6,11.1l4,24.2c0,0,1.4,2.4-2.9,1.2c0,0-3.3-18.5-5.8-23.3
				c-2.3-4.5-4.2-5-6-10.7C266.2,45.8,266.8,39.1,272.2,43.3z"/>
			<g id="sepatu-1_18_">
				<path id="XMLID_108_" class="st6" d="M281.5,79.5c0,0,5.2,1.1,6.2,0.7c0,0,2.6,0.3,0.8,1.3c0,0-3.9,2.3-9.6,1.2c0,0-1-1.4-1-2.7
					C277.8,80,279.3,80.4,281.5,79.5z"/>
				<path id="XMLID_107_" class="st7" d="M279.3,82.8c5.2,0.5,8.4-1,9.8-1.9c0,0.2-0.2,0.4-0.6,0.6
					C288.5,81.5,284.8,83.7,279.3,82.8z"/>
			</g>
		</g>
		<g id="tangan-2_38_">
			<path id="XMLID_106_" class="st9" d="M273.7,27c0,0,1.1,6.7,2,9s3,8,3.6,8.5c0.7,0.5,1.6-0.2,1.8,1s-0.9,5.3-2.8,3.4
				c0,0-0.1-1.1-0.5-1.6c-0.5-0.5-0.4-1.9-0.4-1.9s-6.2-10.1-6.7-12.7c-0.5-2.7-0.6-5.6-0.6-5.6S271.1,27.9,273.7,27z"/>
			<path id="XMLID_105_" class="st8" d="M272.9,20c0,0,1.9,0.8,1.6,2.1c-0.3,1.3-0.2,4.7,0.1,6.2c0.1,0.5-0.3,1-0.9,1.5
				c-1.3,1-3.6,1.6-4.3,0c-1-2.3,0.7-9.5,0.6-8.4C269.9,22,269.8,19.5,272.9,20z"/>
		</g>
		<path id="XMLID_64_" class="st8" d="M273.2,18.1c0,0,2.2,3.6,2.1,6.5c0,0-0.5,7.1-0.5,9.2s0.5,13,0.5,13s-5.3,2.8-9.7-0.2
			c0,0,0.9-15,0.2-17.9c-0.7-2.9,0.6-9.2,2-10.9C269.3,17.1,271.3,16.8,273.2,18.1z"/>
		<g id="tangan-2_37_">
			<path id="XMLID_63_" class="st9" d="M270.7,26.9c0,0-2.1,6.5-2.3,9c-0.2,2.5-1,8.5-0.6,9.2s1.5,0.6,1.1,1.7
				c-0.4,1.2-3.2,4.4-4.1,1.8c0,0,0.4-1,0.2-1.7c-0.2-0.7,0.5-1.9,0.5-1.9s-1.1-11.8-0.3-14.4c0.8-2.6,2-5.3,2-5.3
				S267.9,26.5,270.7,26.9z"/>
			<path id="XMLID_62_" class="st8" d="M273.1,20.3c0,0,1.3,1.6,0.5,2.6c-0.9,1-2.3,4.2-2.7,5.6c-0.1,0.4-0.7,0.8-1.4,0.9
				c-1.6,0.3-3.9-0.2-3.8-1.9c0.1-2.6,4.9-8.2,4.3-7.3C269.6,20.7,270.5,18.4,273.1,20.3z"/>
		</g>
	</g>
	<g id="frame-7_2_">
		<path id="kepala_17_" class="st0" d="M324.7,6.6c0,0,0.7,4.4,1.3,5.1c0.7,0.6-0.6,0.3-0.7,0.6s0,4.2-0.6,4.3S323,16.9,322,16
			l0.4,1.6c0,0-1.9,1.8-4.1-0.2c0,0,0.5-1.8,0.5-3s-1.6-1.7-1.6-4.9s2.1-4.5,4.1-4.5S324.7,6.6,324.7,6.6z"/>
		<path id="XMLID_61_" class="st1" d="M321.3,5c2.1,0,3.4,1.6,3.4,1.6s0,0.1,0,0.3c-0.1,0-0.1,0-0.2,0c-1.3,0-2.6,0.9-2.6,0.9
			s-0.9,1-0.7,2.2c0.2,1-2,3-2.7,3.6c-0.4-0.9-1.5-1.6-1.5-4.2C317.2,6.2,319.3,5,321.3,5z"/>
		<g id="kaki-kiri_34_">
			<path id="kaki-kiri_35_" class="st5" d="M324.3,46c0,0-2.4,9.5-3.3,11.6l-11.9,21.5c0,0-0.4,2.8-3.1-0.9c0,0,8.9-16.6,9.9-21.8
				c1-5-0.2-6.5,1.9-12.1C318,44.3,322.7,39.4,324.3,46z"/>
			<g id="sepatu-2_17_">
				<path id="XMLID_60_" class="st6" d="M310.1,78c0,0,3.2,4.3,4.2,4.6c0,0,1.8,1.9-0.2,1.5c0,0-4.4-0.8-8-5.4c0,0,0.2-1.7,1-2.6
					C307.1,76,307.9,77.3,310.1,78z"/>
				<path id="XMLID_59_" class="st7" d="M306.4,79.1c3.6,3.8,7,4.7,8.6,5c-0.1,0.1-0.4,0.2-0.9,0.1C314.1,84.1,310,83.3,306.4,79.1z
					"/>
			</g>
		</g>
		<g id="kaki-kanan_34_">
			<path id="kaki-kanan_35_" class="st5" d="M322.5,44.1c0,0,5,8.5,5.9,10.5l6.8,23.6c0,0,1.7,2.2-2.8,1.5c0,0-5.4-18-8.4-22.5
				c-2.8-4.2-4.7-4.5-7.2-10C316.8,47.3,316.7,40.5,322.5,44.1z"/>
			<g id="sepatu-1_17_">
				<path id="XMLID_58_" class="st6" d="M335.8,79c0,0,5.3,0.5,6.2,0c0,0,2.6,0,1,1.2c0,0-3.6,2.7-9.4,2.3c0,0-1.1-1.3-1.3-2.5
					C332.3,79.9,333.8,80.2,335.8,79z"/>
				<path id="XMLID_57_" class="st7" d="M334.1,82.5c5.2-0.1,8.2-2,9.5-3c0,0.2-0.1,0.4-0.5,0.7C343,80.2,339.6,82.7,334.1,82.5z"/>
			</g>
		</g>
		<g id="tangan-2_36_">
			<path id="XMLID_56_" class="st9" d="M322.4,27.2c0,0,1.9,6.5,3.1,8.7s3.9,7.6,4.7,8c0.7,0.4,1.6-0.4,1.9,0.8s-0.2,5.4-2.4,3.8
				c0,0-0.2-1.1-0.7-1.5c-0.5-0.5-0.7-1.8-0.7-1.8s-7.5-9.2-8.3-11.8s-1.3-5.5-1.3-5.5S319.9,28.5,322.4,27.2z"/>
			<path id="XMLID_55_" class="st8" d="M320.7,20.4c0,0,2,0.6,1.8,1.9s0.4,4.7,0.9,6.1c0.1,0.4-0.2,1-0.7,1.6
				c-1.1,1.1-3.3,2-4.2,0.5c-1.3-2.2-0.5-9.6-0.5-8.4C318.1,22.8,317.6,20.3,320.7,20.4z"/>
		</g>
		<path id="XMLID_53_" class="st8" d="M322.8,18.1c0,0,2.2,3.6,2.1,6.5c0,0-0.5,7.1-0.5,9.2s0.5,13,0.5,13s-5.3,2.8-9.7-0.2
			c0,0,0.9-15,0.2-17.9c-0.7-2.9,0.6-9.2,2-10.9C318.9,17.1,321,16.8,322.8,18.1z"/>
		<g id="tangan-2_35_">
			<path id="XMLID_52_" class="st9" d="M320,27c0,0-2.5,6.4-2.9,8.8c-0.4,2.4-1.5,8.4-1.2,9.2s1.5,0.7,1,1.8
				c-0.4,1.1-3.5,4.1-4.2,1.5c0,0,0.5-1,0.3-1.7s0.6-1.9,0.6-1.9s-0.3-11.9,0.6-14.4s2.3-5.1,2.3-5.1S317.3,26.5,320,27z"/>
			<path id="XMLID_51_" class="st8" d="M322.9,20.5c0,0,1.2,1.7,0.3,2.6s-2.5,4-3.1,5.4c-0.2,0.4-0.8,0.7-1.5,0.8
				c-1.6,0.2-3.9-0.4-3.7-2.2c0.3-2.6,5.4-7.9,4.8-7C319.3,20.8,320.4,18.5,322.9,20.5z"/>
		</g>
	</g>
	<g id="frame-8_2_">
		<path id="kepala_16_" class="st0" d="M374.8,6.6c0,0,0.7,4.4,1.3,5.1c0.7,0.6-0.6,0.3-0.7,0.6s0,4.2-0.6,4.3s-1.7,0.3-2.7-0.6
			l0.4,1.6c0,0-1.9,1.8-4.1-0.2c0,0,0.5-1.8,0.5-3s-1.6-1.7-1.6-4.9s2.1-4.5,4.1-4.5S374.8,6.6,374.8,6.6z"/>
		<path id="XMLID_50_" class="st1" d="M371.4,5c2.1,0,3.4,1.6,3.4,1.6s0,0.1,0,0.3c-0.1,0-0.1,0-0.2,0c-1.3,0-2.6,0.9-2.6,0.9
			s-0.9,1-0.7,2.2c0.2,1-2,3-2.7,3.6c-0.4-0.9-1.5-1.6-1.5-4.2C367.2,6.2,369.4,5,371.4,5z"/>
		<g id="kaki-kiri_32_">
			<path id="kaki-kiri_33_" class="st5" d="M374.3,45.3c0,0-1.1,9.8-1.6,11.9l-8.7,23c0,0,0,2.8-3.1-0.5c0,0,6.5-17.7,6.8-23
				c0.3-5.1-1.1-6.4,0.2-12.3C367.8,44.5,371.8,39,374.3,45.3z"/>
			<g id="sepatu-2_16_">
				<path id="XMLID_49_" class="st6" d="M364.8,79c0,0,3.8,3.8,4.8,3.9c0,0,2.1,1.7,0,1.5c0,0-4.5-0.2-8.7-4.3c0,0-0.1-1.7,0.6-2.8
					C361.5,77.5,362.5,78.6,364.8,79z"/>
				<path id="XMLID_48_" class="st7" d="M361.2,80.5c4.1,3.2,7.6,3.7,9.2,3.7c-0.1,0.1-0.4,0.2-0.9,0.2
					C369.6,84.5,365.3,84.3,361.2,80.5z"/>
			</g>
		</g>
		<g id="kaki-kanan_32_">
			<path id="kaki-kanan_33_" class="st5" d="M372,43.3c0,0,4,9,4.6,11.1l4,24.2c0,0,1.4,2.4-2.9,1.2c0,0-3.3-18.5-5.8-23.3
				c-2.3-4.5-4.2-5-6-10.7C365.9,45.8,366.6,39.1,372,43.3z"/>
			<g id="sepatu-1_16_">
				<path id="XMLID_47_" class="st6" d="M381.2,79.5c0,0,5.2,1.1,6.2,0.7c0,0,2.6,0.3,0.8,1.3c0,0-3.9,2.3-9.6,1.2c0,0-1-1.4-1-2.7
					C377.6,80,379.1,80.4,381.2,79.5z"/>
				<path id="XMLID_46_" class="st7" d="M379,82.8c5.2,0.5,8.4-1,9.8-1.9c0,0.2-0.2,0.4-0.6,0.6C388.2,81.5,384.5,83.7,379,82.8z"/>
			</g>
		</g>
		<g id="tangan-2_34_">
			<path id="XMLID_45_" class="st9" d="M373.5,27c0,0,1.1,6.7,2,9s3,8,3.6,8.5c0.7,0.5,1.6-0.2,1.8,1c0.2,1.2-0.9,5.3-2.8,3.4
				c0,0-0.1-1.1-0.5-1.6c-0.5-0.5-0.4-1.9-0.4-1.9s-6.2-10.1-6.7-12.7c-0.5-2.7-0.6-5.6-0.6-5.6S370.8,27.9,373.5,27z"/>
			<path id="XMLID_44_" class="st8" d="M372.6,20c0,0,1.9,0.8,1.6,2.1c-0.3,1.3-0.2,4.7,0.1,6.2c0.1,0.5-0.3,1-0.9,1.5
				c-1.3,1-3.6,1.6-4.3,0c-1-2.3,0.7-9.5,0.6-8.4C369.7,22,369.5,19.5,372.6,20z"/>
		</g>
		<path id="XMLID_43_" class="st8" d="M372.9,18.1c0,0,2.2,3.6,2.1,6.5c0,0-0.5,7.1-0.5,9.2s0.5,13,0.5,13s-5.3,2.8-9.7-0.2
			c0,0,0.9-15,0.2-17.9c-0.7-2.9,0.6-9.2,2-10.9C369,17.1,371.1,16.8,372.9,18.1z"/>
		<g id="tangan-2_33_">
			<path id="XMLID_163_" class="st9" d="M370.5,26.9c0,0-2.1,6.5-2.3,9c-0.2,2.5-1,8.5-0.6,9.2s1.5,0.6,1.1,1.7
				c-0.4,1.2-3.2,4.4-4.1,1.8c0,0,0.4-1,0.2-1.7c-0.2-0.7,0.5-1.9,0.5-1.9s-1.1-11.8-0.3-14.4c0.8-2.6,2-5.3,2-5.3
				S367.7,26.5,370.5,26.9z"/>
			<path id="XMLID_164_" class="st8" d="M372.8,20.3c0,0,1.3,1.6,0.5,2.6c-0.9,1-2.3,4.2-2.7,5.6c-0.1,0.4-0.7,0.8-1.4,0.9
				c-1.6,0.3-3.9-0.2-3.8-1.9c0.1-2.6,4.9-8.2,4.3-7.3C369.3,20.7,370.3,18.4,372.8,20.3z"/>
		</g>
	</g>
</g>
</svg>
